<svg width="120" height="120" viewBox="0 0 120 120" fill="none" xmlns="http://www.w3.org/2000/svg">
    <g clip-path="url(#clip0)">
        <path d="M24.706 14.1191H10.5884V120.002H52.9707L55.2943 113.492L52.9707 105.884L24.706 14.1191Z" fill="#C9E568"/>
        <path d="M72.8629 98.5898L52.9707 105.884V120.002H95.2942V105.884L72.8629 98.5898Z" fill="#85C782"/>
        <path d="M24.7061 0V105.882H67.059L69.4119 52.9412L67.059 0H24.7061Z" fill="#FBF4F4"/>
        <path d="M109.412 23.2555L92.0003 15.4511L86.168 0H67.0591V105.882H109.412C109.412 102.04 109.412 27.0896 109.412 23.2555Z" fill="#E9E4F0"/>
        <path d="M109.412 23.2555V23.244L86.168 0V23.2941L109.412 23.2555Z" fill="#CDCDE3"/>
        <path d="M66.8237 35.0586C51.2547 35.0586 38.5884 47.7249 38.5884 63.2939C38.5884 78.8628 51.2547 91.5292 66.8237 91.5292C66.9023 91.5292 66.9804 91.5268 67.059 91.5261L69.4119 65.8038L67.059 35.0617C66.9804 35.0609 66.9023 35.0586 66.8237 35.0586Z" fill="#E07167"/>
        <path d="M95.0591 63.2947C95.0591 47.8044 82.52 35.1896 67.0591 35.0625V91.5272C82.52 91.3999 95.0591 78.7851 95.0591 63.2947Z" fill="#C6275B"/>
        <path d="M63.2943 49.1758V59.764H52.7061V66.8228H63.2943V77.4111H67.059L69.4119 63.4111L67.059 49.1758H63.2943Z" fill="#FBF4F4"/>
        <path d="M70.3532 59.764V49.1758H67.0591V77.4111H70.3532V66.8228H80.9414V59.764H70.3532Z" fill="#E9E4F0"/>
    </g>
    <defs>
        <clipPath id="clip0">
            <rect width="120" height="120" fill="white"/>
        </clipPath>
    </defs>
</svg>
