<svg width="1920" height="671" viewBox="0 0 1920 671" fill="none" xmlns="http://www.w3.org/2000/svg">
    <path d="M1969.77 487.914C1978.28 494.562 1983.96 504.187 1985.67 514.855C1987.38 525.523 1984.99 536.442 1978.98 545.418C1972.97 554.393 1963.78 560.759 1953.27 563.236C1942.76 565.713 1931.7 564.117 1922.31 558.768C1912.93 553.42 1905.92 544.716 1902.69 534.407C1899.46 524.097 1900.25 512.947 1904.9 503.197C1909.56 493.447 1917.73 485.822 1927.77 481.853C1937.82 477.884 1948.99 477.866 1959.05 481.804C1960.97 482.549 1962.84 483.441 1964.63 484.471C1966.42 485.493 1968.14 486.643 1969.77 487.914Z" fill="#0083CA"/>
    <path d="M1909.32 547.251L1902.72 552.443C1901.16 553.613 1899.25 554.214 1897.3 554.144C1895.35 554.075 1893.48 553.34 1892.01 552.061C1890.53 550.782 1889.54 549.037 1889.19 547.116C1888.85 545.195 1889.17 543.213 1890.11 541.501C1890.66 540.545 1891.38 539.701 1892.24 539.014L1901.97 531.371C1903.29 537.118 1905.79 542.526 1909.32 547.251Z" fill="#0074B3"/>
    <path d="M1977.74 528.642C1981.66 509.682 1969.48 491.129 1950.53 487.202C1931.57 483.276 1913.03 495.463 1909.1 514.423C1905.18 533.384 1917.36 551.937 1936.31 555.863C1955.27 559.79 1973.81 547.603 1977.74 528.642Z" fill="#F9FBFC"/>
    <path d="M1916.48 505.306L1915.75 506.59L1923.12 510.795L1923.85 509.511L1916.48 505.306Z" fill="#3A4D57"/>
    <path d="M1921.09 526.979L1912.9 529.219L1913.29 530.644L1921.48 528.404L1921.09 526.979Z" fill="#3A4D57"/>
    <path d="M1868.04 247.475C1867.84 246.621 1867.47 245.816 1866.96 245.105C1866.45 244.393 1865.8 243.79 1865.06 243.329C1864.31 242.869 1863.49 242.56 1862.62 242.42C1861.76 242.281 1860.87 242.314 1860.02 242.518L1776.47 262.111L1793.7 335.618L1870.78 317.593L1877.26 316.06L1883.75 314.546L1868.04 247.475Z" fill="#FA9887"/>
    <path d="M1867.8 246.699C1867.24 245.175 1866.13 243.91 1864.7 243.143C1863.27 242.377 1861.6 242.16 1860.02 242.535L1776.47 262.128C1774.89 262.498 1773.49 263.436 1772.55 264.764C1771.61 266.093 1771.19 267.72 1771.37 269.338L1867.8 246.699Z" fill="#F47D6E"/>
    <path d="M1787.21 337.15L1771.5 270.132C1771.3 269.279 1771.27 268.394 1771.41 267.529C1771.55 266.664 1771.86 265.835 1772.32 265.09C1772.78 264.345 1773.39 263.699 1774.1 263.187C1774.81 262.676 1775.62 262.31 1776.47 262.111C1778.19 261.711 1780 262.009 1781.51 262.942C1783.01 263.874 1784.08 265.364 1784.49 267.086L1800.2 334.104L1787.21 337.15Z" fill="#F47D6E"/>
    <path d="M1773.01 269.791C1772.86 269.137 1772.84 268.459 1772.94 267.795C1773.05 267.131 1773.29 266.496 1773.64 265.924C1774 265.353 1774.46 264.856 1775.01 264.464C1775.55 264.071 1776.17 263.79 1776.82 263.636C1777.48 263.482 1778.16 263.459 1778.82 263.567C1779.48 263.675 1780.12 263.913 1780.69 264.267C1781.26 264.621 1781.76 265.084 1782.15 265.63C1782.54 266.176 1782.82 266.794 1782.98 267.448L1798.71 334.448L1788.74 336.791L1773.01 269.791Z" fill="#F9F8F7"/>
    <path d="M1860.38 302.219L1851.04 262.383L1839.85 265.009L1849.19 304.845L1860.38 302.219Z" fill="#F47D6E"/>
    <path d="M1811.74 271.589L1810.65 271.844L1819.98 311.681L1821.07 311.426L1811.74 271.589Z" fill="#F47D6E"/>
    <path d="M1803.03 273.636L1801.94 273.891L1811.27 313.728L1812.36 313.473L1803.03 273.636Z" fill="#F47D6E"/>
    <path d="M1799.44 155.852C1803.05 158.375 1805.48 163.423 1804.13 165.297C1802.78 167.172 1797.21 166.451 1793.68 163.927C1790.15 161.404 1787.64 156.357 1788.99 154.482C1790.35 152.607 1795.91 153.328 1799.44 155.852Z" fill="#CD5458"/>
    <path d="M1791.7 178.205L1768.98 210.055C1768.35 210.826 1767.56 211.443 1766.66 211.859C1765.76 212.274 1764.78 212.477 1763.79 212.453L1762.58 212.327C1761.6 212.193 1760.68 211.808 1759.9 211.209C1759.08 210.656 1758.42 209.906 1757.97 209.028L1757.46 207.91C1757.11 206.989 1756.98 205.997 1757.07 205.014C1757.17 204.032 1757.49 203.085 1758.02 202.25L1780.69 170.418C1779.26 172.419 1781.12 176.06 1783.64 177.88C1786.17 179.701 1790.27 180.26 1791.7 178.205Z" fill="#F24C88"/>
    <path d="M1788.74 170.815C1791.28 172.618 1793.12 176.223 1791.7 178.26C1790.27 180.297 1786.29 179.684 1783.7 177.881C1781.1 176.079 1779.32 172.474 1780.74 170.419C1782.17 168.364 1786.22 169.013 1788.74 170.815Z" fill="#FC7EB2"/>
    <path d="M1768.98 210.053L1791.7 178.202C1793.12 176.22 1791.28 172.578 1788.74 170.758C1786.2 168.937 1782.17 168.379 1780.74 170.361L1758.02 202.212C1757.49 203.047 1757.17 203.993 1757.07 204.976C1756.98 205.958 1757.11 206.95 1757.46 207.872L1757.97 208.989C1758.42 209.867 1759.08 210.618 1759.9 211.17C1760.68 211.769 1761.6 212.154 1762.58 212.288L1763.79 212.414C1764.78 212.443 1765.76 212.246 1766.66 211.836C1767.56 211.427 1768.35 210.817 1768.98 210.053ZM1769.75 210.612C1769.03 211.512 1768.1 212.23 1767.05 212.709C1766 213.188 1764.85 213.414 1763.7 213.369L1762.49 213.243C1761.35 213.068 1760.27 212.628 1759.33 211.958C1758.39 211.288 1757.62 210.407 1757.08 209.386L1756.58 208.268C1756.17 207.186 1756.02 206.022 1756.13 204.87C1756.25 203.718 1756.64 202.61 1757.26 201.635L1786.51 160.754C1787.49 163.313 1789.19 165.529 1791.41 167.131C1793.63 168.732 1796.28 169.648 1799.01 169.766L1769.75 210.612Z" fill="#2E77C3"/>
    <path d="M1804.11 165.296C1805.46 163.494 1802.96 158.375 1799.43 155.851C1795.9 153.328 1790.33 152.589 1788.98 154.481C1787.62 156.374 1790.13 161.403 1793.66 163.926C1797.19 166.45 1802.78 167.189 1804.11 165.296ZM1799.99 155.076C1803.8 157.798 1806.69 163.332 1804.89 165.891C1803.08 168.451 1796.9 167.477 1793.1 164.738C1789.3 161.998 1786.4 156.482 1788.2 153.922C1790 151.363 1796.18 152.336 1800 155.076H1799.99Z" fill="#DD6C5E"/>
    <path d="M1788.22 153.926C1786.42 156.449 1789.3 161.983 1793.12 164.741C1796.94 167.499 1803.1 168.346 1804.9 165.895L1803.1 168.31C1802.57 168.876 1801.91 169.304 1801.18 169.558C1800.45 169.813 1799.67 169.885 1798.9 169.77C1796.17 169.652 1793.53 168.736 1791.3 167.134C1789.08 165.533 1787.38 163.316 1786.4 160.757C1786.04 160.071 1785.85 159.307 1785.85 158.531C1785.85 157.756 1786.04 156.992 1786.4 156.305L1788.22 153.926Z" fill="#CD5458"/>
    <path d="M1843.93 62.5004L1811.97 105.617C1811.4 106.385 1811.17 107.345 1811.31 108.287C1811.45 109.23 1811.96 110.078 1812.72 110.646L1871.26 154.068C1872.03 154.634 1872.99 154.874 1873.93 154.736C1874.87 154.597 1875.72 154.092 1876.29 153.329L1908.25 110.195C1908.82 109.427 1909.06 108.467 1908.91 107.524C1908.77 106.582 1908.26 105.734 1907.5 105.166L1848.98 61.7433C1848.59 61.4611 1848.16 61.2569 1847.7 61.1422C1847.24 61.0276 1846.76 61.0047 1846.3 61.075C1845.83 61.1454 1845.38 61.3074 1844.97 61.552C1844.57 61.7966 1844.21 62.1189 1843.93 62.5004ZM1874.13 147.075C1873.8 147.519 1873.35 147.856 1872.83 148.044C1872.31 148.231 1871.75 148.26 1871.21 148.128C1870.67 147.995 1870.19 147.707 1869.82 147.299C1869.45 146.891 1869.2 146.381 1869.12 145.835C1869.04 145.289 1869.12 144.731 1869.35 144.231C1869.59 143.731 1869.96 143.311 1870.44 143.025C1870.91 142.739 1871.45 142.6 1872.01 142.624C1872.56 142.649 1873.09 142.836 1873.53 143.163C1873.83 143.381 1874.08 143.654 1874.27 143.969C1874.46 144.283 1874.59 144.632 1874.64 144.995C1874.7 145.359 1874.68 145.729 1874.59 146.086C1874.5 146.443 1874.35 146.779 1874.13 147.075ZM1865.61 140.766C1865.28 141.209 1864.82 141.544 1864.3 141.73C1863.78 141.915 1863.22 141.942 1862.68 141.807C1862.15 141.673 1861.66 141.382 1861.29 140.972C1860.92 140.562 1860.68 140.052 1860.6 139.506C1860.52 138.959 1860.6 138.401 1860.84 137.902C1861.08 137.403 1861.46 136.985 1861.93 136.701C1862.4 136.417 1862.95 136.28 1863.5 136.308C1864.05 136.335 1864.59 136.525 1865.03 136.854C1865.32 137.073 1865.57 137.348 1865.76 137.663C1865.95 137.978 1866.07 138.327 1866.13 138.69C1866.18 139.054 1866.16 139.424 1866.07 139.78C1865.98 140.136 1865.83 140.471 1865.61 140.766ZM1857.1 134.457C1856.77 134.9 1856.32 135.236 1855.8 135.421C1855.28 135.606 1854.71 135.633 1854.18 135.499C1853.64 135.364 1853.16 135.073 1852.79 134.663C1852.42 134.254 1852.18 133.743 1852.1 133.197C1852.02 132.65 1852.1 132.092 1852.34 131.593C1852.57 131.094 1852.95 130.676 1853.43 130.392C1853.9 130.108 1854.45 129.971 1855 129.999C1855.55 130.026 1856.08 130.216 1856.52 130.545C1857.12 130.99 1857.51 131.65 1857.62 132.383C1857.72 133.115 1857.54 133.86 1857.1 134.457ZM1848.6 128.13C1848.27 128.577 1847.82 128.917 1847.3 129.107C1846.78 129.297 1846.22 129.328 1845.68 129.197C1845.14 129.066 1844.66 128.778 1844.28 128.37C1843.91 127.961 1843.66 127.452 1843.58 126.905C1843.5 126.358 1843.58 125.798 1843.81 125.297C1844.05 124.796 1844.43 124.376 1844.9 124.09C1845.37 123.804 1845.92 123.666 1846.47 123.692C1847.03 123.718 1847.56 123.908 1848 124.237C1848.6 124.676 1848.99 125.331 1849.1 126.061C1849.21 126.79 1849.03 127.534 1848.6 128.13ZM1840.15 121.821C1839.82 122.261 1839.37 122.593 1838.85 122.777C1838.34 122.961 1837.78 122.987 1837.24 122.853C1836.71 122.719 1836.23 122.431 1835.87 122.024C1835.5 121.617 1835.26 121.111 1835.18 120.568C1835.1 120.026 1835.18 119.472 1835.41 118.976C1835.65 118.48 1836.02 118.065 1836.49 117.782C1836.96 117.5 1837.51 117.363 1838.05 117.389C1838.6 117.415 1839.13 117.602 1839.57 117.928C1839.86 118.145 1840.11 118.418 1840.3 118.732C1840.49 119.045 1840.61 119.393 1840.67 119.755C1840.72 120.116 1840.7 120.485 1840.61 120.84C1840.52 121.195 1840.37 121.528 1840.15 121.821ZM1831.64 115.512C1831.19 116.067 1830.54 116.425 1829.83 116.514C1829.12 116.602 1828.4 116.414 1827.82 115.988C1827.25 115.562 1826.86 114.931 1826.73 114.225C1826.61 113.519 1826.76 112.793 1827.16 112.196C1827.37 111.88 1827.64 111.611 1827.95 111.403C1828.27 111.196 1828.63 111.055 1829 110.989C1829.37 110.924 1829.75 110.935 1830.12 111.022C1830.49 111.108 1830.84 111.269 1831.14 111.494C1831.45 111.719 1831.7 112.004 1831.89 112.331C1832.08 112.658 1832.21 113.02 1832.25 113.396C1832.3 113.772 1832.27 114.153 1832.17 114.517C1832.06 114.881 1831.88 115.22 1831.64 115.512ZM1823.14 109.204C1822.81 109.647 1822.35 109.982 1821.83 110.168C1821.31 110.353 1820.75 110.38 1820.22 110.245C1819.68 110.11 1819.2 109.82 1818.83 109.41C1818.46 109 1818.21 108.49 1818.13 107.944C1818.05 107.397 1818.14 106.839 1818.37 106.34C1818.61 105.84 1818.99 105.423 1819.46 105.139C1819.94 104.855 1820.48 104.718 1821.04 104.745C1821.59 104.773 1822.12 104.963 1822.56 105.292C1823.14 105.748 1823.52 106.413 1823.61 107.145C1823.71 107.876 1823.51 108.616 1823.07 109.204H1823.14Z" fill="#F9FBFC"/>
    <path d="M1846.49 70.6536L1825.01 99.625L1826.79 100.946L1848.27 71.9743L1846.49 70.6536Z" fill="#A5B7C6"/>
    <path d="M1854.77 76.7786L1833.29 105.75L1835.07 107.071L1856.55 78.0993L1854.77 76.7786Z" fill="#A5B7C6"/>
    <path d="M1863.02 82.9193L1841.54 111.891L1843.32 113.211L1864.8 84.24L1863.02 82.9193Z" fill="#A5B7C6"/>
    <path d="M1871.28 89.0248L1849.81 117.996L1851.59 119.317L1873.06 90.3454L1871.28 89.0248Z" fill="#A5B7C6"/>
    <path d="M1879.55 95.1654L1858.07 124.137L1859.85 125.457L1881.33 96.486L1879.55 95.1654Z" fill="#A5B7C6"/>
    <path d="M1887.81 101.29L1866.33 130.262L1868.12 131.582L1889.59 102.611L1887.81 101.29Z" fill="#A5B7C6"/>
    <path d="M1896.06 107.431L1874.59 136.402L1876.37 137.723L1897.84 108.752L1896.06 107.431Z" fill="#A5B7C6"/>
    <path d="M1635.52 200.682C1634.96 200.815 1634.44 201.057 1633.98 201.393C1633.52 201.728 1633.13 202.152 1632.83 202.639C1632.53 203.126 1632.33 203.668 1632.24 204.232C1632.15 204.796 1632.18 205.372 1632.31 205.927L1633.3 210.055L1635.82 220.6L1649.16 276.334L1654.85 284.625L1658.22 291.619L1658.06 283.868L1659.37 273.882L1645.97 218.148L1643.43 207.586L1642.51 203.44C1642.24 202.325 1641.53 201.362 1640.56 200.762C1639.58 200.161 1638.4 199.97 1637.28 200.231L1635.52 200.682Z" fill="#EEE2D2"/>
    <path d="M1632.31 205.925C1632.18 205.37 1632.15 204.794 1632.24 204.229C1632.33 203.665 1632.53 203.124 1632.83 202.637C1633.13 202.15 1633.52 201.726 1633.98 201.39C1634.44 201.054 1634.96 200.813 1635.52 200.679L1637.32 200.247C1638.44 199.986 1639.61 200.177 1640.59 200.777C1641.57 201.378 1642.27 202.34 1642.55 203.455L1643.54 207.583L1642.04 207.962L1639.59 208.556L1637.16 209.133L1634.73 209.71L1633.34 210.053L1632.31 205.925Z" fill="#FA6564"/>
    <path d="M1634.68 209.708L1633.3 210.039L1635.82 220.593L1637.2 220.261L1634.68 209.708Z" fill="#F79663"/>
    <path d="M1637.12 209.134L1639.55 208.539L1642.09 219.084L1640.94 219.372L1639.66 219.679L1637.12 209.134Z" fill="#F79663"/>
    <path d="M1642 207.964L1643.5 207.586L1646.04 218.149L1644.53 218.491L1642 207.964Z" fill="#F79663"/>
    <path d="M1641.99 207.961L1639.56 208.547L1642.09 219.08L1644.53 218.494L1641.99 207.961Z" fill="#FECA7A"/>
    <path d="M1637.17 209.126L1634.74 209.699L1637.22 220.263L1639.65 219.69L1637.17 209.126Z" fill="#FECA7A"/>
    <path d="M1635.82 220.601L1637.23 220.276L1639.66 219.681L1640.94 219.375L1654.33 275.109L1649.23 276.335L1635.82 220.601Z" fill="#FECA7A"/>
    <path d="M1640.94 219.374L1642.09 219.086L1644.53 218.491L1646.04 218.148L1659.45 273.882L1654.33 275.108L1640.94 219.374Z" fill="#FC8B60"/>
    <path d="M1658.29 291.617L1654.92 284.623L1658.13 283.848L1658.29 291.617Z" fill="#1857BD"/>
    <path d="M1649.23 276.334L1654.33 275.109L1659.45 273.883L1658.13 283.851L1654.92 284.626L1649.23 276.334Z" fill="#EFD7B8"/>
    <path d="M1738.76 330.366L1717.77 307.991C1716.98 307.142 1715.64 307.099 1714.8 307.896L1705.49 316.627C1704.64 317.424 1704.6 318.759 1705.4 319.608L1726.38 341.983C1727.17 342.833 1728.51 342.875 1729.36 342.078L1738.66 333.347C1739.51 332.55 1739.55 331.216 1738.76 330.366Z" fill="#F9FBFC"/>
    <path d="M1735.69 325.856L1722.09 311.355L1708.46 324.144L1722.06 338.644L1735.69 325.856Z" fill="#F24C88"/>
    <g style="mix-blend-mode:multiply">
        <g style="mix-blend-mode:multiply">
            <path d="M1710.15 312.258L1705.48 316.638C1705.09 317.033 1704.87 317.568 1704.87 318.125C1704.87 318.682 1705.09 319.217 1705.48 319.612L1709.09 323.56L1708.47 324.136L1722.06 338.557L1722.67 337.98L1726.38 341.927C1726.78 342.32 1727.31 342.541 1727.87 342.541C1728.43 342.541 1728.96 342.32 1729.36 341.927L1734 337.547L1710.15 312.258Z" fill="#F1F2F2"/>
        </g>
    </g>
    <path d="M1444.84 136.979C1444.06 137.383 1443.36 137.936 1442.8 138.608C1442.23 139.28 1441.81 140.057 1441.54 140.894C1441.28 141.732 1441.18 142.613 1441.26 143.488C1441.33 144.363 1441.58 145.214 1441.99 145.992L1481.47 222.239L1548.47 187.504L1512.06 117.206L1509 111.276L1505.92 105.363L1444.84 136.979Z" fill="#878CF0"/>
    <path d="M1444.11 137.414C1442.78 138.335 1441.82 139.711 1441.42 141.287C1441.02 142.863 1441.21 144.53 1441.95 145.976L1481.43 222.223C1482.18 223.663 1483.42 224.782 1484.94 225.37C1486.45 225.957 1488.12 225.972 1489.65 225.413L1444.11 137.414Z" fill="#7579D0"/>
    <path d="M1551.54 193.418L1490.46 225.07C1489.68 225.477 1488.83 225.725 1487.95 225.802C1487.08 225.879 1486.2 225.783 1485.36 225.518C1484.52 225.253 1483.75 224.826 1483.08 224.26C1482.4 223.695 1481.85 223.002 1481.45 222.222C1481.04 221.444 1480.79 220.592 1480.72 219.718C1480.64 218.843 1480.74 217.961 1481 217.124C1481.26 216.287 1481.69 215.51 1482.26 214.838C1482.82 214.166 1483.51 213.613 1484.29 213.209L1545.39 181.539L1551.54 193.418Z" fill="#7579D0"/>
    <path d="M1489.74 223.698C1489.14 224.107 1488.46 224.384 1487.75 224.511C1487.04 224.639 1486.31 224.614 1485.61 224.438C1484.91 224.263 1484.25 223.94 1483.68 223.493C1483.11 223.045 1482.65 222.482 1482.31 221.841C1481.98 221.2 1481.78 220.495 1481.74 219.773C1481.7 219.051 1481.81 218.328 1482.07 217.652C1482.32 216.976 1482.72 216.362 1483.23 215.851C1483.74 215.34 1484.36 214.942 1485.03 214.686L1546.11 183.016L1550.83 192.136L1489.74 223.698Z" fill="#F9F8F7"/>
    <path d="M1499.75 130.981L1463.43 149.805L1468.72 160.016L1505.03 141.192L1499.75 130.981Z" fill="#7579D0"/>
    <path d="M1518.32 166.873L1482 185.684L1482.52 186.676L1518.84 167.865L1518.32 166.873Z" fill="#7579D0"/>
    <path d="M1522.45 174.81L1486.13 193.621L1486.64 194.614L1522.97 175.802L1522.45 174.81Z" fill="#7579D0"/>
    <path d="M1411.92 221.771L1420.62 298.792L1359.95 321.774L1295.7 312.906L1287 235.884L1288.86 234.605L1297.52 311.41L1359.7 319.683L1418.49 297.747L1409.83 220.941L1411.92 221.771Z" fill="#FECA7A"/>
    <path d="M1409.83 220.941L1418.49 297.746L1359.7 319.683L1297.52 311.409L1288.86 234.604L1290.69 233.324L1299.34 309.913L1359.47 317.574L1416.39 296.683L1407.74 220.094L1409.83 220.941Z" fill="#F7AC4B"/>
    <path d="M1407.74 220.095L1416.39 296.684L1359.47 317.575L1299.34 309.914L1290.69 233.325L1292.55 232.045L1301.16 308.418L1359.23 315.484L1414.28 295.638L1405.65 219.266L1407.74 220.095Z" fill="#D6E2EA"/>
    <path d="M1405.65 219.265L1414.28 295.638L1359.23 315.484L1301.16 308.418L1292.55 232.045L1294.4 230.747L1303 306.904L1359 313.375L1412.17 294.574L1403.56 218.418L1405.65 219.265Z" fill="#D6E2EA"/>
    <path d="M1403.56 218.418L1412.17 294.574L1359 313.375L1350.4 237.218L1403.56 218.418Z" fill="#F9F8F7"/>
    <path d="M1350.4 237.217L1359 313.374L1303 306.902L1294.4 230.746L1350.4 237.217Z" fill="#F9F8F7"/>
    <path d="M1306.46 246.635L1306.32 247.871L1344.63 252.102L1344.76 250.866L1306.46 246.635Z" fill="#A5B7C6"/>
    <path d="M1307.49 255.748L1307.35 256.984L1345.66 261.215L1345.8 259.979L1307.49 255.748Z" fill="#A5B7C6"/>
    <path d="M1308.52 264.85L1308.38 266.086L1346.69 270.317L1346.83 269.081L1308.52 264.85Z" fill="#A5B7C6"/>
    <path d="M1309.53 273.947L1309.4 275.184L1347.7 279.414L1347.84 278.178L1309.53 273.947Z" fill="#A5B7C6"/>
    <path d="M1310.56 283.045L1310.43 284.281L1348.73 288.512L1348.87 287.276L1310.56 283.045Z" fill="#A5B7C6"/>
    <path d="M1311.59 292.143L1311.46 293.379L1349.76 297.61L1349.9 296.374L1311.59 292.143Z" fill="#A5B7C6"/>
    <path d="M1395.34 236.626L1358.94 249.293L1359.35 250.468L1395.75 237.801L1395.34 236.626Z" fill="#A5B7C6"/>
    <path d="M1396.39 245.721L1359.98 258.375L1360.39 259.55L1396.8 246.896L1396.39 245.721Z" fill="#A5B7C6"/>
    <path d="M1397.41 254.797L1361.01 267.477L1361.42 268.651L1397.82 255.971L1397.41 254.797Z" fill="#A5B7C6"/>
    <path d="M1398.45 263.902L1362.05 276.582L1362.46 277.757L1398.86 265.077L1398.45 263.902Z" fill="#A5B7C6"/>
    <path d="M1399.48 273.008L1363.08 285.688L1363.49 286.862L1399.88 274.182L1399.48 273.008Z" fill="#A5B7C6"/>
    <path d="M1400.49 282.127L1364.09 294.801L1364.5 295.975L1400.9 283.302L1400.49 282.127Z" fill="#A5B7C6"/>
    <path d="M1698.38 359.539L1702.27 362.459L1696.96 364.766L1693.07 361.846L1698.38 359.539Z" fill="#1857BD"/>
    <path d="M1698.38 359.539L1702.27 362.459L1702.17 363.414L1698.27 360.512L1698.38 359.539Z" fill="#C0BFBF"/>
    <path d="M1698.27 360.512L1702.17 363.414L1696.85 365.721L1692.96 362.819L1698.27 360.512Z" fill="#868585"/>
    <path d="M1695.41 366.316L1699.3 369.236L1696.31 370.534L1692.4 367.614L1695.41 366.316Z" fill="#1857BD"/>
    <path d="M1695.41 366.316L1699.3 369.236L1699.19 370.192L1695.3 367.29L1695.41 366.316Z" fill="#C0BFBF"/>
    <path d="M1695.3 367.289L1699.19 370.191L1696.2 371.489L1692.29 368.587L1695.3 367.289Z" fill="#868585"/>
    <path d="M1694.76 372.082L1698.65 375.002L1695.66 376.3L1691.77 373.38L1694.76 372.082Z" fill="#1857BD"/>
    <path d="M1694.65 373.055L1698.54 375.975L1695.55 377.273L1691.66 374.352L1694.65 373.055Z" fill="#868585"/>
    <path d="M1694.76 372.082L1698.65 375.002L1698.54 375.975L1694.65 373.055L1694.76 372.082Z" fill="#C0BFBF"/>
    <path d="M1694.11 377.871L1698 380.773L1695.01 382.071L1691.1 379.169L1694.11 377.871Z" fill="#1857BD"/>
    <path d="M1694 378.844L1697.9 381.746L1694.9 383.044L1691 380.142L1694 378.844Z" fill="#868585"/>
    <path d="M1694.11 377.871L1698 380.773L1697.9 381.747L1694 378.844L1694.11 377.871Z" fill="#C0BFBF"/>
    <path d="M1695.79 382.629L1699.68 385.531L1694.36 387.838L1690.45 384.936L1695.79 382.629Z" fill="#1857BD"/>
    <path d="M1695.79 382.629L1699.68 385.531L1699.57 386.504L1695.68 383.584L1695.79 382.629Z" fill="#C0BFBF"/>
    <path d="M1695.68 383.582L1699.57 386.502L1694.26 388.809L1690.35 385.889L1695.68 383.582Z" fill="#868585"/>
    <path d="M1692.81 389.406L1696.71 392.308L1693.72 393.606L1689.81 390.704L1692.81 389.406Z" fill="#1857BD"/>
    <path d="M1692.81 389.406L1696.71 392.308L1696.6 393.282L1692.71 390.362L1692.81 389.406Z" fill="#C0BFBF"/>
    <path d="M1692.71 390.359L1696.6 393.279L1693.61 394.577L1689.7 391.657L1692.71 390.359Z" fill="#868585"/>
    <path d="M1692.17 395.172L1696.06 398.074L1693.07 399.372L1689.16 396.47L1692.17 395.172Z" fill="#1857BD"/>
    <path d="M1692.17 395.172L1696.06 398.074L1695.95 399.065L1692.06 396.145L1692.17 395.172Z" fill="#C0BFBF"/>
    <path d="M1692.06 396.148L1695.95 399.068L1692.96 400.366L1689.05 397.446L1692.06 396.148Z" fill="#868585"/>
    <path d="M1691.5 400.941L1695.41 403.861L1692.42 405.159L1688.51 402.239L1691.5 400.941Z" fill="#1857BD"/>
    <path d="M1691.5 400.941L1695.41 403.861L1695.3 404.835L1691.39 401.915L1691.5 400.941Z" fill="#C0BFBF"/>
    <path d="M1691.39 401.914L1695.3 404.834L1692.31 406.132L1688.4 403.212L1691.39 401.914Z" fill="#868585"/>
    <path d="M1693.19 405.719L1697.09 408.621L1691.77 410.928L1687.86 408.026L1693.19 405.719Z" fill="#1857BD"/>
    <path d="M1693.09 406.672L1696.98 409.592L1691.66 411.899L1687.75 408.979L1693.09 406.672Z" fill="#868585"/>
    <path d="M1693.19 405.719L1697.08 408.621L1696.98 409.594L1693.08 406.674L1693.19 405.719Z" fill="#C0BFBF"/>
    <path d="M1690.2 412.496L1694.11 415.398L1691.1 416.696L1687.21 413.794L1690.2 412.496Z" fill="#1857BD"/>
    <path d="M1690.09 413.469L1694 416.371L1690.99 417.669L1687.1 414.767L1690.09 413.469Z" fill="#868585"/>
    <path d="M1690.2 412.496L1694.11 415.398L1694 416.372L1690.09 413.469L1690.2 412.496Z" fill="#C0BFBF"/>
    <path d="M1689.55 418.262L1693.46 421.182L1690.47 422.48L1686.56 419.56L1689.55 418.262Z" fill="#1857BD"/>
    <path d="M1689.45 419.238L1693.36 422.158L1690.35 423.456L1686.45 420.536L1689.45 419.238Z" fill="#868585"/>
    <path d="M1689.55 418.262L1693.46 421.182L1693.36 422.155L1689.45 419.235L1689.55 418.262Z" fill="#C0BFBF"/>
    <path d="M1688.91 424.031L1692.81 426.951L1689.81 428.249L1685.91 425.329L1688.91 424.031Z" fill="#1857BD"/>
    <path d="M1688.9 424.031L1692.81 426.951L1692.71 427.907L1688.8 425.005L1688.9 424.031Z" fill="#C0BFBF"/>
    <path d="M1688.8 425.004L1692.71 427.906L1689.7 429.204L1685.81 426.302L1688.8 425.004Z" fill="#868585"/>
    <path d="M1690.58 428.789L1694.49 431.709L1689.18 434.016L1685.27 431.096L1690.58 428.789Z" fill="#1857BD"/>
    <path d="M1690.58 428.789L1694.49 431.709L1694.38 432.664L1690.47 429.762L1690.58 428.789Z" fill="#C0BFBF"/>
    <path d="M1690.47 429.766L1694.38 432.668L1689.05 434.975L1685.16 432.073L1690.47 429.766Z" fill="#868585"/>
    <path d="M1687.61 435.586L1691.52 438.488L1688.51 439.786L1684.62 436.884L1687.61 435.586Z" fill="#1857BD"/>
    <path d="M1687.5 436.543L1691.41 439.463L1688.4 440.761L1684.51 437.841L1687.5 436.543Z" fill="#868585"/>
    <path d="M1687.61 435.586L1691.52 438.488L1691.41 439.461L1687.5 436.541L1687.61 435.586Z" fill="#C0BFBF"/>
    <path d="M1686.96 441.355L1690.87 444.258L1687.86 445.555L1683.97 442.653L1686.96 441.355Z" fill="#1857BD"/>
    <path d="M1686.85 442.328L1690.76 445.23L1687.75 446.528L1683.86 443.608L1686.85 442.328Z" fill="#868585"/>
    <path d="M1686.96 441.355L1690.87 444.258L1690.76 445.231L1686.85 442.329L1686.96 441.355Z" fill="#C0BFBF"/>
    <path d="M1686.31 447.121L1690.2 450.041L1687.21 451.339L1683.32 448.419L1686.31 447.121Z" fill="#1857BD"/>
    <path d="M1686.31 447.121L1690.2 450.041L1690.09 450.996L1686.2 448.094L1686.31 447.121Z" fill="#C0BFBF"/>
    <path d="M1686.2 448.094L1690.09 450.996L1687.1 452.294L1683.21 449.392L1686.2 448.094Z" fill="#868585"/>
    <path d="M1701.19 380.465L1705.1 383.367L1698.06 446.022L1694.15 443.102L1701.19 380.465Z" fill="#DBA156"/>
    <path d="M1687.99 451.898L1691.9 454.801L1686.56 457.108L1682.67 454.206L1687.99 451.898Z" fill="#1857BD"/>
    <path d="M1687.99 451.898L1691.9 454.801L1691.79 455.774L1687.88 452.854L1687.99 451.898Z" fill="#C0BFBF"/>
    <path d="M1687.88 452.855L1691.79 455.776L1686.45 458.083L1682.56 455.163L1687.88 452.855Z" fill="#868585"/>
    <path d="M1690.53 450.801L1694.42 453.703L1693.54 454.099L1689.63 451.179L1690.53 450.801Z" fill="#1857BD"/>
    <path d="M1689.63 451.176L1693.54 454.096L1692.94 459.269L1689.05 456.349L1689.63 451.176Z" fill="#1857BD"/>
    <path d="M1690.53 450.801L1694.42 453.703L1693.84 458.876L1689.95 455.974L1690.53 450.801Z" fill="#C0BFBF"/>
    <path d="M1695.59 450.98L1699.5 453.883L1698.6 454.279L1694.71 451.359L1695.59 450.98Z" fill="#1857BD"/>
    <path d="M1694.71 451.359L1698.6 454.279L1698.29 456.947L1694.4 454.045L1694.71 451.359Z" fill="#1857BD"/>
    <path d="M1695.59 450.98L1699.5 453.883L1699.19 456.55L1695.3 453.648L1695.59 450.98Z" fill="#C0BFBF"/>
    <path d="M1700.96 448.652L1704.85 451.554L1703.95 451.951L1700.06 449.031L1700.96 448.652Z" fill="#1857BD"/>
    <path d="M1700.06 449.031L1703.95 451.951L1703.66 454.619L1699.75 451.717L1700.06 449.031Z" fill="#1857BD"/>
    <path d="M1700.96 448.652L1704.85 451.554L1704.56 454.24L1700.65 451.32L1700.96 448.652Z" fill="#C0BFBF"/>
    <path d="M1706.31 446.328L1710.2 449.248L1709.3 449.627L1705.41 446.725L1706.31 446.328Z" fill="#1857BD"/>
    <path d="M1705.41 446.727L1709.3 449.629L1709.01 452.296L1705.12 449.394L1705.41 446.727Z" fill="#1857BD"/>
    <path d="M1706.31 446.328L1710.2 449.248L1709.91 451.916L1706 448.996L1706.31 446.328Z" fill="#C0BFBF"/>
    <path d="M1711.95 441.516L1715.84 444.418L1714.94 444.814L1711.05 441.894L1711.95 441.516Z" fill="#1857BD"/>
    <path d="M1711.05 441.895L1714.94 444.815L1714.36 449.988L1710.47 447.068L1711.05 441.895Z" fill="#1857BD"/>
    <path d="M1711.95 441.516L1715.84 444.418L1715.26 449.591L1711.35 446.689L1711.95 441.516Z" fill="#C0BFBF"/>
    <path d="M1717.01 441.695L1720.92 444.597L1720.02 444.994L1716.13 442.074L1717.01 441.695Z" fill="#1857BD"/>
    <path d="M1716.13 442.074L1720.02 444.994L1719.72 447.662L1715.82 444.76L1716.13 442.074Z" fill="#1857BD"/>
    <path d="M1717.01 441.695L1720.92 444.597L1720.62 447.265L1716.72 444.363L1717.01 441.695Z" fill="#C0BFBF"/>
    <path d="M1722.36 439.371L1726.27 442.291L1725.37 442.67L1721.48 439.768L1722.36 439.371Z" fill="#1857BD"/>
    <path d="M1721.48 439.77L1725.37 442.672L1725.07 445.339L1721.17 442.437L1721.48 439.77Z" fill="#1857BD"/>
    <path d="M1722.36 439.371L1726.27 442.291L1725.97 444.959L1722.08 442.039L1722.36 439.371Z" fill="#C0BFBF"/>
    <path d="M1727.72 437.062L1731.61 439.965L1730.72 440.361L1726.81 437.441L1727.72 437.062Z" fill="#1857BD"/>
    <path d="M1726.81 437.441L1730.72 440.361L1730.42 443.029L1726.53 440.109L1726.81 437.441Z" fill="#1857BD"/>
    <path d="M1727.72 437.062L1731.61 439.965L1731.32 442.632L1727.43 439.73L1727.72 437.062Z" fill="#C0BFBF"/>
    <path d="M1733.35 432.234L1737.26 435.154L1736.35 435.533L1732.45 432.631L1733.35 432.234Z" fill="#1857BD"/>
    <path d="M1732.45 432.629L1736.35 435.531L1735.77 440.704L1731.88 437.802L1732.45 432.629Z" fill="#1857BD"/>
    <path d="M1733.35 432.234L1737.26 435.154L1736.67 440.31L1732.78 437.408L1733.35 432.234Z" fill="#C0BFBF"/>
    <path d="M1738.44 432.414L1742.33 435.334L1741.43 435.713L1737.54 432.811L1738.44 432.414Z" fill="#1857BD"/>
    <path d="M1737.54 432.809L1741.43 435.711L1741.14 438.378L1737.23 435.476L1737.54 432.809Z" fill="#1857BD"/>
    <path d="M1738.44 432.414L1742.33 435.334L1742.02 438.002L1738.13 435.082L1738.44 432.414Z" fill="#C0BFBF"/>
    <path d="M1743.79 430.105L1747.68 433.008L1746.78 433.386L1742.89 430.484L1743.79 430.105Z" fill="#1857BD"/>
    <path d="M1742.89 430.484L1746.78 433.386L1746.49 436.072L1742.58 433.152L1742.89 430.484Z" fill="#1857BD"/>
    <path d="M1743.79 430.105L1747.68 433.008L1747.37 435.675L1743.48 432.773L1743.79 430.105Z" fill="#C0BFBF"/>
    <path d="M1749.14 427.781L1753.05 430.683L1752.13 431.08L1748.24 428.16L1749.14 427.781Z" fill="#1857BD"/>
    <path d="M1748.24 428.16L1752.13 431.08L1751.84 433.748L1747.93 430.846L1748.24 428.16Z" fill="#1857BD"/>
    <path d="M1749.14 427.781L1753.05 430.683L1752.74 433.351L1748.85 430.449L1749.14 427.781Z" fill="#C0BFBF"/>
    <path d="M1758.56 426.23L1748.85 430.448L1747.93 430.845L1743.48 432.774L1742.58 433.152L1738.13 435.081L1737.23 435.477L1732.78 437.406L1731.88 437.803L1727.43 439.731L1726.53 440.11L1722.08 442.039L1721.17 442.435L1716.72 444.364L1715.82 444.76L1711.36 446.689L1710.47 447.068L1706 448.996L1705.12 449.393L1700.65 451.322L1699.75 451.718L1695.3 453.647L1694.4 454.043L1689.95 455.972L1689.05 456.351L1682.09 459.361L1685.99 462.281L1692.94 459.271L1693.84 458.874L1698.18 456.999L1699.19 456.549L1703.27 454.8L1704.56 454.242L1709.01 452.295L1709.91 451.916L1714.36 449.988L1715.27 449.591L1719.37 447.807L1720.62 447.266L1725.07 445.337L1725.97 444.959L1730.42 443.03L1730.94 442.796L1731.14 442.723L1731.32 442.633L1735.43 440.849L1736.67 440.308L1740.54 438.65L1742.02 438.001L1746.49 436.072L1747.37 435.676L1751.84 433.747L1752.74 433.35L1762.45 429.151L1758.56 426.23Z" fill="#DBA156"/>
    <path d="M1758.56 426.231L1748.85 430.449L1749.14 427.781L1748.24 428.159L1747.93 430.845L1743.48 432.774L1743.79 430.088L1742.89 430.485L1742.58 433.152L1738.13 435.081L1738.44 432.413L1737.54 432.81L1737.23 435.478L1732.78 437.406L1733.35 432.233L1732.45 432.63L1731.88 437.803L1727.41 439.732L1727.72 437.064L1726.81 437.442L1726.53 440.11L1722.08 442.039L1722.38 439.371L1721.48 439.768L1721.17 442.435L1716.72 444.364L1717.01 441.696L1716.13 442.075L1715.82 444.743L1711.36 446.779L1711.95 441.606L1711.05 442.003L1710.47 447.158L1706 449.087L1706.31 446.419L1705.41 446.815L1705.1 449.483L1700.65 451.412L1700.96 448.744L1700.06 449.123L1699.75 451.808L1695.3 453.737L1695.59 451.069L1694.71 451.448L1694.4 454.116L1689.95 456.062L1690.53 450.889L1689.63 451.268L1689.05 456.441L1682.09 459.397L1682.56 455.197L1687.97 452.89L1688.08 451.935L1682.67 454.242L1683.21 449.429L1686.2 448.131L1686.31 447.158L1683.32 448.456L1683.86 443.643L1686.85 442.345L1687 441.372L1684 442.67L1684.54 437.857L1687.54 436.559L1687.64 435.604L1684.65 436.902L1685.19 432.089L1690.6 429.782V428.754L1685.19 431.061L1685.73 426.267L1688.72 424.969L1688.83 423.996L1685.84 425.293L1686.38 420.499L1689.37 419.201L1689.48 418.228L1686.49 419.525L1687.03 414.731L1690.02 413.433L1690.13 412.459L1687.14 413.757L1687.68 408.945L1693.09 406.637L1693.21 405.682L1687.81 407.989L1688.35 403.177L1691.34 401.879L1691.46 400.923L1688.45 402.221L1689 397.408L1692 396.111L1692.11 395.137L1689.1 396.435L1689.64 391.622L1692.65 390.325L1692.76 389.369L1689.75 390.667L1690.29 385.854L1695.7 383.547L1695.81 382.592L1690.4 384.899L1690.94 380.104L1693.95 378.806L1694.06 377.833L1691.05 379.131L1691.59 374.318L1694.6 373.02L1694.71 372.047L1691.7 373.345L1692.24 368.55L1695.25 367.252L1695.36 366.279L1692.36 367.577L1692.89 362.782L1698.29 360.475L1698.4 359.501L1693.09 361.809L1694.35 350.543L1758.56 426.231ZM1694.2 443.174L1738.24 424.104L1701.25 380.537L1694.2 443.174Z" fill="#FECA7A"/>
    <path d="M1694.33 350.578L1698.22 353.498L1762.45 429.15L1758.56 426.23L1694.33 350.578Z" fill="#DBA156"/>
    <path d="M1582.01 385.493L1626.74 334.824C1627.62 333.835 1628.21 332.629 1628.46 331.333C1628.71 330.036 1628.61 328.695 1628.17 327.451L1615.41 291.293L1475.25 340.79L1488.01 376.967C1488.45 378.214 1489.21 379.32 1490.22 380.173C1491.23 381.025 1492.45 381.592 1493.75 381.815L1560.42 393.153C1564.37 393.818 1568.43 393.463 1572.21 392.123C1575.98 390.782 1579.36 388.5 1582.01 385.493Z" fill="#2E77C3"/>
    <path d="M1442.48 330.246L1444.13 334.897L1559.72 356.797L1558.06 352.147L1442.48 330.246Z" fill="#114E96"/>
    <path d="M1558.06 352.149L1559.72 356.799L1636.58 266.943L1634.92 262.293L1558.06 352.149Z" fill="#114E96"/>
    <path d="M1442.48 330.246L1558.06 352.147L1634.92 262.291L1519.34 240.391L1442.48 330.246Z" fill="#2E77C3"/>
    <path d="M1616.98 349.551L1607.79 334.139C1608.07 333.578 1608.11 332.931 1607.92 332.337C1607.76 331.904 1607.49 331.524 1607.13 331.241C1606.77 330.957 1606.33 330.781 1605.88 330.732L1598.11 308.724L1545.14 297.458C1545.33 296.364 1545.23 295.239 1544.85 294.195C1544.42 292.979 1543.64 291.917 1542.61 291.144C1541.58 290.371 1540.34 289.922 1539.05 289.853C1537.76 289.784 1536.48 290.099 1535.37 290.758C1534.26 291.416 1533.38 292.389 1532.82 293.553C1532.26 294.717 1532.06 296.02 1532.25 297.297C1532.43 298.575 1532.99 299.769 1533.85 300.729C1534.71 301.689 1535.84 302.372 1537.09 302.691C1538.34 303.01 1539.65 302.952 1540.87 302.523C1542.42 302 1543.71 300.903 1544.47 299.459L1596.56 310.544L1603.9 331.417C1603.58 331.743 1603.35 332.152 1603.25 332.597C1603.15 333.043 1603.17 333.508 1603.32 333.941C1603.43 334.249 1603.6 334.532 1603.82 334.771C1604.05 335.01 1604.32 335.2 1604.62 335.329L1607.97 352.813L1616.98 349.551Z" fill="#FF7D6C"/>
    <rect x="1119" y="314.039" width="802" height="8" fill="#A6DFFF"/>
    <path d="M353.673 581.471L346.297 576.048L336.372 568.735L329.006 563.296C331.147 560.401 334.349 558.472 337.909 557.933C341.468 557.394 345.096 558.288 347.997 560.419L350.795 562.493C352.232 563.547 353.447 564.876 354.369 566.401C355.292 567.927 355.905 569.62 356.172 571.383C356.439 573.146 356.356 574.945 355.927 576.676C355.499 578.407 354.732 580.037 353.673 581.471Z" fill="#0083CA"/>
    <path d="M346.282 576.038L340.373 584.074C337.441 581.162 334.097 578.699 330.447 576.761L336.356 568.725L346.282 576.038Z" fill="#0074B3"/>
    <path d="M362.092 595.718L363.308 604.745L364.881 616.976L366.082 625.995C369.652 625.532 372.893 623.67 375.093 620.819C377.293 617.968 378.272 614.361 377.815 610.79L377.362 607.323C376.875 603.759 374.993 600.534 372.129 598.358C369.266 596.182 365.656 595.232 362.092 595.718Z" fill="#0083CA"/>
    <path d="M363.209 604.773L353.316 606.054C353.884 608.037 354.294 610.062 354.541 612.111C354.812 614.157 354.928 616.221 354.888 618.284L364.782 617.003L363.209 604.773Z" fill="#0074B3"/>
    <path d="M357.624 596.031C361.673 606.045 361.782 617.221 357.927 627.314C354.073 637.407 346.542 645.668 336.848 650.435C327.155 655.203 316.017 656.124 305.675 653.013C295.333 649.902 286.554 642.99 281.102 633.666C275.65 624.343 273.929 613.299 276.287 602.756C278.644 592.213 284.905 582.952 293.809 576.835C302.714 570.718 313.602 568.199 324.285 569.784C334.969 571.369 344.654 576.941 351.395 585.379C352.691 586.988 353.862 588.694 354.898 590.482C355.94 592.263 356.851 594.118 357.624 596.031Z" fill="#0083CA"/>
    <path d="M275.604 617.194L267.297 618.392C265.36 618.625 263.401 618.188 261.747 617.153C260.093 616.118 258.844 614.547 258.207 612.703C257.569 610.858 257.583 608.851 258.245 607.015C258.907 605.179 260.177 603.624 261.845 602.61C262.795 602.055 263.842 601.685 264.93 601.519L277.177 599.765C275.449 605.403 274.913 611.338 275.604 617.194Z" fill="#0074B3"/>
    <path d="M344.16 635.289C357.039 620.831 355.766 598.672 341.316 585.796C326.865 572.919 304.711 574.2 291.832 588.658C278.952 603.116 280.226 625.275 294.676 638.151C309.126 651.028 331.281 649.746 344.16 635.289Z" fill="#F9FBFC"/>
    <path d="M344.797 595.451L337.47 599.738L338.216 601.014L345.543 596.727L344.797 595.451Z" fill="#3A4D57"/>
    <path d="M297.792 622.968L290.464 627.254L291.209 628.53L298.537 624.244L297.792 622.968Z" fill="#3A4D57"/>
    <path d="M302.777 584.449L301.501 585.195L305.783 592.523L307.059 591.777L302.777 584.449Z" fill="#3A4D57"/>
    <path d="M330.239 631.465L328.963 632.211L333.245 639.539L334.521 638.793L330.239 631.465Z" fill="#3A4D57"/>
    <path d="M326.666 581.82L325.236 581.445L323.081 589.657L324.51 590.032L326.666 581.82Z" fill="#3A4D57"/>
    <path d="M312.843 634.515L311.414 634.141L309.259 642.352L310.688 642.727L312.843 634.515Z" fill="#3A4D57"/>
    <path d="M295.936 605.524L287.727 603.371L287.352 604.801L295.561 606.953L295.936 605.524Z" fill="#3A4D57"/>
    <path d="M348.615 619.332L340.406 617.18L340.031 618.609L348.24 620.762L348.615 619.332Z" fill="#3A4D57"/>
    <path d="M313.004 625.281L316.733 611.075L335.108 600.329L336.61 602.882L319.297 613.013L315.882 626.027L313.004 625.281Z" fill="#3A4D57"/>
    <path d="M319.732 615.034C319.134 615.381 318.447 615.543 317.757 615.5C317.068 615.457 316.406 615.21 315.857 614.791C315.307 614.372 314.894 613.8 314.67 613.146C314.446 612.492 314.421 611.786 314.597 611.118C314.774 610.45 315.145 609.848 315.663 609.391C316.181 608.933 316.823 608.639 317.508 608.546C318.192 608.453 318.889 608.565 319.511 608.868C320.132 609.171 320.649 609.651 320.997 610.248C321.46 611.051 321.586 612.005 321.349 612.901C321.113 613.797 320.531 614.564 319.732 615.034Z" fill="#3A4D57"/>
    <path d="M389.743 336.941C389.997 336.102 390.083 335.222 389.996 334.35C389.909 333.478 389.651 332.632 389.236 331.861C388.821 331.089 388.258 330.408 387.579 329.855C386.899 329.302 386.118 328.889 385.278 328.639L303.126 303.833L281.29 376.104L357.056 399.034L363.44 400.95L369.814 402.882L389.743 336.941Z" fill="#FA9887"/>
    <path d="M389.928 336.154C390.199 334.55 389.875 332.903 389.017 331.522C388.159 330.142 386.826 329.122 385.269 328.656L303.117 303.85C301.56 303.377 299.884 303.493 298.406 304.173C296.928 304.854 295.75 306.054 295.096 307.544L389.928 336.154Z" fill="#F47D6E"/>
    <path d="M274.907 374.189L294.809 308.295C295.062 307.455 295.478 306.674 296.033 305.996C296.588 305.317 297.271 304.755 298.044 304.34C298.816 303.926 299.663 303.668 300.535 303.581C301.407 303.495 302.287 303.581 303.126 303.835C304.818 304.349 306.237 305.513 307.072 307.072C307.907 308.631 308.091 310.458 307.582 312.152L287.68 378.047L274.907 374.189Z" fill="#F47D6E"/>
    <path d="M296.291 308.755C296.485 308.111 296.804 307.512 297.23 306.991C297.655 306.471 298.179 306.039 298.771 305.721C299.364 305.403 300.013 305.205 300.681 305.137C301.35 305.07 302.026 305.135 302.669 305.329C303.313 305.523 303.912 305.842 304.432 306.267C304.952 306.693 305.384 307.217 305.701 307.809C306.019 308.401 306.217 309.05 306.284 309.719C306.351 310.388 306.286 311.064 306.092 311.707L286.214 377.596L276.414 374.643L296.291 308.755Z" fill="#F9F8F7"/>
    <path d="M355.738 380.52L367.567 341.352L356.562 338.03L344.732 377.199L355.738 380.52Z" fill="#F47D6E"/>
    <path d="M328.928 329.675L327.858 329.352L316.022 368.518L317.091 368.841L328.928 329.675Z" fill="#F47D6E"/>
    <path d="M320.361 327.089L319.292 326.766L307.455 365.932L308.525 366.255L320.361 327.089Z" fill="#F47D6E"/>
    <path d="M376.151 223.297C378.01 227.285 377.593 232.872 375.485 233.82C373.377 234.767 368.916 231.359 367.12 227.408C365.323 223.457 365.678 217.834 367.785 216.886C369.893 215.938 374.354 219.346 376.151 223.297Z" fill="#CD5458"/>
    <path d="M358.265 238.782L322.664 255.005C321.738 255.361 320.744 255.499 319.757 255.409C318.77 255.319 317.817 255.003 316.971 254.487L315.989 253.774C315.21 253.17 314.601 252.374 314.222 251.464C313.792 250.577 313.593 249.595 313.643 248.611L313.765 247.391C313.92 246.416 314.3 245.49 314.875 244.688C315.451 243.885 316.205 243.228 317.079 242.768L352.625 226.534C350.392 227.555 350.178 231.636 351.453 234.474C352.727 237.312 356.005 239.85 358.265 238.782Z" fill="#F24C88"/>
    <path d="M359.401 230.902C360.7 233.733 360.489 237.774 358.238 238.827C355.987 239.879 352.845 237.357 351.499 234.499C350.153 231.641 350.411 227.627 352.671 226.559C354.931 225.491 358.118 228.08 359.401 230.902Z" fill="#FC7EB2"/>
    <path d="M322.663 255.002L358.265 238.779C360.489 237.773 360.718 233.701 359.428 230.854C358.138 228.007 354.922 225.506 352.698 226.511L317.097 242.734C316.223 243.194 315.468 243.851 314.893 244.653C314.318 245.456 313.938 246.381 313.783 247.356L313.661 248.577C313.61 249.561 313.809 250.543 314.24 251.429C314.619 252.339 315.228 253.135 316.006 253.739L316.989 254.452C317.83 254.971 318.778 255.291 319.762 255.386C320.746 255.481 321.738 255.35 322.663 255.002ZM323.055 255.873C321.978 256.291 320.818 256.45 319.668 256.339C318.518 256.229 317.41 255.85 316.433 255.235L315.451 254.522C314.551 253.8 313.833 252.878 313.355 251.828C312.877 250.778 312.652 249.631 312.698 248.478L312.82 247.258C313.004 246.115 313.454 245.031 314.133 244.093C314.812 243.154 315.701 242.388 316.73 241.856L362.495 221.074C362.063 223.779 362.431 226.551 363.555 229.049C364.678 231.546 366.508 233.661 368.818 235.131L323.055 255.873Z" fill="#2E77C3"/>
    <path d="M375.469 233.81C377.541 232.924 377.931 227.239 376.135 223.288C374.338 219.336 369.886 215.913 367.769 216.876C365.653 217.84 365.307 223.447 367.104 227.398C368.9 231.349 373.368 234.782 375.469 233.81ZM377.006 222.896C378.953 227.163 378.683 233.397 375.843 234.712C373.002 236.028 368.137 232.095 366.215 227.821C364.292 223.548 364.538 217.321 367.378 216.005C370.218 214.689 375.083 218.622 377.022 222.905L377.006 222.896Z" fill="#DD6C5E"/>
    <path d="M367.394 216.016C364.572 217.3 364.301 223.534 366.23 227.832C368.16 232.131 373.073 235.945 375.859 234.723L373.091 235.914C372.35 236.14 371.565 236.181 370.804 236.036C370.044 235.891 369.33 235.562 368.725 235.08C366.415 233.609 364.585 231.495 363.462 228.997C362.338 226.5 361.97 223.727 362.402 221.022C362.434 220.248 362.653 219.492 363.041 218.82C363.428 218.149 363.973 217.581 364.628 217.167L367.394 216.016Z" fill="#CD5458"/>
    <path d="M461.353 164.694L412.113 186.052C411.241 186.435 410.555 187.148 410.207 188.035C409.859 188.923 409.876 189.911 410.254 190.786L439.24 257.661C439.62 258.534 440.33 259.221 441.215 259.572C442.1 259.923 443.088 259.909 443.963 259.534L493.211 238.161C494.084 237.777 494.769 237.064 495.117 236.177C495.466 235.29 495.449 234.301 495.07 233.427L466.1 166.561C465.912 166.126 465.639 165.733 465.298 165.404C464.957 165.075 464.555 164.816 464.114 164.643C463.673 164.469 463.202 164.384 462.728 164.393C462.254 164.402 461.787 164.504 461.353 164.694ZM445.218 253.036C444.712 253.257 444.151 253.323 443.608 253.226C443.065 253.129 442.562 252.872 442.164 252.49C441.767 252.107 441.491 251.615 441.373 251.075C441.255 250.536 441.299 249.974 441.5 249.459C441.701 248.945 442.05 248.502 442.503 248.186C442.956 247.869 443.492 247.695 444.044 247.683C444.596 247.672 445.139 247.824 445.604 248.121C446.07 248.418 446.436 248.846 446.658 249.352C446.806 249.688 446.886 250.05 446.894 250.418C446.901 250.785 446.836 251.151 446.702 251.493C446.569 251.835 446.369 252.148 446.114 252.413C445.859 252.677 445.554 252.889 445.218 253.036ZM440.991 243.312C440.484 243.531 439.924 243.594 439.381 243.495C438.837 243.395 438.336 243.137 437.94 242.752C437.543 242.368 437.27 241.874 437.154 241.334C437.038 240.794 437.085 240.232 437.288 239.719C437.492 239.205 437.843 238.763 438.297 238.449C438.752 238.135 439.289 237.963 439.841 237.954C440.393 237.945 440.936 238.1 441.4 238.399C441.864 238.699 442.228 239.129 442.448 239.636C442.594 239.973 442.672 240.335 442.678 240.702C442.683 241.069 442.617 241.434 442.481 241.775C442.346 242.117 442.145 242.428 441.889 242.692C441.634 242.955 441.328 243.166 440.991 243.312ZM436.781 233.596C436.274 233.815 435.713 233.879 435.17 233.779C434.627 233.68 434.125 233.421 433.729 233.037C433.333 232.652 433.059 232.159 432.943 231.619C432.827 231.079 432.874 230.516 433.078 230.003C433.281 229.489 433.632 229.047 434.087 228.733C434.541 228.419 435.078 228.247 435.63 228.238C436.183 228.229 436.725 228.384 437.189 228.684C437.653 228.983 438.018 229.413 438.237 229.92C438.527 230.601 438.536 231.369 438.264 232.057C437.991 232.745 437.458 233.298 436.781 233.596ZM432.579 223.864C432.073 224.088 431.512 224.157 430.967 224.062C430.423 223.966 429.918 223.712 429.519 223.329C429.119 222.947 428.842 222.454 428.722 221.914C428.603 221.374 428.647 220.81 428.848 220.295C429.049 219.779 429.398 219.335 429.852 219.019C430.306 218.702 430.844 218.527 431.397 218.517C431.95 218.506 432.493 218.66 432.959 218.959C433.424 219.258 433.79 219.688 434.011 220.195C434.305 220.872 434.32 221.637 434.051 222.325C433.783 223.012 433.254 223.566 432.579 223.864ZM428.415 214.176C427.912 214.392 427.355 214.455 426.816 214.356C426.277 214.257 425.779 214 425.386 213.618C424.993 213.236 424.721 212.746 424.606 212.21C424.491 211.674 424.537 211.116 424.739 210.606C424.94 210.096 425.289 209.657 425.739 209.345C426.19 209.033 426.723 208.861 427.271 208.851C427.819 208.841 428.358 208.994 428.819 209.29C429.28 209.587 429.644 210.013 429.863 210.516C430.009 210.851 430.087 211.211 430.094 211.577C430.1 211.943 430.034 212.306 429.9 212.646C429.765 212.986 429.565 213.297 429.31 213.559C429.055 213.821 428.751 214.031 428.415 214.176ZM424.205 204.46C423.534 204.713 422.792 204.698 422.133 204.419C421.473 204.141 420.945 203.619 420.659 202.962C420.373 202.305 420.351 201.563 420.596 200.89C420.841 200.217 421.336 199.663 421.978 199.344C422.317 199.176 422.687 199.078 423.065 199.057C423.443 199.036 423.821 199.091 424.177 199.221C424.532 199.351 424.858 199.551 425.134 199.811C425.41 200.07 425.63 200.383 425.781 200.73C425.932 201.077 426.011 201.451 426.013 201.83C426.015 202.209 425.94 202.584 425.793 202.933C425.645 203.282 425.428 203.597 425.155 203.859C424.882 204.122 424.559 204.326 424.205 204.46ZM419.994 194.744C419.487 194.963 418.926 195.027 418.383 194.927C417.84 194.828 417.339 194.569 416.942 194.185C416.546 193.8 416.273 193.307 416.157 192.767C416.041 192.227 416.087 191.665 416.291 191.151C416.494 190.637 416.846 190.196 417.3 189.881C417.754 189.567 418.292 189.395 418.844 189.386C419.396 189.377 419.938 189.532 420.402 189.832C420.866 190.131 421.231 190.561 421.45 191.068C421.725 191.753 421.72 192.518 421.436 193.199C421.152 193.88 420.612 194.422 419.932 194.708L419.994 194.744Z" fill="#F9FBFC"/>
    <path d="M459.493 173.035L426.409 187.387L427.29 189.42L460.374 175.068L459.493 173.035Z" fill="#A5B7C6"/>
    <path d="M463.6 182.48L430.516 196.832L431.397 198.866L464.482 184.514L463.6 182.48Z" fill="#A5B7C6"/>
    <path d="M467.676 191.921L434.591 206.273L435.473 208.307L468.557 193.955L467.676 191.921Z" fill="#A5B7C6"/>
    <path d="M471.776 201.343L438.692 215.695L439.573 217.729L472.658 203.377L471.776 201.343Z" fill="#A5B7C6"/>
    <path d="M475.867 210.793L442.783 225.145L443.664 227.178L476.748 212.826L475.867 210.793Z" fill="#A5B7C6"/>
    <path d="M479.959 220.23L446.875 234.582L447.756 236.616L480.84 222.264L479.959 220.23Z" fill="#A5B7C6"/>
    <path d="M484.034 229.671L450.95 244.023L451.831 246.057L484.915 231.705L484.034 229.671Z" fill="#A5B7C6"/>
    <path d="M211.772 180.157C211.225 179.995 210.651 179.943 210.083 180.003C209.515 180.063 208.965 180.234 208.463 180.507C207.961 180.78 207.518 181.149 207.16 181.594C206.801 182.038 206.533 182.549 206.372 183.096L205.166 187.167L202.078 197.56L185.758 252.493L186.543 262.521L185.964 270.262L189.699 263.469L195.831 255.478L212.089 200.509L215.17 190.091L216.447 186.041C216.768 184.939 216.641 183.754 216.094 182.745C215.548 181.736 214.625 180.983 213.526 180.65L211.772 180.157Z" fill="#EEE2D2"/>
    <path d="M206.372 183.096C206.533 182.549 206.801 182.038 207.16 181.594C207.519 181.149 207.962 180.78 208.463 180.507C208.965 180.234 209.515 180.063 210.083 180.003C210.651 179.943 211.225 179.995 211.772 180.157L213.549 180.684C214.647 181.017 215.57 181.769 216.117 182.779C216.664 183.788 216.79 184.972 216.47 186.075L215.264 190.145L213.78 189.725L211.36 189.015L208.965 188.298L206.57 187.582L205.198 187.185L206.372 183.096Z" fill="#FA6564"/>
    <path d="M206.532 187.558L205.168 187.152L202.076 197.553L203.441 197.959L206.532 187.558Z" fill="#F79663"/>
    <path d="M208.934 188.281L211.338 188.982L208.265 199.384L207.123 199.057L205.862 198.683L208.934 188.281Z" fill="#F79663"/>
    <path d="M213.748 189.707L215.233 190.127L212.152 200.545L210.67 200.084L213.748 189.707Z" fill="#F79663"/>
    <path d="M213.742 189.699L211.34 188.988L208.266 199.376L210.667 200.086L213.742 189.699Z" fill="#FECA7A"/>
    <path d="M208.983 188.297L206.585 187.574L203.452 197.963L205.85 198.686L208.983 188.297Z" fill="#FECA7A"/>
    <path d="M202.079 197.561L203.458 197.983L205.862 198.684L207.123 199.059L190.85 254.019L185.821 252.531L202.079 197.561Z" fill="#FECA7A"/>
    <path d="M207.123 199.058L208.265 199.384L210.669 200.085L212.151 200.546L195.894 255.515L190.849 254.018L207.123 199.058Z" fill="#FC8B60"/>
    <path d="M186.027 270.299L186.606 262.558L189.771 263.49L186.027 270.299Z" fill="#1857BD"/>
    <path d="M185.821 252.529L190.849 254.017L195.894 255.514L189.771 263.489L186.606 262.557L185.821 252.529Z" fill="#EFD7B8"/>
    <path d="M236.335 344.089L229.353 314.221C229.088 313.087 227.954 312.383 226.82 312.649L214.397 315.558C213.263 315.824 212.559 316.958 212.824 318.092L219.807 347.96C220.072 349.094 221.206 349.798 222.339 349.532L234.762 346.623C235.896 346.357 236.6 345.223 236.335 344.089Z" fill="#F9FBFC"/>
    <path d="M235.934 338.649L231.408 319.293L213.213 323.555L217.738 342.911L235.934 338.649Z" fill="#F24C88"/>
    <g style="mix-blend-mode:multiply">
        <g style="mix-blend-mode:multiply">
            <path d="M220.615 314.101L214.384 315.561C213.846 315.707 213.388 316.059 213.109 316.542C212.83 317.025 212.754 317.598 212.897 318.137L214.044 323.357L213.225 323.55L217.78 342.831L218.599 342.638L219.84 347.912C219.985 348.45 220.338 348.908 220.82 349.187C221.303 349.466 221.876 349.542 222.414 349.399L228.63 347.93L220.615 314.101Z" fill="#F1F2F2"/>
        </g>
    </g>
    <path d="M674.5 333.21L563.982 327.668L562.962 347.883L673.48 353.424L674.5 333.21Z" fill="#B1CCE7"/>
    <path d="M672.616 335.195L565.662 329.832L565.123 340.506L672.077 345.869L672.616 335.195Z" fill="#91B7DC"/>
    <path d="M593.233 317.889C595.711 312.839 599.597 308.612 604.421 305.72C609.348 302.737 615.056 301.298 620.807 301.589C624.608 301.769 628.335 302.7 631.774 304.328C635.213 305.957 638.295 308.249 640.843 311.075C643.391 313.901 645.355 317.203 646.621 320.792C647.887 324.38 648.43 328.184 648.218 331.985L670.562 333.104C670.919 326.358 669.939 319.608 667.68 313.242C665.42 306.876 661.925 301.02 657.396 296.011C652.866 291.001 647.391 286.936 641.285 284.05C635.179 281.164 628.563 279.514 621.816 279.193C608.23 278.51 594.926 283.253 584.832 292.378C574.737 301.503 568.678 314.263 567.987 327.852L590.31 329.043C590.524 325.166 591.518 321.373 593.233 317.889Z" fill="#B1CCE7"/>
    <path d="M655.709 317.243C653.097 310.072 648.431 303.832 642.293 299.299C636.155 294.767 628.818 292.145 621.197 291.759C610.932 291.239 600.879 294.815 593.245 301.7C585.611 308.586 581.019 318.219 580.478 328.485L590.346 328.979C590.557 325.126 591.539 321.354 593.233 317.887C595.711 312.837 599.596 308.611 604.42 305.718C609.348 302.735 615.056 301.297 620.807 301.588C628.476 301.981 635.674 305.405 640.818 311.107C645.961 316.808 648.629 324.321 648.234 331.992L658.102 332.486C658.343 327.295 657.529 322.109 655.709 317.243Z" fill="#91B7DC"/>
    <path d="M669.119 332.938L664.868 332.732L664.891 332.225L669.144 332.391L669.119 332.938Z" fill="#91B7DC"/>
    <path d="M664.721 326.067L664.62 325.052L668.84 324.554L668.967 325.668L664.721 326.067ZM574.487 321.53L570.306 320.699C570.377 320.323 570.455 319.973 570.542 319.606L574.693 320.525L574.487 321.53ZM663.537 319.036L663.274 318.051L667.356 316.891L667.661 317.983L663.537 319.036ZM576.405 314.604L572.4 313.145C572.589 312.817 572.66 312.442 572.803 312.087L576.769 313.648L576.405 314.604ZM661.177 312.241L660.741 311.303L664.643 309.517L665.099 310.53L661.177 312.241ZM579.361 308.151L575.678 306.025C575.858 305.713 576.048 305.385 576.237 305.057L579.935 307.192L579.361 308.151ZM657.753 305.956L657.183 305.106L660.732 302.743L661.338 303.675L657.753 305.956ZM583.372 302.141L580.042 299.511L580.741 298.625L584.017 301.348L583.372 302.141ZM653.413 300.14L652.732 299.373L655.852 296.491L656.602 297.319L653.413 300.14ZM588.257 296.886L585.362 293.758C585.635 293.499 585.909 293.241 586.199 292.992L589.009 296.197C588.753 296.423 588.497 296.65 588.257 296.886ZM648.326 295.185L647.533 294.54L650.226 291.245L651.097 291.935L648.326 295.185ZM593.886 292.435L591.479 288.964C591.79 288.748 592.093 288.548 592.42 288.342L594.706 291.951C594.457 292.057 594.164 292.242 593.886 292.435ZM642.509 291.098L641.62 290.584L643.747 286.9L644.714 287.459L642.509 291.098ZM600.135 288.925L598.35 285.063C598.69 284.906 599.031 284.749 599.378 284.616L601.081 288.513L600.135 288.925ZM636.062 287.959L635.132 287.588L636.583 283.597L637.641 283.999L636.062 287.959ZM606.818 286.539L605.653 282.432L606.745 282.126L607.812 286.259L606.818 286.539ZM629.129 285.912L628.125 285.707L628.958 281.526L630.058 281.745L629.129 285.912ZM613.845 285.143L613.357 280.907L614.462 280.795L614.905 284.964L613.845 285.143ZM622.029 284.914L621.506 284.883L621.014 284.869L621.166 280.607L621.713 280.632L622.301 280.659L622.029 284.914Z" fill="#91B7DC"/>
    <path d="M565.493 343.828L564.953 343.801L564.791 346.987L565.331 347.014L565.493 343.828Z" fill="#91B7DC"/>
    <path d="M665.972 352.079L664.927 352.017L665.087 348.82L666.132 348.883L665.972 352.079ZM659.687 351.759L658.632 351.712L658.776 348.507L659.831 348.554L659.687 351.759ZM653.401 351.44L652.346 351.393L652.461 348.275L653.507 348.337L653.401 351.44ZM647.106 351.136L646.06 351.073L646.22 347.877L647.266 347.939L647.106 351.136ZM640.804 350.807L639.765 350.769L639.925 347.573L640.98 347.62L640.804 350.807ZM634.555 350.425L633.5 350.378L633.676 347.19L634.706 347.244L634.555 350.425ZM628.26 350.12L627.214 350.058L627.39 346.871L628.42 346.924L628.26 350.12ZM621.974 349.801L620.919 349.754L621.079 346.558L622.134 346.605L621.974 349.801ZM615.688 349.481L614.634 349.434L614.794 346.238L615.839 346.3L615.688 349.481ZM609.393 349.177L608.348 349.114L608.508 345.918L609.554 345.981L609.393 349.177ZM603.081 348.904L602.026 348.857L602.161 345.667L603.216 345.714L603.081 348.904ZM596.795 348.584L595.74 348.537L595.9 345.341L596.946 345.404L596.795 348.584ZM590.5 348.28L589.454 348.217L589.614 345.021L590.66 345.084L590.5 348.28ZM584.189 347.967L583.15 347.929L583.31 344.733L584.365 344.78L584.189 347.967ZM577.904 347.647L576.849 347.6L577.025 344.413L578.07 344.476L577.904 347.647ZM571.591 347.374L570.545 347.312L570.721 344.125L571.751 344.178L571.591 347.374Z" fill="#91B7DC"/>
    <path d="M671.908 349.191L671.368 349.164L671.207 352.35L671.747 352.377L671.908 349.191Z" fill="#91B7DC"/>
    <path d="M78.4865 29.6476C77.6095 29.607 76.7331 29.7401 75.9075 30.0392C75.0819 30.3382 74.3235 30.7974 73.6757 31.3904C73.028 31.9833 72.5036 32.6984 72.1328 33.4944C71.7619 34.2905 71.5519 35.152 71.5148 36.0293L67.5796 121.799L142.978 125.222L146.591 46.1354L146.904 39.4681L147.192 32.8074L78.4865 29.6476Z" fill="#878CF0"/>
    <path d="M77.646 29.664C76.0262 29.7918 74.5082 30.5052 73.3757 31.6709C72.2433 32.8366 71.5738 34.3747 71.4925 35.9978L67.5574 121.768C67.4838 123.389 68.0038 124.981 69.02 126.246C70.0362 127.511 71.4788 128.362 73.0776 128.639L77.646 29.664Z" fill="#7579D0"/>
    <path d="M142.674 131.875L73.9511 128.746C73.074 128.709 72.2128 128.5 71.417 128.129C70.6212 127.758 69.9065 127.234 69.3139 126.586C68.7213 125.939 68.2625 125.18 67.9638 124.355C67.665 123.529 67.5323 122.653 67.5732 121.775C67.6103 120.898 67.8203 120.037 68.1912 119.241C68.562 118.444 69.0864 117.729 69.7341 117.136C70.3819 116.543 71.1404 116.084 71.9659 115.785C72.7915 115.486 73.6679 115.353 74.5449 115.394L143.293 118.516L142.674 131.875Z" fill="#7579D0"/>
    <path d="M74.0119 127.199C73.2909 127.254 72.5665 127.156 71.8864 126.91C71.2063 126.665 70.586 126.278 70.0663 125.776C69.5466 125.273 69.1394 124.666 68.8714 123.994C68.6035 123.322 68.4809 122.602 68.5118 121.879C68.5426 121.156 68.7262 120.448 69.0504 119.802C69.3747 119.155 69.8322 118.585 70.3929 118.128C70.9535 117.671 71.6046 117.338 72.3031 117.151C73.0017 116.964 73.7319 116.927 74.4456 117.043L143.178 120.156L142.706 130.415L74.0119 127.199Z" fill="#F9F8F7"/>
    <path d="M129.04 51.9105L88.1782 50.0547L87.6527 61.5417L128.515 63.3976L129.04 51.9105Z" fill="#7579D0"/>
    <path d="M127.184 92.2803L86.3228 90.4102L86.2713 91.5264L127.133 93.3965L127.184 92.2803Z" fill="#7579D0"/>
    <path d="M126.79 101.218L85.929 99.3477L85.8775 100.464L126.739 102.334L126.79 101.218Z" fill="#7579D0"/>
    <path d="M7.58289 86.6222L-23.3912 157.676L-87.4206 147.246L-138.63 107.44L-107.656 36.3862L-105.409 36.2058L-136.306 107.054L-86.5936 145.309L-24.7098 155.708L6.18741 84.8591L7.58289 86.6222Z" fill="#FECA7A"/>
    <path d="M6.18761 84.8562L-24.7096 155.705L-86.5934 145.307L-136.306 107.052L-105.408 36.203L-103.177 36.0136L-133.982 106.666L-85.7418 143.363L-26.0035 153.73L4.80116 83.0775L6.18761 84.8562Z" fill="#F7AC4B"/>
    <path d="M4.80108 83.0798L-26.0036 153.732L-85.7419 143.365L-133.982 106.668L-103.177 36.0159L-100.93 35.8354L-131.658 106.282L-84.8992 141.437L-27.3065 151.773L3.40561 81.3167L4.80108 83.0798Z" fill="#D6E2EA"/>
    <path d="M3.40558 81.3178L-27.3065 151.774L-84.8993 141.438L-131.658 106.283L-100.93 35.8365L-98.6739 35.6405L-129.309 105.891L-84.0476 139.495L-28.6004 149.799L2.01913 79.5391L3.40558 81.3178Z" fill="#D6E2EA"/>
    <path d="M2.01904 79.5372L-28.6005 149.797L-84.0477 139.493L-53.4126 69.2424L2.01904 79.5372Z" fill="#F9F8F7"/>
    <path d="M468.614 500.513L468.529 502.462L460.894 497.596L460.995 495.656L468.614 500.513Z" fill="#863636"/>
    <path d="M467.756 500.955L467.671 502.904L460.051 498.047L460.136 496.098L467.756 500.955Z" fill="#131111"/>
    <path d="M468.614 500.515L468.529 502.464L467.671 502.905L467.756 500.956L468.614 500.515Z" fill="#1B1819"/>
    <path d="M468.614 500.513L467.756 500.954L460.136 496.097L460.994 495.656L468.614 500.513Z" fill="#1E1B1C"/>
    <path d="M463.175 503.013L463.075 504.953L455.758 500.292L455.859 498.352L463.175 503.013Z" fill="#863636"/>
    <path d="M462.308 503.47L462.208 505.41L454.892 500.749L454.992 498.809L462.308 503.47Z" fill="#131111"/>
    <path d="M463.175 503.016L462.308 503.473L454.992 498.812L455.859 498.355L463.175 503.016Z" fill="#1E1B1C"/>
    <path d="M463.175 503.015L463.075 504.955L462.207 505.412L462.308 503.472L463.175 503.015Z" fill="#1B1819"/>
    <path d="M458.024 505.7L457.939 507.649L450.623 502.988L450.708 501.039L458.024 505.7Z" fill="#863636"/>
    <path d="M458.025 505.704L457.157 506.16L449.841 501.499L450.708 501.043L458.025 505.704Z" fill="#1E1B1C"/>
    <path d="M458.024 505.703L457.939 507.652L457.072 508.109L457.157 506.159L458.024 505.703Z" fill="#1B1819"/>
    <path d="M457.158 506.157L457.073 508.106L449.756 503.445L449.841 501.496L457.158 506.157Z" fill="#131111"/>
    <path d="M452.865 508.403L452.78 510.352L445.463 505.691L445.548 503.742L452.865 508.403Z" fill="#863636"/>
    <path d="M452.865 508.405L452.78 510.354L451.922 510.795L452.022 508.855L452.865 508.405Z" fill="#1B1819"/>
    <path d="M452.022 508.856L451.922 510.796L444.605 506.135L444.706 504.195L452.022 508.856Z" fill="#131111"/>
    <path d="M452.864 508.406L452.022 508.856L444.706 504.195L445.564 503.753L452.864 508.406Z" fill="#1E1B1C"/>
    <path d="M448.032 511.298L447.947 513.247L440.328 508.39L440.413 506.441L448.032 511.298Z" fill="#863636"/>
    <path d="M447.165 511.755L447.089 513.689L439.47 508.832L439.555 506.883L447.165 511.755Z" fill="#131111"/>
    <path d="M448.033 511.296L447.948 513.245L447.089 513.687L447.165 511.753L448.033 511.296Z" fill="#1B1819"/>
    <path d="M448.032 511.298L447.165 511.755L439.555 506.882L440.413 506.441L448.032 511.298Z" fill="#1E1B1C"/>
    <path d="M442.594 513.798L442.494 515.738L435.177 511.077L435.278 509.137L442.594 513.798Z" fill="#863636"/>
    <path d="M442.594 513.797L441.727 514.254L434.411 509.593L435.278 509.136L442.594 513.797Z" fill="#1E1B1C"/>
    <path d="M441.727 514.255L441.626 516.195L434.31 511.534L434.411 509.594L441.727 514.255Z" fill="#131111"/>
    <path d="M442.594 513.796L442.494 515.736L441.626 516.193L441.727 514.253L442.594 513.796Z" fill="#1B1819"/>
    <path d="M437.434 516.501L437.358 518.434L430.042 513.773L430.127 511.824L437.434 516.501Z" fill="#863636"/>
    <path d="M437.434 516.5L437.358 518.433L436.491 518.89L436.576 516.941L437.434 516.5Z" fill="#1B1819"/>
    <path d="M437.434 516.5L436.576 516.942L429.26 512.281L430.127 511.824L437.434 516.5Z" fill="#1E1B1C"/>
    <path d="M436.576 516.942L436.491 518.891L429.175 514.23L429.26 512.281L436.576 516.942Z" fill="#131111"/>
    <path d="M432.299 519.196L432.198 521.136L424.891 516.46L424.992 514.52L432.299 519.196Z" fill="#863636"/>
    <path d="M432.299 519.196L431.441 519.637L424.124 514.976L424.992 514.519L432.299 519.196Z" fill="#1E1B1C"/>
    <path d="M431.441 519.638L431.34 521.578L424.024 516.917L424.125 514.977L431.441 519.638Z" fill="#131111"/>
    <path d="M432.299 519.199L432.198 521.139L431.34 521.58L431.441 519.64L432.299 519.199Z" fill="#1B1819"/>
    <path d="M427.451 522.08L427.366 524.029L419.747 519.172L419.832 517.223L427.451 522.08Z" fill="#863636"/>
    <path d="M427.451 522.079L426.584 522.536L418.965 517.679L419.832 517.222L427.451 522.079Z" fill="#1E1B1C"/>
    <path d="M427.451 522.082L427.366 524.031L426.499 524.487L426.584 522.538L427.451 522.082Z" fill="#1B1819"/>
    <path d="M426.584 522.537L426.499 524.486L418.879 519.629L418.964 517.68L426.584 522.537Z" fill="#131111"/>
    <path d="M422.012 524.583L421.912 526.523L414.596 521.862L414.696 519.922L422.012 524.583Z" fill="#863636"/>
    <path d="M421.145 525.04L421.045 526.98L413.729 522.319L413.829 520.379L421.145 525.04Z" fill="#131111"/>
    <path d="M422.012 524.583L421.145 525.039L413.829 520.378L414.696 519.921L422.012 524.583Z" fill="#1E1B1C"/>
    <path d="M422.013 524.582L421.912 526.522L421.045 526.978L421.145 525.038L422.013 524.582Z" fill="#1B1819"/>
    <path d="M416.853 527.286L416.777 529.219L409.46 524.558L409.545 522.609L416.853 527.286Z" fill="#863636"/>
    <path d="M416.852 527.286L415.994 527.727L408.678 523.066L409.545 522.609L416.852 527.286Z" fill="#1E1B1C"/>
    <path d="M415.994 527.728L415.909 529.677L408.593 525.015L408.678 523.066L415.994 527.728Z" fill="#131111"/>
    <path d="M416.853 527.285L416.777 529.218L415.91 529.675L415.995 527.726L416.853 527.285Z" fill="#1B1819"/>
    <path d="M411.717 529.981L411.617 531.921L404.3 527.26L404.401 525.32L411.717 529.981Z" fill="#863636"/>
    <path d="M411.717 529.98L411.617 531.92L410.774 532.37L410.859 530.421L411.717 529.98Z" fill="#1B1819"/>
    <path d="M410.859 530.423L410.774 532.372L403.442 527.702L403.543 525.762L410.859 530.423Z" fill="#131111"/>
    <path d="M411.717 529.981L410.859 530.422L403.543 525.761L404.401 525.32L411.717 529.981Z" fill="#1E1B1C"/>
    <path d="M406.869 532.865L406.784 534.814L399.165 529.957L399.25 528.008L406.869 532.865Z" fill="#863636"/>
    <path d="M406.87 532.863L406.027 533.313L398.408 528.456L399.25 528.006L406.87 532.863Z" fill="#1E1B1C"/>
    <path d="M406.87 532.866L406.785 534.815L405.926 535.256L406.027 533.316L406.87 532.866Z" fill="#1B1819"/>
    <path d="M406.027 533.314L405.926 535.254L398.307 530.397L398.408 528.457L406.027 533.314Z" fill="#131111"/>
    <path d="M401.422 535.38L401.321 537.32L394.014 532.643L394.115 530.703L401.422 535.38Z" fill="#863636"/>
    <path d="M401.422 535.379L400.564 535.821L393.248 531.159L394.115 530.703L401.422 535.379Z" fill="#1E1B1C"/>
    <path d="M401.422 535.378L401.322 537.318L400.479 537.769L400.564 535.82L401.422 535.378Z" fill="#1B1819"/>
    <path d="M400.564 535.821L400.479 537.77L393.147 533.1L393.248 531.16L400.564 535.821Z" fill="#131111"/>
    <path d="M396.271 538.067L396.186 540.016L388.87 535.355L388.955 533.406L396.271 538.067Z" fill="#863636"/>
    <path d="M395.413 538.509L395.328 540.458L388.012 535.797L388.097 533.848L395.413 538.509Z" fill="#131111"/>
    <path d="M396.271 538.066L396.186 540.015L395.328 540.456L395.413 538.507L396.271 538.066Z" fill="#1B1819"/>
    <path d="M396.271 538.067L395.413 538.508L388.097 533.847L388.955 533.406L396.271 538.067Z" fill="#1E1B1C"/>
    <path d="M391.136 540.763L391.035 542.703L383.719 538.042L383.82 536.102L391.136 540.763Z" fill="#863636"/>
    <path d="M391.136 540.765L391.035 542.705L390.193 543.155L390.269 541.222L391.136 540.765Z" fill="#1B1819"/>
    <path d="M391.136 540.762L390.269 541.219L382.962 536.542L383.82 536.101L391.136 540.762Z" fill="#1E1B1C"/>
    <path d="M390.269 541.22L390.193 543.153L382.876 538.492L382.961 536.543L390.269 541.22Z" fill="#131111"/>
    <path d="M386.304 543.658L386.203 545.598L378.584 540.741L378.685 538.801L386.304 543.658Z" fill="#863636"/>
    <path d="M386.304 543.657L385.437 544.114L377.817 539.257L378.684 538.8L386.304 543.657Z" fill="#1E1B1C"/>
    <path d="M386.304 543.656L386.203 545.596L385.336 546.053L385.436 544.113L386.304 543.656Z" fill="#1B1819"/>
    <path d="M385.437 544.115L385.336 546.055L377.726 541.182L377.817 539.258L385.437 544.115Z" fill="#131111"/>
    <path d="M479.034 503.908L478.949 505.857L390.17 552.384L390.256 550.435L479.034 503.908Z" fill="#CCC2AA"/>
    <path d="M463.795 494.193L479.034 503.907L390.255 550.434L375.017 540.72L377.817 539.256L385.437 544.113L386.304 543.656L378.684 538.8L382.962 536.544L390.269 541.221L391.136 540.764L383.82 536.103L388.097 533.848L395.413 538.509L396.271 538.068L388.955 533.407L393.248 531.16L400.564 535.821L401.422 535.38L394.115 530.704L398.408 528.457L406.027 533.314L406.87 532.864L399.25 528.007L403.543 525.761L410.859 530.422L411.717 529.981L404.401 525.32L408.678 523.064L415.995 527.726L416.853 527.284L409.545 522.608L413.829 520.377L421.145 525.038L422.013 524.581L414.696 519.92L418.965 517.68L426.584 522.537L427.451 522.081L419.832 517.224L424.124 514.977L431.441 519.639L432.299 519.197L424.992 514.521L429.26 512.281L436.576 516.942L437.434 516.501L430.127 511.824L434.411 509.594L441.727 514.255L442.594 513.798L435.278 509.137L439.555 506.881L447.165 511.754L448.032 511.297L440.413 506.44L444.706 504.194L452.022 508.855L452.865 508.405L445.548 503.744L449.841 501.498L457.157 506.159L458.024 505.702L450.708 501.041L454.992 498.81L462.308 503.471L463.175 503.014L455.859 498.353L460.136 496.098L467.756 500.955L468.614 500.514L460.994 495.657L463.795 494.193Z" fill="#F9F8F7"/>
    <path d="M390.255 550.433L390.17 552.382L374.916 542.659L375.017 540.719L390.255 550.433Z" fill="#C1B69F"/>
    <path d="M186.786 349.165L188.696 353.64L182.94 352.981L181.029 348.506L186.786 349.165Z" fill="#1857BD"/>
    <path d="M186.786 349.163L188.696 353.638L188.125 354.412L186.206 349.952L186.786 349.163Z" fill="#C0BFBF"/>
    <path d="M186.206 349.955L188.125 354.414L182.369 353.754L180.449 349.295L186.206 349.955Z" fill="#868585"/>
    <path d="M180.823 353.547L182.733 358.022L179.494 357.651L177.568 353.167L180.823 353.547Z" fill="#1857BD"/>
    <path d="M180.823 353.546L182.733 358.021L182.162 358.794L180.243 354.335L180.823 353.546Z" fill="#C0BFBF"/>
    <path d="M180.242 354.337L182.162 358.796L178.923 358.424L176.988 353.956L180.242 354.337Z" fill="#868585"/>
    <path d="M177.377 358.218L179.287 362.693L176.048 362.321L174.138 357.847L177.377 358.218Z" fill="#1857BD"/>
    <path d="M176.797 359.007L178.707 363.482L175.468 363.11L173.557 358.636L176.797 359.007Z" fill="#868585"/>
    <path d="M177.377 358.218L179.287 362.693L178.707 363.482L176.797 359.007L177.377 358.218Z" fill="#C0BFBF"/>
    <path d="M173.922 362.903L175.842 367.362L172.603 366.991L170.668 362.522L173.922 362.903Z" fill="#1857BD"/>
    <path d="M173.342 363.692L175.261 368.151L172.022 367.78L170.087 363.311L173.342 363.692Z" fill="#868585"/>
    <path d="M173.922 362.906L175.842 367.365L175.261 368.154L173.342 363.695L173.922 362.906Z" fill="#C0BFBF"/>
    <path d="M172.994 367.862L174.913 372.321L169.157 371.662L167.222 367.193L172.994 367.862Z" fill="#1857BD"/>
    <path d="M172.994 367.863L174.913 372.322L174.333 373.111L172.423 368.636L172.994 367.863Z" fill="#C0BFBF"/>
    <path d="M172.423 368.635L174.333 373.11L168.576 372.451L166.65 367.967L172.423 368.635Z" fill="#868585"/>
    <path d="M167.031 372.247L168.95 376.706L165.711 376.334L163.776 371.866L167.031 372.247Z" fill="#1857BD"/>
    <path d="M167.031 372.245L168.95 376.705L168.37 377.494L166.459 373.019L167.031 372.245Z" fill="#C0BFBF"/>
    <path d="M166.459 373.02L168.37 377.495L165.131 377.123L163.205 372.64L166.459 373.02Z" fill="#868585"/>
    <path d="M163.585 376.919L165.504 381.378L162.265 381.006L160.33 376.538L163.585 376.919Z" fill="#1857BD"/>
    <path d="M163.585 376.917L165.504 381.376L164.915 382.181L163.005 377.706L163.585 376.917Z" fill="#C0BFBF"/>
    <path d="M163.005 377.708L164.915 382.182L161.676 381.811L159.75 377.327L163.005 377.708Z" fill="#868585"/>
    <path d="M160.123 381.578L162.049 386.061L158.81 385.69L156.884 381.206L160.123 381.578Z" fill="#1857BD"/>
    <path d="M160.123 381.577L162.049 386.061L161.469 386.85L159.543 382.366L160.123 381.577Z" fill="#C0BFBF"/>
    <path d="M159.543 382.367L161.469 386.85L158.23 386.479L156.304 381.995L159.543 382.367Z" fill="#868585"/>
    <path d="M159.202 386.561L161.121 391.02L155.365 390.361L153.43 385.893L159.202 386.561Z" fill="#1857BD"/>
    <path d="M158.63 387.335L160.541 391.809L154.784 391.15L152.858 386.666L158.63 387.335Z" fill="#868585"/>
    <path d="M159.202 386.562L161.121 391.021L160.541 391.81L158.631 387.335L159.202 386.562Z" fill="#C0BFBF"/>
    <path d="M153.223 390.937L155.158 395.405L151.903 395.025L149.984 390.565L153.223 390.937Z" fill="#1857BD"/>
    <path d="M152.643 391.726L154.578 396.194L151.323 395.814L149.404 391.354L152.643 391.726Z" fill="#868585"/>
    <path d="M153.223 390.937L155.158 395.405L154.577 396.194L152.642 391.726L153.223 390.937Z" fill="#C0BFBF"/>
    <path d="M149.777 395.609L151.703 400.093L148.464 399.721L146.538 395.237L149.777 395.609Z" fill="#1857BD"/>
    <path d="M149.197 396.398L151.123 400.882L147.868 400.501L145.958 396.026L149.197 396.398Z" fill="#868585"/>
    <path d="M149.777 395.609L151.703 400.093L151.123 400.881L149.197 396.398L149.777 395.609Z" fill="#C0BFBF"/>
    <path d="M146.331 400.281L148.257 404.764L145.002 404.384L143.092 399.909L146.331 400.281Z" fill="#1857BD"/>
    <path d="M146.331 400.281L148.257 404.764L147.686 405.538L145.751 401.07L146.331 400.281Z" fill="#C0BFBF"/>
    <path d="M145.751 401.07L147.686 405.538L144.431 405.157L142.512 400.698L145.751 401.07Z" fill="#868585"/>
    <path d="M145.403 405.24L147.329 409.723L141.572 409.064L139.646 404.58L145.403 405.24Z" fill="#1857BD"/>
    <path d="M145.403 405.238L147.329 409.721L146.758 410.495L144.823 406.027L145.403 405.238Z" fill="#C0BFBF"/>
    <path d="M144.823 406.029L146.758 410.497L140.986 409.828L139.066 405.369L144.823 406.029Z" fill="#868585"/>
    <path d="M139.431 409.636L141.366 414.104L138.111 413.724L136.192 409.265L139.431 409.636Z" fill="#1857BD"/>
    <path d="M138.86 410.41L140.786 414.893L137.531 414.513L135.62 410.038L138.86 410.41Z" fill="#868585"/>
    <path d="M139.431 409.636L141.366 414.104L140.785 414.893L138.859 410.409L139.431 409.636Z" fill="#C0BFBF"/>
    <path d="M135.985 414.308L137.92 418.776L134.666 418.396L132.746 413.936L135.985 414.308Z" fill="#1857BD"/>
    <path d="M135.405 415.097L137.34 419.565L134.085 419.185L132.175 414.71L135.405 415.097Z" fill="#868585"/>
    <path d="M135.985 414.308L137.92 418.776L137.34 419.565L135.405 415.097L135.985 414.308Z" fill="#C0BFBF"/>
    <path d="M132.539 418.98L134.45 423.455L131.21 423.083L129.3 418.608L132.539 418.98Z" fill="#1857BD"/>
    <path d="M132.539 418.98L134.45 423.455L133.879 424.228L131.959 419.769L132.539 418.98Z" fill="#C0BFBF"/>
    <path d="M131.959 419.769L133.878 424.228L130.639 423.857L128.72 419.397L131.959 419.769Z" fill="#868585"/>
    <path d="M178.757 368.694L180.692 373.163L143.263 423.901L141.337 419.418L178.757 368.694Z" fill="#DBA156"/>
    <path d="M131.602 423.955L133.537 428.423L127.765 427.754L125.845 423.295L131.602 423.955Z" fill="#1857BD"/>
    <path d="M131.602 423.952L133.537 428.421L132.957 429.21L131.031 424.726L131.602 423.952Z" fill="#C0BFBF"/>
    <path d="M131.031 424.728L132.957 429.212L127.185 428.543L125.274 424.068L131.031 424.728Z" fill="#868585"/>
    <path d="M134.352 424.271L136.271 428.73L135.309 428.632L133.383 424.148L134.352 424.271Z" fill="#1857BD"/>
    <path d="M133.383 424.148L135.309 428.631L132.207 432.814L130.297 428.34L133.383 424.148Z" fill="#1857BD"/>
    <path d="M134.352 424.273L136.271 428.732L133.186 432.924L131.266 428.465L134.352 424.273Z" fill="#C0BFBF"/>
    <path d="M138.646 426.957L140.581 431.425L139.603 431.318L137.693 426.843L138.646 426.957Z" fill="#1857BD"/>
    <path d="M137.693 426.845L139.603 431.319L138.004 433.477L136.085 429.017L137.693 426.845Z" fill="#1857BD"/>
    <path d="M138.647 426.961L140.582 431.429L138.983 433.586L137.063 429.127L138.647 426.961Z" fill="#C0BFBF"/>
    <path d="M144.459 427.63L146.379 432.089L145.4 431.982L143.49 427.508L144.459 427.63Z" fill="#1857BD"/>
    <path d="M143.49 427.509L145.4 431.983L143.817 434.15L141.882 429.681L143.49 427.509Z" fill="#1857BD"/>
    <path d="M144.459 427.63L146.379 432.089L144.786 434.271L142.86 429.787L144.459 427.63Z" fill="#C0BFBF"/>
    <path d="M150.256 428.29L152.166 432.765L151.197 432.642L149.278 428.183L150.256 428.29Z" fill="#1857BD"/>
    <path d="M149.278 428.183L151.197 432.642L149.614 434.809L147.694 430.349L149.278 428.183Z" fill="#1857BD"/>
    <path d="M150.256 428.29L152.167 432.765L150.583 434.931L148.657 430.447L150.256 428.29Z" fill="#C0BFBF"/>
    <path d="M157.547 426.943L159.466 431.402L158.487 431.295L156.577 426.82L157.547 426.943Z" fill="#1857BD"/>
    <path d="M156.577 426.82L158.487 431.294L155.401 435.486L153.491 431.011L156.577 426.82Z" fill="#1857BD"/>
    <path d="M157.546 426.942L159.466 431.401L156.38 435.593L154.445 431.125L157.546 426.942Z" fill="#C0BFBF"/>
    <path d="M161.841 429.629L163.776 434.097L162.798 433.99L160.887 429.515L161.841 429.629Z" fill="#1857BD"/>
    <path d="M160.887 429.516L162.798 433.991L161.199 436.148L159.279 431.689L160.887 429.516Z" fill="#1857BD"/>
    <path d="M161.841 429.632L163.776 434.101L162.177 436.258L160.258 431.799L161.841 429.632Z" fill="#C0BFBF"/>
    <path d="M167.638 430.293L169.564 434.777L168.595 434.654L166.676 430.195L167.638 430.293Z" fill="#1857BD"/>
    <path d="M166.675 430.196L168.595 434.655L166.995 436.812L165.076 432.353L166.675 430.196Z" fill="#1857BD"/>
    <path d="M167.638 430.293L169.564 434.776L167.965 436.934L166.055 432.459L167.638 430.293Z" fill="#C0BFBF"/>
    <path d="M173.426 430.97L175.346 435.429L174.383 435.331L172.457 430.847L173.426 430.97Z" fill="#1857BD"/>
    <path d="M172.457 430.847L174.383 435.331L172.784 437.488L170.873 433.013L172.457 430.847Z" fill="#1857BD"/>
    <path d="M173.426 430.968L175.345 435.428L173.762 437.594L171.842 433.135L173.426 430.968Z" fill="#C0BFBF"/>
    <path d="M180.726 429.607L182.652 434.091L181.666 433.959L179.747 429.5L180.726 429.607Z" fill="#1857BD"/>
    <path d="M179.747 429.499L181.667 433.958L178.581 438.15L176.661 433.691L179.747 429.499Z" fill="#1857BD"/>
    <path d="M180.726 429.605L182.652 434.088L179.559 438.256L177.64 433.797L180.726 429.605Z" fill="#C0BFBF"/>
    <path d="M185.036 432.302L186.946 436.777L185.977 436.654L184.057 432.195L185.036 432.302Z" fill="#1857BD"/>
    <path d="M184.057 432.196L185.977 436.655L184.393 438.821L182.458 434.353L184.057 432.196Z" fill="#1857BD"/>
    <path d="M185.036 432.302L186.946 436.776L185.347 438.934L183.437 434.459L185.036 432.302Z" fill="#C0BFBF"/>
    <path d="M190.824 432.982L192.743 437.441L191.774 437.318L189.854 432.859L190.824 432.982Z" fill="#1857BD"/>
    <path d="M189.854 432.856L191.774 437.315L190.181 439.497L188.255 435.013L189.854 432.856Z" fill="#1857BD"/>
    <path d="M190.824 432.981L192.743 437.44L191.144 439.598L189.224 435.138L190.824 432.981Z" fill="#C0BFBF"/>
    <path d="M196.62 433.642L198.556 438.11L197.561 437.994L195.651 433.519L196.62 433.642Z" fill="#1857BD"/>
    <path d="M195.651 433.52L197.562 437.995L195.978 440.161L194.043 435.693L195.651 433.52Z" fill="#1857BD"/>
    <path d="M196.621 433.644L198.556 438.112L196.956 440.27L195.037 435.81L196.621 433.644Z" fill="#C0BFBF"/>
    <path d="M205.556 437.011L195.037 435.808L194.043 435.692L189.224 435.137L188.255 435.015L183.436 434.46L182.458 434.353L177.639 433.798L176.661 433.691L171.842 433.136L170.873 433.013L166.054 432.458L165.076 432.351L160.258 431.796L159.279 431.689L154.445 431.125L153.491 431.012L148.657 430.448L147.694 430.35L142.86 429.786L141.882 429.679L137.063 429.124L136.085 429.017L131.266 428.462L130.297 428.34L122.768 427.469L124.679 431.944L132.207 432.814L133.185 432.921L137.883 433.469L138.982 433.583L143.383 434.105L144.786 434.27L149.614 434.809L150.583 434.932L155.401 435.487L156.38 435.594L160.83 436.102L162.177 436.256L166.995 436.81L167.965 436.933L172.783 437.488L173.353 437.546L173.561 437.583L173.762 437.595L178.212 438.104L179.559 438.257L183.743 438.758L185.347 438.934L190.181 439.498L191.144 439.596L195.978 440.16L196.956 440.267L207.467 441.486L205.556 437.011Z" fill="#DBA156"/>
    <path d="M205.557 437.012L195.037 435.809L196.621 433.643L195.651 433.52L194.043 435.693L189.225 435.138L190.833 432.965L189.854 432.858L188.255 435.015L183.437 434.46L185.036 432.303L184.057 432.196L182.458 434.353L177.64 433.798L180.725 429.607L179.747 429.5L176.661 433.691L171.827 433.127L173.426 430.97L172.457 430.848L170.873 433.014L166.055 432.459L167.654 430.302L166.675 430.195L165.076 432.352L160.258 431.797L161.841 429.631L160.887 429.517L159.288 431.674L154.4 431.204L157.502 427.021L156.523 426.914L153.446 431.091L148.612 430.527L150.211 428.369L149.233 428.262L147.634 430.42L142.815 429.865L144.414 427.708L143.445 427.585L141.837 429.758L137.018 429.203L138.602 427.037L137.648 426.923L136.049 429.08L131.221 428.541L134.307 424.349L133.338 424.226L130.252 428.418L122.75 427.501L125.256 424.098L131.091 424.802L131.662 424.029L125.827 423.325L128.702 419.427L131.941 419.798L132.521 419.01L129.282 418.638L132.157 414.74L135.396 415.112L136.007 414.341L132.768 413.969L135.643 410.072L138.882 410.443L139.453 409.67L136.214 409.299L139.088 405.401L144.923 406.105L145.437 405.216L139.602 404.511L142.468 400.629L145.707 401.001L146.287 400.212L143.048 399.84L145.913 395.958L149.153 396.33L149.733 395.541L146.494 395.169L149.359 391.287L152.598 391.659L153.179 390.87L149.939 390.498L152.814 386.6L158.649 387.305L159.236 386.541L153.401 385.836L156.275 381.939L159.514 382.31L160.101 381.546L156.847 381.165L159.721 377.268L162.976 377.648L163.556 376.859L160.301 376.479L163.176 372.581L166.431 372.962L167.002 372.188L163.747 371.808L166.622 367.91L172.456 368.615L173.028 367.841L167.193 367.137L170.058 363.255L173.313 363.635L173.893 362.846L170.639 362.466L173.513 358.568L176.768 358.949L177.348 358.16L174.093 357.779L176.959 353.897L180.214 354.278L180.794 353.489L177.555 353.117L180.405 349.226L186.239 349.931L186.82 349.142L181.063 348.482L187.788 339.357L205.557 437.012ZM141.348 419.506L189.019 425.008L178.767 368.782L141.348 419.506Z" fill="#FECA7A"/>
    <path d="M187.755 339.379L189.665 343.854L207.467 441.487L205.557 437.012L187.755 339.379Z" fill="#DBA156"/>
    <path d="M73.0224 313.453L137.101 291.942C138.354 291.524 139.471 290.776 140.337 289.778C141.202 288.78 141.783 287.568 142.02 286.269L149.052 248.576L2.92061 221.362L-4.12012 259.07C-4.3627 260.37 -4.25393 261.711 -3.80507 262.954C-3.35621 264.197 -2.58354 265.298 -1.56686 266.143L50.4986 309.295C53.5891 311.846 57.2793 313.567 61.2205 314.295C65.1617 315.023 69.2236 314.733 73.0224 313.453Z" fill="#2E77C3"/>
    <path d="M-20.1907 195.844L-21.0804 200.7L68.0683 277.459L68.958 272.602L-20.1907 195.844Z" fill="#114E96"/>
    <path d="M68.958 272.602L68.0683 277.459L179.562 238.073L180.452 233.217L68.958 272.602Z" fill="#114E96"/>
    <path d="M-20.1907 195.845L68.958 272.603L180.452 233.218L91.3033 156.459L-20.1907 195.845Z" fill="#2E77C3"/>
    <path d="M121.281 299.814L121.028 281.872C121.549 281.525 121.912 280.987 122.039 280.374C122.122 279.923 122.076 279.458 121.906 279.032C121.736 278.606 121.449 278.237 121.078 277.967L125.357 255.024L85.1143 218.781C85.8267 217.929 86.3031 216.905 86.4959 215.812C86.7321 214.543 86.5871 213.233 86.0791 212.048C85.5711 210.862 84.723 209.854 83.6419 209.15C82.5608 208.446 81.2954 208.079 80.0056 208.095C78.7157 208.111 77.4593 208.509 76.3953 209.239C75.3313 209.968 74.5074 210.997 74.0277 212.195C73.5481 213.393 73.4342 214.706 73.7005 215.968C73.9668 217.231 74.6014 218.386 75.5239 219.287C76.4465 220.188 77.6156 220.796 78.8836 221.033C80.4862 221.354 82.1511 221.049 83.5365 220.181L123.105 255.826L119.019 277.569C118.579 277.692 118.181 277.934 117.87 278.269C117.559 278.604 117.347 279.018 117.258 279.466C117.197 279.788 117.204 280.118 117.278 280.437C117.352 280.755 117.491 281.055 117.687 281.317L111.847 298.135L121.281 299.814Z" fill="#FF7D6C"/>
    <path d="M467.07 419.259L489.696 423.997C490.589 424.186 491.515 424.158 492.395 423.914C493.275 423.67 494.084 423.218 494.753 422.597C495.422 421.975 495.932 421.201 496.239 420.341C496.547 419.481 496.643 418.56 496.52 417.655L487.817 354.351L491.517 337.131L493.648 334.99C493.973 334.671 494.204 334.269 494.316 333.828C494.428 333.387 494.417 332.924 494.284 332.489C494.151 332.054 493.902 331.663 493.562 331.36C493.223 331.057 492.807 330.853 492.36 330.77L486.191 329.456L480.021 328.142C479.582 328.048 479.126 328.074 478.7 328.218C478.275 328.363 477.897 328.619 477.605 328.961C477.314 329.303 477.121 329.717 477.046 330.16C476.971 330.603 477.018 331.058 477.181 331.477L478.238 334.293L474.538 351.514L440.8 405.841C440.32 406.619 440.034 407.501 439.965 408.413C439.896 409.325 440.048 410.24 440.406 411.081C440.764 411.922 441.319 412.665 442.024 413.247C442.729 413.829 443.564 414.233 444.457 414.425L467.07 419.259Z" fill="#2E77C3"/>
    <path d="M485.792 366.794L471.341 363.717L443.958 407.83C443.786 408.1 443.682 408.409 443.657 408.728C443.632 409.048 443.687 409.369 443.816 409.662C443.94 409.956 444.132 410.215 444.377 410.418C444.622 410.621 444.912 410.762 445.223 410.829L490.419 420.438C490.733 420.51 491.06 420.503 491.371 420.418C491.682 420.332 491.967 420.17 492.2 419.947C492.433 419.728 492.61 419.457 492.715 419.155C492.82 418.854 492.851 418.531 492.805 418.215L485.792 366.794Z" fill="#3EBFB4"/>
    <g style="mix-blend-mode:multiply">
        <g style="mix-blend-mode:multiply">
            <path d="M496.484 417.718L487.781 354.415L491.481 337.195L493.612 335.053C493.954 334.739 494.202 334.336 494.326 333.889C494.451 333.441 494.448 332.968 494.318 332.522C494.187 332.077 493.935 331.677 493.589 331.367C493.243 331.058 492.818 330.851 492.36 330.771L486.191 329.457L467.079 419.244L489.705 423.982C490.588 424.16 491.5 424.126 492.367 423.882C493.235 423.639 494.032 423.193 494.693 422.581C495.355 421.97 495.862 421.21 496.174 420.365C496.485 419.52 496.591 418.612 496.484 417.718Z" fill="#F1F2F2"/>
        </g>
    </g>
    <rect x="-12" y="314.039" width="802" height="8" fill="#A6DFFF"/>
</svg>
