<svg width="134" height="171" viewBox="0 0 134 171" fill="none" xmlns="http://www.w3.org/2000/svg">
    <g clip-path="url(#clip0)">
        <path d="M-32.9601 74.29C-31.9601 73.12 -2.71011 15.88 -2.71011 15.88L53.6399 0L23.0399 59.76L-32.9601 74.29Z" fill="#C7C7C7"/>
        <path d="M-31.9 74.2302C-31.16 75.5102 133.78 172.17 133.04 170.88C132.3 169.59 23.39 58.4102 23.39 58.4102L-31.9 74.2302Z" fill="url(#paint0_linear)"/>
        <path d="M-31.9 74.2302C-31.16 75.5102 133.78 172.17 133.04 170.88C132.3 169.59 23.39 58.4102 23.39 58.4102L-31.9 74.2302Z" fill="#9C8780"/>
        <path d="M53.64 -3.47068e-06L23.39 58.41L133.04 170.88L53.64 -3.47068e-06Z" fill="#EC8F70"/>
        <path style="mix-blend-mode:overlay" d="M53.64 -3.47068e-06L23.39 58.41L133.04 170.88L53.64 -3.47068e-06Z" fill="url(#paint1_linear)"/>
    </g>
    <defs>
        <linearGradient id="paint0_linear" x1="44.1682" y1="150.739" x2="63.0581" y2="67.3931" gradientUnits="userSpaceOnUse">
            <stop stop-color="#4F3B22"/>
            <stop offset="0.63" stop-color="#4A3725"/>
            <stop offset="1" stop-color="#B98254"/>
        </linearGradient>
        <linearGradient id="paint1_linear" x1="60.5914" y1="-1.06158" x2="87.8281" y2="177.766" gradientUnits="userSpaceOnUse">
            <stop stop-color="white"/>
            <stop offset="0.08" stop-color="white" stop-opacity="0.8"/>
            <stop offset="0.17" stop-color="white" stop-opacity="0.59"/>
            <stop offset="0.27" stop-color="white" stop-opacity="0.41"/>
            <stop offset="0.36" stop-color="white" stop-opacity="0.26"/>
            <stop offset="0.46" stop-color="white" stop-opacity="0.15"/>
            <stop offset="0.55" stop-color="white" stop-opacity="0.07"/>
            <stop offset="0.64" stop-color="white" stop-opacity="0.02"/>
            <stop offset="0.72" stop-color="white" stop-opacity="0"/>
        </linearGradient>
        <clipPath id="clip0">
            <rect width="170.9" height="166.04" fill="white" transform="translate(133.04) rotate(90)"/>
        </clipPath>
    </defs>
</svg>
