<svg width="836" height="523" viewBox="0 0 836 523" fill="none" xmlns="http://www.w3.org/2000/svg">
    <path d="M672.065 417.237L662.966 416.228L650.714 414.858L641.615 413.831C642.022 410.253 643.83 406.982 646.644 404.735C649.457 402.488 653.046 401.449 656.624 401.844L660.083 402.241C661.855 402.436 663.571 402.979 665.133 403.838C666.695 404.698 668.072 405.858 669.185 407.251C670.298 408.644 671.126 410.244 671.62 411.957C672.114 413.671 672.265 415.465 672.065 417.237Z" fill="#0083CA"/>
    <path d="M662.948 416.228L661.849 426.142C657.854 425.087 653.726 424.625 649.597 424.772L650.696 414.858L662.948 416.228Z" fill="#0074B3"/>
    <path d="M686.479 425.367L692.047 432.577L699.524 442.382L705.073 449.592C707.934 447.406 709.809 444.174 710.289 440.605C710.769 437.036 709.813 433.422 707.632 430.558L705.506 427.782C703.302 424.939 700.06 423.087 696.492 422.634C692.924 422.181 689.323 423.164 686.479 425.367Z" fill="#0083CA"/>
    <path d="M691.975 432.649L684.047 438.705C685.531 440.139 686.898 441.688 688.137 443.338C689.394 444.975 690.527 446.704 691.524 448.511L699.452 442.455L691.975 432.649Z" fill="#0074B3"/>
    <path d="M667.596 514.592C667.45 515.704 667.086 516.776 666.524 517.747C665.963 518.717 665.216 519.568 664.325 520.25C663.435 520.931 662.419 521.43 661.335 521.718C660.252 522.006 659.122 522.077 658.011 521.928C656.926 521.783 655.879 521.428 654.93 520.882C653.452 520.043 652.258 518.782 651.5 517.26C650.743 515.738 650.456 514.024 650.678 512.338L651.795 504.029C657.658 504.676 663.593 504.093 669.218 502.316L667.596 514.592Z" fill="#0074B3"/>
    <path d="M682.768 427.872C691.281 434.52 696.963 444.145 698.672 454.813C700.38 465.481 697.989 476.4 691.977 485.376C685.966 494.351 676.781 500.717 666.269 503.194C655.758 505.671 644.698 504.075 635.315 498.726C625.931 493.378 618.92 484.674 615.69 474.365C612.46 464.055 613.251 452.905 617.904 443.155C622.557 433.405 630.727 425.78 640.772 421.811C650.816 417.842 661.99 417.824 672.047 421.762C673.974 422.507 675.841 423.399 677.632 424.429C679.425 425.451 681.142 426.601 682.768 427.872Z" fill="#0083CA"/>
    <path d="M622.318 487.211L615.723 492.402C614.162 493.573 612.247 494.173 610.297 494.104C608.347 494.034 606.48 493.299 605.006 492.02C603.532 490.741 602.54 488.996 602.195 487.075C601.85 485.154 602.173 483.173 603.111 481.461C603.656 480.505 604.377 479.661 605.237 478.973L614.966 471.331C616.288 477.077 618.792 482.485 622.318 487.211Z" fill="#0074B3"/>
    <path d="M690.736 468.603C694.661 449.643 682.479 431.089 663.526 427.163C644.574 423.236 626.028 435.424 622.103 454.384C618.178 473.344 630.361 491.897 649.313 495.824C668.266 499.75 686.812 487.563 690.736 468.603Z" fill="#F9FBFC"/>
    <path d="M671.368 433.782L667.166 441.158L668.45 441.89L672.652 434.514L671.368 433.782Z" fill="#3A4D57"/>
    <path d="M644.42 481.117L640.216 488.492L641.5 489.224L645.703 481.849L644.42 481.117Z" fill="#3A4D57"/>
    <path d="M629.478 445.266L628.746 446.55L636.118 450.755L636.85 449.471L629.478 445.266Z" fill="#3A4D57"/>
    <path d="M676.768 472.252L676.037 473.536L683.409 477.741L684.141 476.457L676.768 472.252Z" fill="#3A4D57"/>
    <path d="M648.85 431.044L647.425 431.434L649.665 439.623L651.09 439.233L648.85 431.044Z" fill="#3A4D57"/>
    <path d="M663.227 483.589L661.802 483.979L664.042 492.168L665.467 491.778L663.227 483.589Z" fill="#3A4D57"/>
    <path d="M634.091 466.937L625.905 469.178L626.295 470.603L634.481 468.363L634.091 466.937Z" fill="#3A4D57"/>
    <path d="M686.615 452.555L678.429 454.795L678.819 456.221L687.005 453.981L686.615 452.555Z" fill="#3A4D57"/>
    <path d="M658.75 475.513L654.876 461.345L665.416 442.851L667.993 444.311L658.065 461.741L661.615 474.72L658.75 475.513Z" fill="#3A4D57"/>
    <path d="M659.452 463.274C659.108 463.873 658.594 464.357 657.976 464.665C657.357 464.972 656.66 465.09 655.975 465.001C655.29 464.913 654.646 464.624 654.125 464.17C653.604 463.715 653.229 463.117 653.048 462.45C652.866 461.783 652.887 461.077 653.107 460.421C653.326 459.766 653.735 459.19 654.282 458.767C654.828 458.344 655.488 458.093 656.178 458.045C656.867 457.997 657.555 458.154 658.155 458.497C658.957 458.961 659.544 459.723 659.787 460.618C660.03 461.513 659.91 462.467 659.452 463.274Z" fill="#3A4D57"/>
    <path d="M581.039 187.434C580.84 186.581 580.474 185.775 579.963 185.064C579.451 184.353 578.805 183.749 578.06 183.289C577.314 182.828 576.486 182.519 575.621 182.38C574.756 182.241 573.873 182.274 573.021 182.477L489.472 202.071L506.697 275.577L583.777 257.552L590.264 256.02L596.75 254.506L581.039 187.434Z" fill="#FA9887"/>
    <path d="M580.805 186.659C580.238 185.135 579.134 183.871 577.701 183.104C576.267 182.337 574.603 182.121 573.021 182.495L489.473 202.089C487.888 202.458 486.494 203.396 485.554 204.725C484.614 206.054 484.194 207.681 484.373 209.299L580.805 186.659Z" fill="#F47D6E"/>
    <path d="M500.211 277.109L484.499 210.092C484.299 209.238 484.268 208.354 484.41 207.489C484.551 206.623 484.862 205.795 485.323 205.05C485.785 204.305 486.39 203.658 487.101 203.147C487.813 202.636 488.619 202.27 489.472 202.07C491.195 201.67 493.005 201.969 494.508 202.901C496.011 203.834 497.083 205.324 497.49 207.045L513.202 274.063L500.211 277.109Z" fill="#F47D6E"/>
    <path d="M486.013 209.749C485.859 209.095 485.836 208.417 485.944 207.753C486.052 207.089 486.29 206.454 486.644 205.882C486.998 205.311 487.461 204.814 488.006 204.422C488.552 204.029 489.169 203.748 489.824 203.594C490.478 203.44 491.156 203.417 491.819 203.525C492.482 203.633 493.118 203.871 493.689 204.225C494.261 204.579 494.757 205.042 495.149 205.588C495.542 206.134 495.823 206.752 495.977 207.406L511.706 274.406L501.742 276.749L486.013 209.749Z" fill="#F9F8F7"/>
    <path d="M573.379 242.178L564.039 202.342L552.847 204.968L562.187 244.804L573.379 242.178Z" fill="#F47D6E"/>
    <path d="M524.737 211.548L523.649 211.803L532.982 251.641L534.069 251.386L524.737 211.548Z" fill="#F47D6E"/>
    <path d="M516.026 213.593L514.938 213.848L524.271 253.686L525.359 253.431L516.026 213.593Z" fill="#F47D6E"/>
    <path d="M512.445 95.8124C516.049 98.3359 518.481 103.383 517.13 105.258C515.778 107.132 510.211 106.411 506.679 103.888C503.148 101.364 500.643 96.3171 501.995 94.4425C503.346 92.5679 508.914 93.2889 512.445 95.8124Z" fill="#CD5458"/>
    <path d="M504.697 118.164L481.977 150.014C481.353 150.785 480.561 151.402 479.661 151.818C478.761 152.233 477.778 152.436 476.788 152.412L475.58 152.286C474.604 152.152 473.679 151.767 472.896 151.168C472.079 150.615 471.416 149.865 470.968 148.987L470.463 147.869C470.11 146.948 469.976 145.956 470.073 144.973C470.17 143.991 470.495 143.044 471.022 142.209L493.688 110.377C492.265 112.378 494.121 116.019 496.643 117.839C499.166 119.66 503.274 120.219 504.697 118.164Z" fill="#F24C88"/>
    <path d="M501.742 110.773C504.283 112.576 506.12 116.181 504.697 118.218C503.274 120.255 499.292 119.642 496.697 117.839C494.103 116.037 492.319 112.432 493.742 110.377C495.166 108.322 499.22 108.971 501.742 110.773Z" fill="#FC7EB2"/>
    <path d="M481.977 150.014L504.697 118.163C506.121 116.18 504.283 112.539 501.743 110.719C499.202 108.898 495.166 108.34 493.743 110.322L471.022 142.173C470.495 143.008 470.17 143.954 470.073 144.937C469.977 145.919 470.11 146.911 470.464 147.833L470.968 148.95C471.416 149.828 472.08 150.579 472.896 151.131C473.679 151.73 474.604 152.115 475.581 152.249L476.788 152.375C477.776 152.404 478.757 152.206 479.657 151.797C480.556 151.388 481.35 150.778 481.977 150.014ZM482.752 150.573C482.028 151.473 481.103 152.191 480.052 152.67C479.001 153.149 477.852 153.375 476.698 153.33L475.491 153.204C474.351 153.029 473.268 152.589 472.329 151.919C471.39 151.249 470.622 150.368 470.085 149.347L469.581 148.229C469.169 147.147 469.016 145.983 469.135 144.831C469.254 143.679 469.641 142.571 470.265 141.596L499.508 100.715C500.487 103.274 502.192 105.49 504.413 107.092C506.635 108.693 509.277 109.609 512.013 109.727L482.752 150.573Z" fill="#2E77C3"/>
    <path d="M517.112 105.258C518.463 103.455 515.959 98.336 512.427 95.8125C508.896 93.289 503.328 92.55 501.977 94.4426C500.625 96.3353 503.13 101.364 506.661 103.888C510.193 106.411 515.778 107.15 517.112 105.258ZM512.986 95.0374C516.805 97.7592 519.688 103.293 517.886 105.853C516.085 108.412 509.905 107.439 506.103 104.699C502.301 101.959 499.4 96.4434 501.202 93.8838C503.004 91.3242 509.184 92.2976 513.004 95.0374H512.986Z" fill="#DD6C5E"/>
    <path d="M501.22 93.8833C499.418 96.4068 502.301 101.941 506.121 104.698C509.94 107.456 516.103 108.303 517.904 105.852L516.103 108.267C515.574 108.833 514.915 109.262 514.184 109.516C513.452 109.77 512.67 109.843 511.904 109.727C509.168 109.609 506.527 108.693 504.305 107.092C502.083 105.49 500.378 103.274 499.4 100.715C499.04 100.028 498.852 99.2642 498.852 98.4887C498.852 97.7133 499.04 96.9494 499.4 96.2626L501.22 93.8833Z" fill="#CD5458"/>
    <path d="M556.931 2.45984L524.967 45.5761C524.403 46.3442 524.166 47.3044 524.308 48.2468C524.45 49.1893 524.959 50.0371 525.724 50.6051L584.264 94.0278C585.03 94.5939 585.988 94.8339 586.93 94.6954C587.872 94.5569 588.721 94.0512 589.291 93.2887L621.255 50.1545C621.819 49.3864 622.055 48.4261 621.914 47.4837C621.772 46.5413 621.263 45.6934 620.498 45.1254L561.976 1.70278C561.595 1.42062 561.163 1.21636 560.703 1.10169C560.243 0.987023 559.765 0.964194 559.297 1.03451C558.828 1.10483 558.378 1.26692 557.972 1.5115C557.566 1.75607 557.212 2.07833 556.931 2.45984ZM587.129 87.034C586.801 87.4784 586.349 87.8155 585.83 88.003C585.31 88.1904 584.747 88.2197 584.211 88.0871C583.675 87.9545 583.191 87.666 582.819 87.258C582.447 86.8501 582.204 86.3409 582.121 85.7949C582.038 85.249 582.118 84.6906 582.352 84.1904C582.586 83.6903 582.963 83.2707 583.436 82.9847C583.908 82.6987 584.454 82.5592 585.006 82.5837C585.557 82.6083 586.089 82.7958 586.534 83.1225C586.83 83.34 587.081 83.6138 587.271 83.9282C587.461 84.2426 587.588 84.5915 587.643 84.9548C587.698 85.3182 587.681 85.6889 587.593 86.0457C587.505 86.4024 587.347 86.7383 587.129 87.034ZM578.606 80.7252C578.277 81.1684 577.823 81.5039 577.303 81.6893C576.783 81.8747 576.219 81.9017 575.684 81.7669C575.148 81.632 574.665 81.3413 574.295 80.9317C573.924 80.522 573.683 80.0116 573.603 79.4651C573.522 78.9186 573.605 78.3604 573.842 77.8612C574.078 77.362 574.457 76.9441 574.931 76.6603C575.405 76.3766 575.952 76.2397 576.504 76.267C577.055 76.2943 577.586 76.4846 578.03 76.8137C578.325 77.0325 578.573 77.3073 578.762 77.6224C578.95 77.9375 579.075 78.2866 579.129 78.6499C579.182 79.0132 579.164 79.3834 579.074 79.7395C578.984 80.0956 578.826 80.4306 578.606 80.7252ZM570.102 74.4164C569.772 74.8596 569.319 75.1951 568.799 75.3805C568.278 75.5659 567.715 75.5929 567.18 75.458C566.644 75.3232 566.161 75.0325 565.79 74.6228C565.42 74.2131 565.179 73.7028 565.098 73.1563C565.018 72.6098 565.101 72.0516 565.338 71.5524C565.574 71.0532 565.953 70.6353 566.427 70.3515C566.901 70.0677 567.448 69.9309 567.999 69.9582C568.551 69.9855 569.082 70.1758 569.525 70.5049C570.117 70.9497 570.509 71.6099 570.617 72.3421C570.725 73.0744 570.54 73.8197 570.102 74.4164ZM561.598 68.0895C561.271 68.5365 560.82 68.8764 560.3 69.0663C559.781 69.2562 559.217 69.2875 558.679 69.1563C558.142 69.025 557.656 68.7371 557.282 68.329C556.909 67.9209 556.665 67.4111 556.581 66.8641C556.498 66.3171 556.578 65.7576 556.813 65.2566C557.048 64.7555 557.426 64.3355 557.9 64.0497C558.373 63.7639 558.921 63.6253 559.474 63.6513C560.026 63.6774 560.558 63.867 561.003 64.1961C561.596 64.635 561.991 65.2907 562.103 66.0202C562.214 66.7496 562.033 67.4936 561.598 68.0895ZM553.147 61.7807C552.819 62.2203 552.369 62.5529 551.852 62.7365C551.336 62.9202 550.776 62.9466 550.245 62.8126C549.713 62.6785 549.233 62.39 548.866 61.9833C548.498 61.5767 548.259 61.0702 548.178 60.5277C548.098 59.9852 548.18 59.4311 548.414 58.9352C548.648 58.4394 549.024 58.024 549.494 57.7416C549.964 57.4591 550.507 57.3222 551.054 57.3481C551.602 57.3741 552.13 57.5617 552.571 57.8873C552.865 58.1044 553.113 58.3776 553.301 58.6911C553.49 59.0046 553.614 59.3523 553.668 59.7141C553.722 60.0759 553.703 60.4447 553.614 60.7994C553.524 61.1541 553.366 61.4876 553.147 61.7807ZM544.643 55.4719C544.189 56.0261 543.539 56.3846 542.828 56.4731C542.117 56.5616 541.399 56.3735 540.823 55.9476C540.247 55.5217 539.857 54.8905 539.733 54.1847C539.608 53.4789 539.76 52.7523 540.156 52.1553C540.366 51.8397 540.637 51.5701 540.954 51.3627C541.271 51.1554 541.626 51.0146 541.999 50.949C542.372 50.8833 542.754 50.8942 543.123 50.981C543.491 51.0677 543.838 51.2285 544.143 51.4536C544.447 51.6787 544.703 51.9634 544.894 52.2903C545.085 52.6172 545.208 52.9796 545.254 53.3555C545.301 53.7313 545.271 54.1127 545.166 54.4765C545.061 54.8404 544.883 55.179 544.643 55.4719ZM536.138 49.1631C535.809 49.6063 535.355 49.9418 534.835 50.1272C534.315 50.3126 533.751 50.3396 533.216 50.2048C532.68 50.0699 532.197 49.7792 531.827 49.3695C531.456 48.9599 531.215 48.4495 531.135 47.903C531.054 47.3565 531.137 46.7983 531.374 46.2991C531.61 45.7999 531.989 45.382 532.463 45.0982C532.937 44.8145 533.484 44.6776 534.036 44.7049C534.587 44.7322 535.118 44.9225 535.562 45.2516C536.142 45.707 536.52 46.3723 536.614 47.104C536.709 47.8358 536.512 48.5753 536.066 49.1631H536.138Z" fill="#F9FBFC"/>
    <path d="M559.49 10.6116L538.014 39.583L539.794 40.9037L561.27 11.9323L559.49 10.6116Z" fill="#A5B7C6"/>
    <path d="M567.77 16.7376L546.294 45.709L548.074 47.0296L569.55 18.0583L567.77 16.7376Z" fill="#A5B7C6"/>
    <path d="M576.02 22.8778L554.544 51.8491L556.325 53.1698L577.8 24.1985L576.02 22.8778Z" fill="#A5B7C6"/>
    <path d="M584.282 28.9857L562.806 57.957L564.586 59.2777L586.062 30.3064L584.282 28.9857Z" fill="#A5B7C6"/>
    <path d="M592.55 35.1253L571.074 64.0967L572.854 65.4173L594.33 36.446L592.55 35.1253Z" fill="#A5B7C6"/>
    <path d="M600.811 41.2513L579.335 70.2227L581.116 71.5433L602.591 42.5719L600.811 41.2513Z" fill="#A5B7C6"/>
    <path d="M609.062 47.3915L587.586 76.3628L589.366 77.6834L610.842 48.7121L609.062 47.3915Z" fill="#A5B7C6"/>
    <path d="M348.519 140.641C347.964 140.774 347.44 141.016 346.979 141.351C346.517 141.687 346.126 142.111 345.828 142.598C345.53 143.085 345.331 143.627 345.243 144.191C345.154 144.755 345.177 145.331 345.312 145.886L346.303 150.014L348.825 160.559L362.158 216.293L367.852 224.584L371.221 231.578L371.059 223.827L372.374 213.841L358.969 158.107L356.429 147.545L355.51 143.399C355.236 142.284 354.534 141.321 353.556 140.721C352.578 140.12 351.402 139.929 350.285 140.19L348.519 140.641Z" fill="#EEE2D2"/>
    <path d="M345.312 145.886C345.177 145.331 345.154 144.755 345.243 144.191C345.331 143.627 345.53 143.085 345.828 142.598C346.126 142.111 346.517 141.687 346.979 141.352C347.44 141.016 347.964 140.774 348.519 140.641L350.321 140.208C351.438 139.947 352.614 140.138 353.592 140.739C354.57 141.339 355.272 142.302 355.546 143.417L356.537 147.545L355.041 147.923L352.591 148.518L350.158 149.095L347.726 149.672L346.339 150.014L345.312 145.886Z" fill="#FA6564"/>
    <path d="M347.681 149.668L346.296 150L348.819 160.553L350.204 160.222L347.681 149.668Z" fill="#F79663"/>
    <path d="M350.123 149.095L352.555 148.5L355.095 159.045L353.942 159.333L352.663 159.64L350.123 149.095Z" fill="#F79663"/>
    <path d="M355.005 147.923L356.501 147.544L359.041 158.107L357.528 158.45L355.005 147.923Z" fill="#F79663"/>
    <path d="M354.996 147.92L352.561 148.505L355.092 159.038L357.527 158.453L354.996 147.92Z" fill="#FECA7A"/>
    <path d="M350.174 149.085L347.736 149.658L350.216 160.221L352.654 159.648L350.174 149.085Z" fill="#FECA7A"/>
    <path d="M348.825 160.559L350.231 160.234L352.663 159.639L353.942 159.333L367.329 215.067L362.23 216.293L348.825 160.559Z" fill="#FECA7A"/>
    <path d="M353.942 159.333L355.095 159.045L357.527 158.45L359.041 158.107L372.446 213.841L367.329 215.067L353.942 159.333Z" fill="#FC8B60"/>
    <path d="M371.293 231.578L367.924 224.584L371.131 223.809L371.293 231.578Z" fill="#1857BD"/>
    <path d="M362.23 216.293L367.33 215.067L372.447 213.841L371.131 223.809L367.924 224.584L362.23 216.293Z" fill="#EFD7B8"/>
    <path d="M451.756 270.327L430.775 247.952C429.979 247.102 428.645 247.06 427.796 247.856L418.492 256.588C417.643 257.385 417.6 258.719 418.397 259.569L439.377 281.944C440.174 282.793 441.508 282.836 442.357 282.039L451.661 273.308C452.51 272.511 452.553 271.176 451.756 270.327Z" fill="#F9FBFC"/>
    <path d="M448.688 265.816L435.091 251.316L421.464 264.104L435.061 278.605L448.688 265.816Z" fill="#F24C88"/>
    <g style="mix-blend-mode:multiply">
        <g style="mix-blend-mode:multiply">
            <path d="M423.149 252.217L418.482 256.597C418.089 256.992 417.869 257.527 417.869 258.084C417.869 258.641 418.089 259.176 418.482 259.571L422.085 263.519L421.473 264.095L435.058 278.516L435.671 277.939L439.383 281.886C439.778 282.279 440.312 282.5 440.869 282.5C441.426 282.5 441.961 282.279 442.356 281.886L447.004 277.506L423.149 252.217Z" fill="#F1F2F2"/>
        </g>
    </g>
    <path d="M825.779 41.8224L727.296 92.2822L736.52 110.299L835.002 59.8391L825.779 41.8224Z" fill="#B1CCE7"/>
    <path d="M825.139 44.4835L729.833 93.3164L734.703 102.83L830.01 53.9972L825.139 44.4835Z" fill="#91B7DC"/>
    <path d="M747.74 69.189C747.361 63.5763 748.612 57.9737 751.343 53.0564C754.12 48.0095 758.343 43.9099 763.469 41.286C766.851 39.5417 770.544 38.4844 774.337 38.1749C778.129 37.8655 781.945 38.31 785.564 39.483C789.184 40.6559 792.535 42.534 795.426 45.0091C798.316 47.4841 800.689 50.507 802.406 53.9036L822.316 43.7014C819.252 37.6803 815.028 32.3244 809.889 27.9412C804.749 23.5581 798.794 20.2342 792.367 18.1606C785.939 16.0869 779.165 15.3044 772.434 15.858C765.703 16.4115 759.148 18.2902 753.145 21.3862C741.037 27.5879 731.887 38.3466 727.708 51.2964C723.528 64.2461 724.661 78.3264 730.857 90.4407L750.785 80.3105C749.032 76.8462 747.996 73.0634 747.74 69.189Z" fill="#B1CCE7"/>
    <path d="M801.523 37.3926C795.676 32.4889 788.514 29.4174 780.933 28.5614C773.351 27.7055 765.685 29.1031 758.893 32.5798C749.743 37.2618 742.825 45.3845 739.656 55.1648C736.487 64.9451 737.328 75.5835 741.992 84.7447L750.785 80.2384C749.041 76.7962 748.006 73.0388 747.74 69.189C747.361 63.5763 748.612 57.9737 751.343 53.0564C754.12 48.0095 758.343 43.9099 763.469 41.286C770.308 37.7919 778.253 37.1583 785.559 39.5245C792.864 41.8907 798.93 47.063 802.424 53.9036L811.217 49.3973C808.83 44.7812 805.532 40.6973 801.523 37.3926Z" fill="#91B7DC"/>
    <path d="M820.982 44.2782L817.198 46.2249L816.964 45.7743L820.73 43.7915L820.982 44.2782Z" fill="#91B7DC"/>
    <path d="M813.739 40.5294L813.145 39.7003L816.55 37.1587L817.217 38.06L813.739 40.5294ZM733.326 81.717L729.29 83.0869C729.164 82.7264 729.055 82.3839 728.947 82.0234L733.001 80.7436L733.326 81.717ZM809.199 35.0317L808.478 34.3107L811.433 31.2645L812.244 32.0576L809.199 35.0317ZM731.524 74.7592L727.326 75.4983C727.326 75.1198 727.2 74.7592 727.146 74.3807L731.362 73.7498L731.524 74.7592ZM803.757 30.3272L802.91 29.7323L805.397 26.2354L806.298 26.8844L803.757 30.3272ZM730.857 67.6934H726.605C726.605 67.3329 726.605 66.9543 726.605 66.5758H730.875L730.857 67.6934ZM797.649 26.596L796.73 26.1453L798.622 22.324L799.613 22.8287L797.649 26.596ZM731.326 60.4833L727.128 59.8704L727.29 58.7529L731.488 59.4739L731.326 60.4833ZM790.983 23.7299L790.01 23.4055L791.271 19.3498L792.334 19.6923L790.983 23.7299ZM732.929 53.4895L728.857 52.2278C728.965 51.8673 729.073 51.5068 729.2 51.1463L733.236 52.5162C733.127 52.8406 733.019 53.1651 732.929 53.4895ZM784.1 21.9815L783.091 21.8193L783.776 17.6194L784.875 17.7816L784.1 21.9815ZM735.578 46.8202L731.758 45.0177C731.92 44.6752 732.082 44.3508 732.263 44.0083L736.046 45.991C735.884 46.2074 735.722 46.5138 735.578 46.8202ZM777.019 21.3506H775.992V17.0967H777.109L777.019 21.3506ZM739.235 40.6556L735.758 38.2042C735.974 37.8977 736.19 37.5913 736.425 37.3029L739.848 39.8264L739.235 40.6556ZM769.866 21.8553L768.875 21.9995L768.136 17.8177L769.253 17.6374L769.866 21.8553ZM743.83 35.248L740.767 32.2739L741.56 31.4628L744.551 34.509L743.83 35.248ZM762.839 23.5497L761.866 23.8741L760.496 19.8365L761.56 19.476L762.839 23.5497ZM749.217 30.5254L746.677 27.1007L747.578 26.4517L750.046 29.8405L749.217 30.5254ZM756.19 26.2354L755.722 26.4698L755.289 26.7041L753.289 22.9368L753.776 22.6845L754.298 22.4141L756.19 26.2354Z" fill="#91B7DC"/>
    <path d="M735.884 87.8808L732.082 89.8275L731.848 89.3228L735.649 87.4302L735.884 87.8808Z" fill="#91B7DC"/>
    <path d="M736.686 105.525L736.205 105.771L737.658 108.611L738.139 108.365L736.686 105.525Z" fill="#91B7DC"/>
    <path d="M827.829 62.4295L826.892 62.8982L825.433 60.0502L826.37 59.5815L827.829 62.4295ZM822.225 65.2955L821.288 65.7822L819.811 62.9342L820.748 62.4475L822.225 65.2955ZM816.622 68.1615L815.685 68.6482L814.225 65.8904L815.162 65.4217L816.622 68.1615ZM811.018 71.0456L810.081 71.5142L808.622 68.6662L809.559 68.1976L811.018 71.0456ZM805.397 73.9116L804.478 74.3982L803.018 71.5503L803.955 71.0636L805.397 73.9116ZM799.793 76.7055L798.856 77.1922L797.415 74.3442L798.334 73.8755L799.793 76.7055ZM794.19 79.5895L793.253 80.0582L791.811 77.2102L792.73 76.7415L794.19 79.5895ZM788.586 82.4555L787.649 82.9422L786.19 80.0942L787.127 79.6075L788.586 82.4555ZM782.983 85.3215L782.046 85.8082L780.586 82.9602L781.523 82.4916L782.983 85.3215ZM777.379 88.2055L776.442 88.6742L774.983 85.8262L775.92 85.3576L777.379 88.2055ZM771.775 91.1256L770.839 91.6123L769.361 88.7823L770.298 88.2957L771.775 91.1256ZM766.172 93.9916L765.235 94.4783L763.776 91.6303L764.712 91.1617L766.172 93.9916ZM760.568 96.8757L759.631 97.3443L758.172 94.4963L759.109 94.0277L760.568 96.8757ZM754.947 99.7597L754.028 100.246L752.568 97.3984L753.505 96.9117L754.947 99.7597ZM749.343 102.626L748.406 103.112L746.965 100.264L747.902 99.7957L749.343 102.626ZM743.74 105.546L742.803 106.014L741.361 103.166L742.28 102.698L743.74 105.546Z" fill="#91B7DC"/>
    <path d="M831.526 56.9606L831.044 57.207L832.498 60.047L832.979 59.8005L831.526 56.9606Z" fill="#91B7DC"/>
    <path d="M157.836 76.9399C157.056 77.3433 156.364 77.8967 155.798 78.5685C155.233 79.2403 154.806 80.0172 154.541 80.8546C154.277 81.692 154.18 82.5734 154.257 83.4482C154.334 84.3231 154.583 85.1741 154.989 85.9525L194.466 162.199L261.475 127.465L225.061 57.1663L221.998 51.236L218.917 45.3237L157.836 76.9399Z" fill="#878CF0"/>
    <path d="M157.115 77.3726C155.776 78.2931 154.818 79.67 154.42 81.2457C154.023 82.8215 154.212 84.4883 154.953 85.9345L194.43 162.181C195.177 163.622 196.423 164.741 197.936 165.328C199.448 165.916 201.123 165.931 202.646 165.372L157.115 77.3726Z" fill="#7579D0"/>
    <path d="M264.538 133.377L203.457 165.029C202.679 165.436 201.828 165.684 200.954 165.761C200.079 165.838 199.198 165.742 198.361 165.477C197.524 165.212 196.748 164.785 196.076 164.219C195.405 163.654 194.851 162.961 194.448 162.181C194.042 161.403 193.793 160.551 193.716 159.677C193.639 158.802 193.736 157.92 194 157.083C194.265 156.246 194.692 155.469 195.257 154.797C195.823 154.125 196.515 153.572 197.295 153.168L258.394 121.498L264.538 133.377Z" fill="#7579D0"/>
    <path d="M202.737 163.659C202.14 164.067 201.463 164.344 200.752 164.471C200.04 164.599 199.309 164.574 198.608 164.399C197.906 164.223 197.25 163.901 196.682 163.453C196.114 163.006 195.648 162.443 195.313 161.801C194.979 161.16 194.784 160.455 194.741 159.733C194.699 159.011 194.81 158.288 195.067 157.612C195.324 156.936 195.721 156.322 196.233 155.811C196.744 155.3 197.358 154.903 198.034 154.646L259.114 122.976L263.835 132.097L202.737 163.659Z" fill="#F9F8F7"/>
    <path d="M212.746 70.9404L176.431 89.7642L181.72 99.975L218.035 81.1513L212.746 70.9404Z" fill="#7579D0"/>
    <path d="M231.325 106.831L195.003 125.642L195.516 126.635L231.838 107.823L231.325 106.831Z" fill="#7579D0"/>
    <path d="M235.453 114.769L199.131 133.58L199.645 134.573L235.967 115.761L235.453 114.769Z" fill="#7579D0"/>
    <path d="M124.918 161.731L133.62 238.752L72.9542 261.734L8.70261 252.866L0 175.844L1.85584 174.564L10.5224 251.37L72.7019 259.643L131.494 237.707L122.828 160.901L124.918 161.731Z" fill="#FECA7A"/>
    <path d="M122.828 160.901L131.494 237.706L72.702 259.643L10.5225 251.369L1.85596 174.564L3.69377 173.284L12.3423 249.873L72.4678 257.534L129.386 236.643L120.738 160.054L122.828 160.901Z" fill="#F7AC4B"/>
    <path d="M120.738 160.054L129.386 236.643L72.4679 257.534L12.3424 249.873L3.69385 173.284L5.54968 172.004L14.1622 248.377L72.2336 255.443L127.278 235.597L118.648 159.225L120.738 160.054Z" fill="#D6E2EA"/>
    <path d="M118.647 159.225L127.278 235.598L72.2333 255.444L14.1618 248.378L5.54932 172.005L7.40515 170.707L15.9997 246.864L71.999 253.335L125.17 234.534L116.557 158.378L118.647 159.225Z" fill="#D6E2EA"/>
    <path d="M116.557 158.378L125.17 234.534L71.9993 253.335L63.4048 177.178L116.557 158.378Z" fill="#F9F8F7"/>
    <path d="M63.4047 177.178L71.9992 253.334L15.9998 246.863L7.40527 170.707L63.4047 177.178Z" fill="#F9F8F7"/>
    <path d="M19.4577 186.593L19.3213 187.829L57.6287 192.06L57.7651 190.824L19.4577 186.593Z" fill="#A5B7C6"/>
    <path d="M20.4885 195.709L20.3521 196.945L58.6594 201.176L58.7959 199.94L20.4885 195.709Z" fill="#A5B7C6"/>
    <path d="M21.5192 204.808L21.3828 206.044L59.6902 210.275L59.8266 209.039L21.5192 204.808Z" fill="#A5B7C6"/>
    <path d="M22.5319 213.906L22.3955 215.143L60.7029 219.373L60.8393 218.137L22.5319 213.906Z" fill="#A5B7C6"/>
    <path d="M23.5627 223.004L23.4263 224.241L61.7337 228.472L61.8701 227.235L23.5627 223.004Z" fill="#A5B7C6"/>
    <path d="M24.5935 232.103L24.457 233.339L62.7644 237.57L62.9008 236.334L24.5935 232.103Z" fill="#A5B7C6"/>
    <path d="M108.345 176.585L71.9443 189.252L72.3528 190.427L108.754 177.76L108.345 176.585Z" fill="#A5B7C6"/>
    <path d="M109.39 185.678L72.9844 198.333L73.3924 199.507L109.798 186.853L109.39 185.678Z" fill="#A5B7C6"/>
    <path d="M110.407 194.757L74.0107 207.437L74.4196 208.612L110.816 195.932L110.407 194.757Z" fill="#A5B7C6"/>
    <path d="M111.451 203.863L75.0542 216.542L75.4631 217.717L111.859 205.037L111.451 203.863Z" fill="#A5B7C6"/>
    <path d="M112.476 212.969L76.0796 225.648L76.4884 226.823L112.885 214.143L112.476 212.969Z" fill="#A5B7C6"/>
    <path d="M113.488 222.088L77.0898 234.762L77.4985 235.936L113.897 223.263L113.488 222.088Z" fill="#A5B7C6"/>
    <path d="M731.127 289.655L732.028 291.386L722.983 290.989L722.1 289.259L731.127 289.655Z" fill="#863636"/>
    <path d="M730.605 290.466L731.505 292.197L722.479 291.8L721.578 290.07L730.605 290.466Z" fill="#131111"/>
    <path d="M731.127 289.655L732.028 291.386L731.505 292.197L730.604 290.466L731.127 289.655Z" fill="#1B1819"/>
    <path d="M731.127 289.655L730.605 290.466L721.578 290.07L722.1 289.259L731.127 289.655Z" fill="#1E1B1C"/>
    <path d="M727.668 294.54L728.55 296.271L719.884 295.892L719.001 294.162L727.668 294.54Z" fill="#863636"/>
    <path d="M727.145 295.369L728.028 297.1L719.361 296.721L718.479 294.991L727.145 295.369Z" fill="#131111"/>
    <path d="M727.668 294.54L727.145 295.369L718.479 294.991L719.001 294.162L727.668 294.54Z" fill="#1E1B1C"/>
    <path d="M727.667 294.54L728.55 296.27L728.028 297.1L727.145 295.369L727.667 294.54Z" fill="#1B1819"/>
    <path d="M724.55 299.443L725.451 301.173L716.785 300.795L715.884 299.064L724.55 299.443Z" fill="#863636"/>
    <path d="M724.551 299.443L724.028 300.272L715.362 299.894L715.884 299.064L724.551 299.443Z" fill="#1E1B1C"/>
    <path d="M724.55 299.443L725.451 301.173L724.929 302.002L724.028 300.272L724.55 299.443Z" fill="#1B1819"/>
    <path d="M724.028 300.272L724.929 302.002L716.263 301.624L715.362 299.894L724.028 300.272Z" fill="#131111"/>
    <path d="M721.434 304.363L722.335 306.094L713.668 305.715L712.767 303.985L721.434 304.363Z" fill="#863636"/>
    <path d="M721.434 304.364L722.335 306.094L721.812 306.905L720.929 305.175L721.434 304.364Z" fill="#1B1819"/>
    <path d="M720.929 305.175L721.812 306.905L713.146 306.527L712.263 304.796L720.929 305.175Z" fill="#131111"/>
    <path d="M721.434 304.363L720.929 305.175L712.263 304.796L712.785 303.985L721.434 304.363Z" fill="#1E1B1C"/>
    <path d="M718.695 309.285L719.596 311.015L710.569 310.619L709.668 308.888L718.695 309.285Z" fill="#863636"/>
    <path d="M718.172 310.114L719.073 311.826L710.046 311.43L709.146 309.699L718.172 310.114Z" fill="#131111"/>
    <path d="M718.695 309.284L719.596 311.015L719.073 311.826L718.172 310.113L718.695 309.284Z" fill="#1B1819"/>
    <path d="M718.695 309.285L718.172 310.114L709.146 309.699L709.668 308.888L718.695 309.285Z" fill="#1E1B1C"/>
    <path d="M715.235 314.169L716.118 315.899L707.452 315.521L706.569 313.791L715.235 314.169Z" fill="#863636"/>
    <path d="M715.235 314.169L714.713 314.998L706.046 314.62L706.569 313.791L715.235 314.169Z" fill="#1E1B1C"/>
    <path d="M714.713 314.998L715.596 316.729L706.929 316.35L706.046 314.62L714.713 314.998Z" fill="#131111"/>
    <path d="M715.235 314.169L716.118 315.9L715.596 316.729L714.713 314.999L715.235 314.169Z" fill="#1B1819"/>
    <path d="M712.118 319.09L713.019 320.803L704.353 320.424L703.452 318.694L712.118 319.09Z" fill="#863636"/>
    <path d="M712.118 319.09L713.019 320.802L712.497 321.631L711.596 319.901L712.118 319.09Z" fill="#1B1819"/>
    <path d="M712.118 319.09L711.596 319.902L702.929 319.523L703.452 318.694L712.118 319.09Z" fill="#1E1B1C"/>
    <path d="M711.596 319.901L712.497 321.632L703.83 321.253L702.929 319.523L711.596 319.901Z" fill="#131111"/>
    <path d="M709.019 323.993L709.902 325.723L701.235 325.327L700.353 323.596L709.019 323.993Z" fill="#863636"/>
    <path d="M709.019 323.993L708.497 324.804L699.83 324.425L700.353 323.596L709.019 323.993Z" fill="#1E1B1C"/>
    <path d="M708.497 324.804L709.38 326.534L700.713 326.156L699.83 324.425L708.497 324.804Z" fill="#131111"/>
    <path d="M709.019 323.993L709.902 325.724L709.379 326.535L708.497 324.804L709.019 323.993Z" fill="#1B1819"/>
    <path d="M706.263 328.914L707.164 330.644L698.137 330.248L697.236 328.517L706.263 328.914Z" fill="#863636"/>
    <path d="M706.262 328.914L705.74 329.743L696.713 329.346L697.235 328.517L706.262 328.914Z" fill="#1E1B1C"/>
    <path d="M706.263 328.914L707.164 330.644L706.641 331.474L705.74 329.743L706.263 328.914Z" fill="#1B1819"/>
    <path d="M705.74 329.743L706.641 331.474L697.614 331.077L696.713 329.347L705.74 329.743Z" fill="#131111"/>
    <path d="M702.803 333.799L703.686 335.529L695.02 335.151L694.137 333.42L702.803 333.799Z" fill="#863636"/>
    <path d="M702.281 334.628L703.164 336.358L694.497 335.98L693.614 334.25L702.281 334.628Z" fill="#131111"/>
    <path d="M702.803 333.799L702.281 334.628L693.614 334.25L694.137 333.42L702.803 333.799Z" fill="#1E1B1C"/>
    <path d="M702.803 333.799L703.686 335.529L703.164 336.358L702.281 334.628L702.803 333.799Z" fill="#1B1819"/>
    <path d="M699.686 338.72L700.587 340.432L691.92 340.054L691.02 338.323L699.686 338.72Z" fill="#863636"/>
    <path d="M699.686 338.72L699.164 339.531L690.497 339.152L691.02 338.323L699.686 338.72Z" fill="#1E1B1C"/>
    <path d="M699.164 339.531L700.065 341.261L691.398 340.883L690.497 339.152L699.164 339.531Z" fill="#131111"/>
    <path d="M699.686 338.72L700.587 340.432L700.064 341.261L699.164 339.531L699.686 338.72Z" fill="#1B1819"/>
    <path d="M696.587 343.623L697.47 345.353L688.803 344.975L687.92 343.244L696.587 343.623Z" fill="#863636"/>
    <path d="M696.587 343.623L697.47 345.353L696.965 346.164L696.064 344.434L696.587 343.623Z" fill="#1B1819"/>
    <path d="M696.065 344.434L696.965 346.164L688.281 345.786L687.398 344.055L696.065 344.434Z" fill="#131111"/>
    <path d="M696.587 343.623L696.065 344.434L687.398 344.055L687.92 343.244L696.587 343.623Z" fill="#1E1B1C"/>
    <path d="M693.83 348.544L694.731 350.274L685.704 349.877L684.803 348.147L693.83 348.544Z" fill="#863636"/>
    <path d="M693.83 348.544L693.326 349.355L684.299 348.958L684.803 348.147L693.83 348.544Z" fill="#1E1B1C"/>
    <path d="M693.83 348.543L694.731 350.274L694.209 351.085L693.326 349.355L693.83 348.543Z" fill="#1B1819"/>
    <path d="M693.326 349.355L694.209 351.085L685.182 350.688L684.299 348.958L693.326 349.355Z" fill="#131111"/>
    <path d="M690.371 353.446L691.254 355.177L682.587 354.78L681.704 353.05L690.371 353.446Z" fill="#863636"/>
    <path d="M690.371 353.446L689.848 354.257L681.182 353.879L681.704 353.05L690.371 353.446Z" fill="#1E1B1C"/>
    <path d="M690.371 353.446L691.254 355.177L690.749 355.988L689.848 354.257L690.371 353.446Z" fill="#1B1819"/>
    <path d="M689.848 354.257L690.749 355.988L682.065 355.609L681.182 353.879L689.848 354.257Z" fill="#131111"/>
    <path d="M687.254 358.349L688.154 360.08L679.488 359.701L678.587 357.971L687.254 358.349Z" fill="#863636"/>
    <path d="M686.731 359.16L687.632 360.891L678.965 360.512L678.064 358.782L686.731 359.16Z" fill="#131111"/>
    <path d="M687.254 358.349L688.155 360.08L687.632 360.891L686.731 359.16L687.254 358.349Z" fill="#1B1819"/>
    <path d="M687.254 358.349L686.731 359.16L678.064 358.782L678.587 357.971L687.254 358.349Z" fill="#1E1B1C"/>
    <path d="M684.155 363.252L685.038 364.982L676.371 364.603L675.488 362.873L684.155 363.252Z" fill="#863636"/>
    <path d="M684.155 363.252L685.038 364.982L684.533 365.794L683.632 364.081L684.155 363.252Z" fill="#1B1819"/>
    <path d="M684.154 363.252L683.632 364.081L674.965 363.684L675.488 362.873L684.154 363.252Z" fill="#1E1B1C"/>
    <path d="M683.632 364.081L684.533 365.793L675.866 365.415L674.965 363.685L683.632 364.081Z" fill="#131111"/>
    <path d="M681.416 368.173L682.299 369.903L673.272 369.507L672.389 367.776L681.416 368.173Z" fill="#863636"/>
    <path d="M681.416 368.173L680.894 369.002L671.867 368.606L672.389 367.776L681.416 368.173Z" fill="#1E1B1C"/>
    <path d="M681.416 368.173L682.299 369.903L681.776 370.732L680.894 369.002L681.416 368.173Z" fill="#1B1819"/>
    <path d="M680.894 369.002L681.776 370.732L672.75 370.318L671.867 368.605L680.894 369.002Z" fill="#131111"/>
    <path d="M741.848 287.384L742.749 289.114L689.127 373.797L688.227 372.066L741.848 287.384Z" fill="#CCC2AA"/>
    <path d="M723.794 286.591L741.848 287.384L688.227 372.066L670.173 371.273L671.867 368.605L680.893 369.002L681.416 368.173L672.389 367.776L674.966 363.685L683.632 364.081L684.155 363.252L675.488 362.873L678.065 358.782L686.731 359.16L687.254 358.349L678.587 357.971L681.182 353.879L689.848 354.257L690.371 353.446L681.704 353.05L684.299 348.958L693.326 349.355L693.83 348.543L684.803 348.147L687.398 344.055L696.064 344.434L696.587 343.623L687.92 343.244L690.497 339.152L699.164 339.531L699.686 338.72L691.019 338.323L693.614 334.249L702.281 334.628L702.803 333.799L694.137 333.42L696.713 329.347L705.74 329.743L706.263 328.914L697.236 328.517L699.83 324.426L708.497 324.804L709.019 323.993L700.353 323.597L702.929 319.523L711.596 319.901L712.118 319.09L703.452 318.694L706.046 314.62L714.713 314.999L715.235 314.169L706.569 313.791L709.145 309.699L718.172 310.114L718.695 309.285L709.668 308.888L712.262 304.796L720.929 305.175L721.434 304.364L712.767 303.985L715.362 299.893L724.028 300.272L724.551 299.443L715.884 299.064L718.479 294.991L727.145 295.369L727.668 294.54L719.001 294.161L721.578 290.07L730.605 290.466L731.127 289.655L722.1 289.259L723.794 286.591Z" fill="#F9F8F7"/>
    <path d="M688.227 372.066L689.128 373.797L671.056 373.003L670.173 371.273L688.227 372.066Z" fill="#C1B69F"/>
    <path d="M411.383 299.497L415.275 302.417L409.959 304.724L406.067 301.804L411.383 299.497Z" fill="#1857BD"/>
    <path d="M411.383 299.497L415.275 302.417L415.167 303.372L411.275 300.47L411.383 299.497Z" fill="#C0BFBF"/>
    <path d="M411.275 300.47L415.167 303.372L409.851 305.68L405.959 302.777L411.275 300.47Z" fill="#868585"/>
    <path d="M408.41 306.274L412.302 309.194L409.311 310.492L405.401 307.572L408.41 306.274Z" fill="#1857BD"/>
    <path d="M408.41 306.274L412.302 309.195L412.194 310.15L408.302 307.248L408.41 306.274Z" fill="#C0BFBF"/>
    <path d="M408.302 307.248L412.194 310.15L409.203 311.448L405.293 308.546L408.302 307.248Z" fill="#868585"/>
    <path d="M407.761 312.042L411.653 314.963L408.662 316.26L404.77 313.34L407.761 312.042Z" fill="#1857BD"/>
    <path d="M407.653 313.016L411.545 315.936L408.554 317.234L404.662 314.314L407.653 313.016Z" fill="#868585"/>
    <path d="M407.761 312.042L411.653 314.963L411.545 315.936L407.653 313.016L407.761 312.042Z" fill="#C0BFBF"/>
    <path d="M407.112 317.829L411.004 320.731L408.013 322.028L404.104 319.126L407.112 317.829Z" fill="#1857BD"/>
    <path d="M407.005 318.802L410.896 321.704L407.905 323.002L403.996 320.1L407.005 318.802Z" fill="#868585"/>
    <path d="M407.112 317.829L411.004 320.731L410.896 321.704L407.004 318.802L407.112 317.829Z" fill="#C0BFBF"/>
    <path d="M408.788 322.587L412.68 325.489L407.365 327.796L403.455 324.894L408.788 322.587Z" fill="#1857BD"/>
    <path d="M408.788 322.587L412.68 325.489L412.572 326.462L408.68 323.542L408.788 322.587Z" fill="#C0BFBF"/>
    <path d="M408.68 323.542L412.572 326.463L407.257 328.77L403.347 325.85L408.68 323.542Z" fill="#868585"/>
    <path d="M405.815 329.365L409.707 332.267L406.716 333.565L402.806 330.663L405.815 329.365Z" fill="#1857BD"/>
    <path d="M405.815 329.365L409.707 332.267L409.599 333.24L405.707 330.32L405.815 329.365Z" fill="#C0BFBF"/>
    <path d="M405.707 330.32L409.599 333.24L406.608 334.538L402.698 331.618L405.707 330.32Z" fill="#868585"/>
    <path d="M405.167 335.133L409.059 338.035L406.068 339.333L402.158 336.431L405.167 335.133Z" fill="#1857BD"/>
    <path d="M405.167 335.133L409.059 338.035L408.95 339.026L405.059 336.106L405.167 335.133Z" fill="#C0BFBF"/>
    <path d="M405.059 336.106L408.951 339.026L405.96 340.324L402.05 337.404L405.059 336.106Z" fill="#868585"/>
    <path d="M404.5 340.901L408.41 343.821L405.419 345.119L401.509 342.199L404.5 340.901Z" fill="#1857BD"/>
    <path d="M404.5 340.901L408.41 343.821L408.301 344.794L404.392 341.874L404.5 340.901Z" fill="#C0BFBF"/>
    <path d="M404.392 341.874L408.302 344.794L405.311 346.092L401.401 343.172L404.392 341.874Z" fill="#868585"/>
    <path d="M406.194 345.677L410.086 348.579L404.77 350.887L400.86 347.984L406.194 345.677Z" fill="#1857BD"/>
    <path d="M406.086 346.633L409.978 349.553L404.662 351.86L400.752 348.94L406.086 346.633Z" fill="#868585"/>
    <path d="M406.194 345.677L410.085 348.579L409.977 349.553L406.085 346.633L406.194 345.677Z" fill="#C0BFBF"/>
    <path d="M403.203 352.455L407.113 355.357L404.104 356.655L400.212 353.753L403.203 352.455Z" fill="#1857BD"/>
    <path d="M403.094 353.429L407.004 356.331L403.995 357.629L400.104 354.727L403.094 353.429Z" fill="#868585"/>
    <path d="M403.203 352.455L407.113 355.357L407.005 356.331L403.095 353.428L403.203 352.455Z" fill="#C0BFBF"/>
    <path d="M402.554 358.223L406.464 361.143L403.473 362.441L399.563 359.521L402.554 358.223Z" fill="#1857BD"/>
    <path d="M402.446 359.196L406.356 362.116L403.347 363.414L399.455 360.494L402.446 359.196Z" fill="#868585"/>
    <path d="M402.554 358.223L406.464 361.143L406.356 362.117L402.446 359.197L402.554 358.223Z" fill="#C0BFBF"/>
    <path d="M401.906 363.991L405.815 366.911L402.806 368.209L398.915 365.289L401.906 363.991Z" fill="#1857BD"/>
    <path d="M401.905 363.991L405.815 366.911L405.707 367.867L401.797 364.965L401.905 363.991Z" fill="#C0BFBF"/>
    <path d="M401.798 364.964L405.707 367.866L402.698 369.164L398.807 366.262L401.798 364.964Z" fill="#868585"/>
    <path d="M403.581 368.75L407.491 371.67L402.176 373.977L398.266 371.057L403.581 368.75Z" fill="#1857BD"/>
    <path d="M403.581 368.75L407.491 371.67L407.383 372.625L403.473 369.723L403.581 368.75Z" fill="#C0BFBF"/>
    <path d="M403.473 369.723L407.383 372.625L402.05 374.932L398.158 372.03L403.473 369.723Z" fill="#868585"/>
    <path d="M400.608 375.545L404.518 378.447L401.509 379.745L397.617 376.843L400.608 375.545Z" fill="#1857BD"/>
    <path d="M400.5 376.5L404.41 379.421L401.401 380.718L397.509 377.798L400.5 376.5Z" fill="#868585"/>
    <path d="M400.608 375.545L404.518 378.447L404.41 379.421L400.5 376.501L400.608 375.545Z" fill="#C0BFBF"/>
    <path d="M399.96 381.313L403.87 384.216L400.861 385.513L396.969 382.611L399.96 381.313Z" fill="#1857BD"/>
    <path d="M399.851 382.287L403.761 385.189L400.752 386.486L396.86 383.566L399.851 382.287Z" fill="#868585"/>
    <path d="M399.96 381.313L403.87 384.216L403.761 385.189L399.852 382.287L399.96 381.313Z" fill="#C0BFBF"/>
    <path d="M399.311 387.082L403.203 390.002L400.212 391.299L396.32 388.379L399.311 387.082Z" fill="#1857BD"/>
    <path d="M399.311 387.082L403.203 390.002L403.095 390.957L399.203 388.055L399.311 387.082Z" fill="#C0BFBF"/>
    <path d="M399.203 388.055L403.095 390.957L400.104 392.255L396.212 389.353L399.203 388.055Z" fill="#868585"/>
    <path d="M414.193 320.424L418.103 323.326L411.058 385.982L407.148 383.062L414.193 320.424Z" fill="#DBA156"/>
    <path d="M400.987 391.858L404.897 394.76L399.563 397.067L395.671 394.165L400.987 391.858Z" fill="#1857BD"/>
    <path d="M400.987 391.858L404.896 394.76L404.788 395.733L400.878 392.813L400.987 391.858Z" fill="#C0BFBF"/>
    <path d="M400.878 392.813L404.788 395.733L399.455 398.04L395.563 395.12L400.878 392.813Z" fill="#868585"/>
    <path d="M403.527 390.759L407.419 393.661L406.536 394.057L402.626 391.137L403.527 390.759Z" fill="#1857BD"/>
    <path d="M402.626 391.137L406.536 394.057L405.942 399.23L402.05 396.31L402.626 391.137Z" fill="#1857BD"/>
    <path d="M403.527 390.759L407.419 393.661L406.843 398.834L402.951 395.932L403.527 390.759Z" fill="#C0BFBF"/>
    <path d="M408.59 390.939L412.5 393.841L411.599 394.238L407.707 391.317L408.59 390.939Z" fill="#1857BD"/>
    <path d="M407.707 391.317L411.599 394.237L411.293 396.905L407.401 394.003L407.707 391.317Z" fill="#1857BD"/>
    <path d="M408.59 390.939L412.5 393.841L412.194 396.509L408.302 393.607L408.59 390.939Z" fill="#C0BFBF"/>
    <path d="M413.959 388.614L417.851 391.516L416.95 391.912L413.059 388.992L413.959 388.614Z" fill="#1857BD"/>
    <path d="M413.059 388.992L416.951 391.912L416.662 394.58L412.752 391.678L413.059 388.992Z" fill="#1857BD"/>
    <path d="M413.96 388.614L417.851 391.516L417.563 394.202L413.653 391.282L413.96 388.614Z" fill="#C0BFBF"/>
    <path d="M419.311 386.289L423.202 389.209L422.302 389.587L418.41 386.685L419.311 386.289Z" fill="#1857BD"/>
    <path d="M418.41 386.685L422.302 389.587L422.013 392.254L418.122 389.352L418.41 386.685Z" fill="#1857BD"/>
    <path d="M419.311 386.289L423.203 389.209L422.914 391.876L419.004 388.956L419.311 386.289Z" fill="#C0BFBF"/>
    <path d="M424.95 381.476L428.842 384.378L427.941 384.774L424.049 381.854L424.95 381.476Z" fill="#1857BD"/>
    <path d="M424.049 381.854L427.941 384.774L427.364 389.947L423.473 387.027L424.049 381.854Z" fill="#1857BD"/>
    <path d="M424.95 381.476L428.842 384.378L428.265 389.551L424.355 386.649L424.95 381.476Z" fill="#C0BFBF"/>
    <path d="M430.013 381.656L433.923 384.558L433.022 384.954L429.13 382.034L430.013 381.656Z" fill="#1857BD"/>
    <path d="M429.131 382.034L433.022 384.954L432.716 387.622L428.824 384.72L429.131 382.034Z" fill="#1857BD"/>
    <path d="M430.013 381.656L433.923 384.558L433.617 387.226L429.725 384.324L430.013 381.656Z" fill="#C0BFBF"/>
    <path d="M435.365 379.331L439.275 382.251L438.374 382.629L434.482 379.727L435.365 379.331Z" fill="#1857BD"/>
    <path d="M434.482 379.727L438.373 382.629L438.067 385.297L434.175 382.395L434.482 379.727Z" fill="#1857BD"/>
    <path d="M435.364 379.331L439.274 382.251L438.968 384.918L435.076 381.998L435.364 379.331Z" fill="#C0BFBF"/>
    <path d="M440.716 377.023L444.608 379.925L443.725 380.322L439.815 377.402L440.716 377.023Z" fill="#1857BD"/>
    <path d="M439.815 377.402L443.725 380.322L443.418 382.99L439.526 380.07L439.815 377.402Z" fill="#1857BD"/>
    <path d="M440.716 377.023L444.608 379.926L444.32 382.593L440.428 379.691L440.716 377.023Z" fill="#C0BFBF"/>
    <path d="M446.355 372.192L450.265 375.112L449.346 375.491L445.455 372.589L446.355 372.192Z" fill="#1857BD"/>
    <path d="M445.454 372.589L449.346 375.491L448.77 380.665L444.878 377.763L445.454 372.589Z" fill="#1857BD"/>
    <path d="M446.355 372.192L450.265 375.112L449.671 380.268L445.779 377.366L446.355 372.192Z" fill="#C0BFBF"/>
    <path d="M451.437 372.373L455.328 375.293L454.428 375.671L450.536 372.769L451.437 372.373Z" fill="#1857BD"/>
    <path d="M450.536 372.77L454.428 375.672L454.139 378.339L450.229 375.437L450.536 372.77Z" fill="#1857BD"/>
    <path d="M451.437 372.373L455.329 375.293L455.022 377.96L451.13 375.04L451.437 372.373Z" fill="#C0BFBF"/>
    <path d="M456.788 370.066L460.679 372.968L459.779 373.347L455.887 370.444L456.788 370.066Z" fill="#1857BD"/>
    <path d="M455.887 370.444L459.779 373.346L459.49 376.032L455.581 373.112L455.887 370.444Z" fill="#1857BD"/>
    <path d="M456.788 370.066L460.68 372.968L460.373 375.636L456.481 372.734L456.788 370.066Z" fill="#C0BFBF"/>
    <path d="M462.139 367.74L466.049 370.642L465.13 371.039L461.238 368.119L462.139 367.74Z" fill="#1857BD"/>
    <path d="M461.238 368.119L465.13 371.039L464.841 373.707L460.932 370.805L461.238 368.119Z" fill="#1857BD"/>
    <path d="M462.139 367.74L466.049 370.642L465.742 373.31L461.851 370.408L462.139 367.74Z" fill="#C0BFBF"/>
    <path d="M471.562 366.19L461.851 370.408L460.932 370.805L456.481 372.734L455.581 373.112L451.13 375.041L450.229 375.437L445.779 377.366L444.878 377.763L440.428 379.691L439.527 380.07L435.076 381.998L434.175 382.395L429.725 384.324L428.824 384.72L424.356 386.649L423.473 387.028L419.004 388.956L418.121 389.353L413.653 391.281L412.752 391.678L408.302 393.607L407.401 394.003L402.95 395.932L402.05 396.31L395.095 399.321L398.987 402.241L405.941 399.231L406.842 398.834L411.185 396.959L412.194 396.509L416.266 394.76L417.563 394.202L422.013 392.255L422.914 391.876L427.365 389.948L428.266 389.551L432.374 387.767L433.617 387.226L438.067 385.297L438.968 384.919L443.419 382.99L443.941 382.756L444.139 382.683L444.319 382.593L448.427 380.809L449.671 380.268L453.545 378.61L455.022 377.961L459.49 376.032L460.373 375.636L464.842 373.707L465.743 373.31L475.454 369.11L471.562 366.19Z" fill="#DBA156"/>
    <path d="M471.562 366.19L461.851 370.408L462.139 367.74L461.238 368.119L460.932 370.805L456.481 372.733L456.788 370.048L455.887 370.444L455.581 373.112L451.13 375.041L451.436 372.373L450.536 372.769L450.229 375.437L445.779 377.366L446.355 372.193L445.455 372.589L444.878 377.762L440.41 379.691L440.716 377.023L439.815 377.402L439.527 380.07L435.076 381.998L435.383 379.331L434.482 379.727L434.175 382.395L429.725 384.324L430.013 381.656L429.13 382.034L428.824 384.702L424.356 386.739L424.95 381.566L424.049 381.962L423.473 387.117L419.004 389.046L419.311 386.378L418.41 386.775L418.103 389.443L413.653 391.371L413.959 388.704L413.058 389.082L412.752 391.768L408.302 393.697L408.59 391.029L407.707 391.407L407.401 394.075L402.95 396.022L403.527 390.849L402.626 391.227L402.05 396.4L395.095 399.357L395.563 395.157L400.969 392.849L401.077 391.894L395.671 394.201L396.212 389.389L399.203 388.091L399.311 387.117L396.32 388.415L396.86 383.603L399.851 382.305L399.996 381.331L397.005 382.629L397.545 377.816L400.536 376.519L400.644 375.563L397.653 376.861L398.194 372.048L403.599 369.741V368.714L398.194 371.021L398.734 366.226L401.725 364.928L401.833 363.955L398.842 365.253L399.383 360.458L402.374 359.16L402.482 358.187L399.491 359.485L400.032 354.69L403.023 353.392L403.131 352.419L400.14 353.717L400.68 348.904L406.086 346.597L406.212 345.641L400.806 347.949L401.347 343.136L404.338 341.838L404.464 340.883L401.455 342.181L401.996 337.368L405.005 336.07L405.113 335.097L402.104 336.395L402.644 331.582L405.653 330.284L405.761 329.329L402.752 330.626L403.293 325.814L408.698 323.507L408.806 322.551L403.401 324.858L403.941 320.064L406.95 318.766L407.059 317.793L404.05 319.09L404.59 314.278L407.599 312.98L407.707 312.006L404.698 313.304L405.239 308.51L408.248 307.212L408.356 306.238L405.365 307.536L405.887 302.742L411.293 300.434L411.401 299.461L406.086 301.768L407.347 290.502L471.562 366.19ZM407.203 383.134L451.238 364.063L414.248 320.496L407.203 383.134Z" fill="#FECA7A"/>
    <path d="M407.329 290.539L411.221 293.459L475.454 369.11L471.563 366.19L407.329 290.539Z" fill="#DBA156"/>
    <path d="M295.006 325.453L339.744 274.784C340.62 273.796 341.214 272.59 341.464 271.293C341.714 269.996 341.612 268.656 341.167 267.412L328.411 231.253L188.25 280.751L201.007 316.927C201.446 318.174 202.211 319.281 203.221 320.133C204.232 320.986 205.452 321.553 206.754 321.776L273.42 333.114C277.372 333.778 281.429 333.423 285.206 332.083C288.983 330.743 292.356 328.461 295.006 325.453Z" fill="#2E77C3"/>
    <path d="M155.476 270.206L157.133 274.857L272.718 296.757L271.06 292.107L155.476 270.206Z" fill="#114E96"/>
    <path d="M271.06 292.107L272.718 296.757L349.582 206.901L347.924 202.251L271.06 292.107Z" fill="#114E96"/>
    <path d="M155.476 270.206L271.06 292.107L347.924 202.251L232.34 180.351L155.476 270.206Z" fill="#2E77C3"/>
    <path d="M329.978 289.511L320.789 274.099C321.067 273.538 321.112 272.891 320.915 272.297C320.762 271.864 320.489 271.484 320.129 271.201C319.769 270.917 319.335 270.741 318.879 270.692L311.114 248.684L258.141 237.418C258.332 236.324 258.233 235.199 257.853 234.155C257.423 232.939 256.643 231.877 255.61 231.104C254.577 230.331 253.339 229.882 252.051 229.813C250.763 229.744 249.483 230.059 248.374 230.718C247.265 231.376 246.376 232.349 245.819 233.513C245.263 234.677 245.064 235.98 245.247 237.257C245.431 238.534 245.988 239.729 246.85 240.689C247.712 241.649 248.839 242.332 250.089 242.651C251.338 242.97 252.655 242.912 253.871 242.483C255.42 241.96 256.709 240.863 257.475 239.419L309.564 250.504L316.898 271.377C316.577 271.703 316.354 272.112 316.252 272.557C316.15 273.003 316.174 273.468 316.321 273.901C316.429 274.209 316.601 274.492 316.824 274.731C317.047 274.97 317.318 275.16 317.618 275.289L320.97 292.773L329.978 289.511Z" fill="#FF7D6C"/>
    <path d="M689.164 220.06L711.127 212.85C711.996 212.567 712.783 212.08 713.424 211.428C714.064 210.777 714.538 209.982 714.807 209.109C715.075 208.236 715.13 207.311 714.966 206.412C714.803 205.513 714.425 204.667 713.866 203.945L674.677 153.475L669.272 136.711L670.047 133.791C670.168 133.353 670.168 132.889 670.044 132.451C669.921 132.013 669.68 131.618 669.347 131.307C669.015 130.997 668.603 130.784 668.158 130.691C667.713 130.598 667.25 130.629 666.822 130.781L660.822 132.728L654.822 134.675C654.394 134.812 654.012 135.063 653.716 135.401C653.42 135.738 653.221 136.15 653.139 136.592C653.058 137.033 653.098 137.489 653.254 137.91C653.411 138.331 653.679 138.702 654.029 138.983L656.353 140.893L661.759 157.657L659.705 221.574C659.678 222.488 659.871 223.395 660.267 224.219C660.664 225.043 661.252 225.76 661.983 226.309C662.714 226.858 663.566 227.224 664.468 227.376C665.369 227.527 666.294 227.46 667.164 227.18L689.164 220.06Z" fill="#2E77C3"/>
    <path d="M679.146 165.263L665.092 169.824L663.435 221.718C663.42 222.038 663.485 222.357 663.623 222.647C663.761 222.936 663.969 223.187 664.227 223.376C664.481 223.568 664.777 223.696 665.091 223.75C665.405 223.803 665.726 223.78 666.029 223.683L709.975 209.407C710.283 209.312 710.563 209.142 710.789 208.913C711.016 208.683 711.182 208.401 711.272 208.091C711.364 207.785 711.381 207.462 711.322 207.148C711.262 206.834 711.128 206.539 710.93 206.289L679.146 165.263Z" fill="#3EBFB4"/>
    <g style="mix-blend-mode:multiply">
        <g style="mix-blend-mode:multiply">
            <path d="M713.866 204.017L674.677 153.547L669.272 136.783L670.047 133.863C670.186 133.42 670.199 132.947 670.083 132.497C669.967 132.048 669.728 131.639 669.392 131.319C669.057 130.998 668.638 130.778 668.184 130.683C667.729 130.588 667.258 130.622 666.822 130.781L660.822 132.728L689.164 220.042L711.127 212.832C711.981 212.544 712.754 212.058 713.383 211.414C714.013 210.769 714.48 209.985 714.747 209.124C715.015 208.264 715.074 207.352 714.921 206.465C714.768 205.577 714.406 204.738 713.866 204.017Z" fill="#F1F2F2"/>
        </g>
    </g>
</svg>
