<svg width="255" height="248" viewBox="0 0 255 248" fill="none" xmlns="http://www.w3.org/2000/svg">
    <g clip-path="url(#clip0)">
        <path d="M77.7968 65.6436L69.0167 77.4372L57.2804 93.3676L48.5966 105.284C46.2847 103.584 44.3313 101.444 42.8486 98.9875C41.3659 96.5309 40.3831 93.8059 39.9567 90.9689C39.5304 88.1319 39.6688 85.2388 40.3641 82.4559C41.0594 79.673 42.2978 77.0551 44.0083 74.7525L47.3106 70.2479C50.7424 65.5972 55.8814 62.4999 61.5979 61.6365C67.3145 60.7731 73.1409 62.2144 77.7968 65.6436Z" fill="#0083CA"/>
        <path d="M69.0163 77.4368L81.9147 86.9206C79.6008 89.2833 77.4536 91.8036 75.4886 94.4635C73.5094 97.133 71.7297 99.9448 70.1639 102.876L57.28 93.3672L69.0163 77.4368Z" fill="#0074B3"/>
        <path d="M100.621 52.2081L115.11 50.2558L134.741 47.732L149.216 45.8047C148.472 40.0748 145.485 34.8733 140.909 31.3424C136.333 27.8116 130.543 26.24 124.811 26.9728L119.247 27.7003C113.529 28.489 108.359 31.5113 104.868 36.1049C101.376 40.6986 99.8492 46.4892 100.621 52.2081Z" fill="#0083CA"/>
        <path d="M115.24 50.2639L117.296 66.1436C120.478 65.2568 123.718 64.5946 126.993 64.1619C130.279 63.748 133.59 63.562 136.902 63.6053L134.87 47.7401L115.24 50.2639Z" fill="#0074B3"/>
        <path d="M209.523 149.943C210.951 151.039 212.149 152.406 213.048 153.965C213.947 155.524 214.53 157.246 214.763 159.03C214.996 160.815 214.874 162.628 214.405 164.365C213.935 166.102 213.128 167.729 212.028 169.154C210.961 170.563 209.621 171.743 208.088 172.622C205.74 173.997 203.035 174.64 200.319 174.47C197.602 174.299 194.998 173.323 192.839 171.665L182.16 163.43C187.778 155.806 191.73 147.087 193.762 137.838L209.523 149.943Z" fill="#0074B3"/>
        <path d="M101.157 59.2631C112.752 54.5789 125.409 53.1558 137.758 55.1477C150.107 57.1397 161.676 62.4708 171.214 70.5639C180.752 78.6569 187.895 89.2036 191.87 101.062C195.844 112.92 196.498 125.638 193.762 137.839C191.709 147.032 187.783 155.702 182.228 163.308C176.672 170.913 169.608 177.292 161.475 182.044C153.342 186.796 144.315 189.821 134.959 190.928C125.603 192.035 116.119 191.202 107.098 188.48C95.1255 184.866 84.3676 178.05 75.9874 168.768C67.6073 159.486 61.9239 148.091 59.5518 135.815C57.1797 123.539 58.2091 110.85 62.5288 99.1197C66.8485 87.3893 74.294 77.064 84.0603 69.2603C86.6445 67.2032 89.3812 65.3451 92.2469 63.7022C95.1045 62.0069 98.0825 60.5233 101.157 59.2631Z" fill="#0083CA"/>
        <path d="M135.129 190.905L137.038 204.262C137.446 207.385 136.763 210.552 135.106 213.229C133.45 215.906 130.92 217.929 127.943 218.957C124.967 219.985 121.726 219.955 118.769 218.872C115.811 217.789 113.317 215.72 111.708 213.012C110.818 211.517 110.217 209.868 109.938 208.15L107.098 188.479C116.171 191.234 125.719 192.06 135.129 190.905Z" fill="#0074B3"/>
        <path d="M164.298 80.841C141.093 60.1696 105.527 62.2129 84.8603 85.4047C64.1934 108.597 66.2511 144.155 89.4563 164.826C112.662 185.497 148.227 183.454 168.894 160.262C189.561 137.07 187.503 101.512 164.298 80.841Z" fill="#F9FBFC"/>
        <path d="M100.34 79.8434L107.221 91.6035L109.268 90.4067L102.387 78.6466L100.34 79.8434Z" fill="#3A4D57"/>
        <path d="M144.477 155.301L151.355 167.062L153.403 165.866L146.525 154.105L144.477 155.301Z" fill="#3A4D57"/>
        <path d="M82.6284 147.334L83.8259 149.382L95.5872 142.509L94.3896 140.462L82.6284 147.334Z" fill="#3A4D57"/>
        <path d="M158.113 103.224L159.311 105.271L171.072 98.3991L169.874 96.3515L158.113 103.224Z" fill="#3A4D57"/>
        <path d="M78.2944 108.884L77.6929 111.178L90.8726 114.637L91.4741 112.343L78.2944 108.884Z" fill="#3A4D57"/>
        <path d="M162.856 131.096L162.254 133.39L175.434 136.849L176.036 134.555L162.856 131.096Z" fill="#3A4D57"/>
        <path d="M116.353 158.245L112.898 171.42L115.193 172.022L118.648 158.847L116.353 158.245Z" fill="#3A4D57"/>
        <path d="M138.511 73.6957L135.056 86.8711L137.35 87.4733L140.805 74.2979L138.511 73.6957Z" fill="#3A4D57"/>
        <path d="M148.104 130.879L125.302 124.893L108.054 95.4011L112.176 93.0061L128.438 120.793L149.326 126.275L148.104 130.879Z" fill="#3A4D57"/>
        <path d="M131.782 119.919C132.342 120.877 132.605 121.979 132.539 123.085C132.473 124.192 132.08 125.254 131.41 126.138C130.741 127.022 129.824 127.687 128.776 128.05C127.729 128.413 126.597 128.458 125.523 128.178C124.45 127.898 123.484 127.307 122.746 126.479C122.008 125.65 121.533 124.622 121.379 123.524C121.225 122.426 121.4 121.307 121.882 120.308C122.364 119.31 123.131 118.477 124.087 117.914C124.723 117.539 125.427 117.294 126.159 117.192C126.891 117.09 127.635 117.133 128.35 117.319C129.065 117.506 129.736 117.831 130.325 118.277C130.914 118.723 131.409 119.281 131.782 119.919Z" fill="#3A4D57"/>
    </g>
    <defs>
        <clipPath id="clip0">
            <rect width="174" height="193" fill="white" transform="translate(0 150.688) rotate(-60)"/>
        </clipPath>
    </defs>
</svg>
