<svg width="143" height="193" viewBox="0 0 143 193" fill="none" xmlns="http://www.w3.org/2000/svg">
    <g clip-path="url(#clip0)">
        <path d="M81.549 24.8518L66.9454 23.1448L47.2811 20.946L32.6196 19.3838C32.9358 16.5316 33.8121 13.77 35.1982 11.2577C36.5843 8.74534 38.4529 6.53173 40.6967 4.74399C42.9404 2.95625 45.5151 1.62963 48.2728 0.840306C51.0305 0.0509857 53.9169 -0.185472 56.7662 0.144515L62.3185 0.75207C68.062 1.39884 73.3139 4.3006 76.9198 8.81961C80.5258 13.3386 82.1908 19.1051 81.549 24.8518Z" fill="#0083CA"/>
        <path d="M66.9452 23.1446L65.1812 39.0567C61.9781 38.2342 58.7218 37.6349 55.4359 37.263C52.1344 36.8838 48.8094 36.7484 45.488 36.858L47.281 20.9458L66.9452 23.1446Z" fill="#0074B3"/>
        <path d="M104.596 37.8997L113.532 49.4721L125.533 65.2107L134.44 76.7832C139.03 73.2739 142.041 68.0856 142.811 62.3574C143.581 56.6293 142.047 50.8296 138.546 46.2318L135.134 41.7764C131.592 37.2195 126.39 34.2528 120.666 33.5262C114.942 32.7995 109.164 34.3722 104.596 37.8997Z" fill="#0083CA"/>
        <path d="M113.59 49.5884L100.866 59.3093C103.225 61.6212 105.418 64.0961 107.43 66.7156C109.432 69.3546 111.248 72.129 112.867 75.0189L125.591 65.327L113.59 49.5884Z" fill="#0074B3"/>
        <path d="M74.4062 181.08C74.1712 182.865 73.5865 184.586 72.6856 186.144C71.7848 187.702 70.5854 189.068 69.1563 190.161C67.7272 191.255 66.0964 192.056 64.3573 192.518C62.6183 192.981 60.8051 193.095 59.0218 192.855C57.268 192.636 55.5764 192.065 54.0479 191.177C51.6833 189.831 49.7736 187.81 48.5631 185.372C47.3525 182.935 46.8961 180.191 47.2522 177.493L49.0451 164.126C58.4559 165.18 67.9828 164.243 77.0089 161.378L74.4062 181.08Z" fill="#0074B3"/>
        <path d="M98.755 41.8917C108.609 49.5913 116.17 59.8411 120.619 71.5314C125.069 83.2216 126.237 95.9069 123.997 108.214C121.757 120.52 116.195 131.979 107.912 141.35C99.63 150.721 88.943 157.647 77.0086 161.378C68.0214 164.197 58.5497 165.131 49.1852 164.123C39.8206 163.115 30.7645 160.186 22.5823 155.519C14.4002 150.852 7.26793 144.547 1.63099 136.998C-4.00595 129.449 -8.02644 120.818 -10.1793 111.645C-13.0365 99.4699 -12.5125 86.7451 -8.66383 74.8466C-4.81521 62.9481 2.21152 52.3286 11.6565 44.1364C21.1015 35.9443 32.6053 30.4912 44.924 28.3669C57.2427 26.2427 69.9075 27.5281 81.5488 32.084C84.6224 33.2935 87.5999 34.7346 90.4555 36.3948C93.3525 38.0219 96.1264 39.8592 98.755 41.8917Z" fill="#0083CA"/>
        <path d="M1.73494 137.133L-8.87799 145.466C-11.3782 147.38 -14.462 148.372 -17.6088 148.276C-20.7556 148.18 -23.7729 147 -26.1515 144.937C-28.5301 142.873 -30.1243 140.052 -30.6652 136.949C-31.2061 133.846 -30.6606 130.652 -29.1206 127.904C-28.2713 126.386 -27.143 125.041 -25.7951 123.941L-10.1793 111.645C-8.02869 120.88 -3.9703 129.562 1.73494 137.133Z" fill="#0074B3"/>
        <path d="M111.639 107.363C117.938 76.9307 98.3856 47.1518 67.9674 40.8496C37.5492 34.5474 7.78382 54.1085 1.48451 84.5405C-4.81479 114.973 14.7374 144.751 45.1556 151.054C75.5738 157.356 105.339 137.795 111.639 107.363Z" fill="#F9FBFC"/>
        <path d="M80.523 51.4751L73.7788 63.314L75.839 64.4887L82.5832 52.6498L80.523 51.4751Z" fill="#3A4D57"/>
        <path d="M37.2431 127.427L30.4968 139.265L32.5568 140.44L39.3031 128.603L37.2431 127.427Z" fill="#3A4D57"/>
        <path d="M13.2185 69.8815L12.0439 71.9424L23.8762 78.6917L25.0508 76.6308L13.2185 69.8815Z" fill="#3A4D57"/>
        <path d="M89.1616 113.198L87.9871 115.259L99.8193 122.008L100.994 119.947L89.1616 113.198Z" fill="#3A4D57"/>
        <path d="M44.3507 46.9028L42.0635 47.5288L45.6575 60.6724L47.9448 60.0464L44.3507 46.9028Z" fill="#3A4D57"/>
        <path d="M67.3954 131.241L65.1082 131.867L68.7022 145.011L70.9894 144.385L67.3954 131.241Z" fill="#3A4D57"/>
        <path d="M20.6328 104.543L7.49512 108.139L8.12083 110.427L21.2585 106.831L20.6328 104.543Z" fill="#3A4D57"/>
        <path d="M104.932 81.4575L91.7944 85.0532L92.4202 87.3415L105.558 83.7458L104.932 81.4575Z" fill="#3A4D57"/>
        <path d="M60.2074 118.357L53.99 95.6175L70.9071 65.9341L75.0423 68.3064L59.1085 96.2829L64.8054 117.113L60.2074 118.357Z" fill="#3A4D57"/>
        <path d="M61.5374 98.7417C60.988 99.7051 60.1656 100.484 59.174 100.98C58.1824 101.476 57.0661 101.667 55.9661 101.529C54.866 101.391 53.8315 100.93 52.9932 100.204C52.1549 99.4784 51.5504 98.5203 51.2559 97.4509C50.9615 96.3816 50.9903 95.2489 51.3388 94.196C51.6874 93.143 52.3399 92.217 53.2141 91.5348C54.0883 90.8526 55.1449 90.4448 56.2506 90.363C57.3562 90.2811 58.4613 90.5288 59.4264 91.0749C60.0692 91.4386 60.6339 91.9257 61.0881 92.5083C61.5423 93.0909 61.8771 93.7574 62.0732 94.4697C62.2693 95.182 62.323 95.926 62.231 96.6591C62.1391 97.3922 61.9033 98.0999 61.5374 98.7417Z" fill="#3A4D57"/>
    </g>
    <defs>
        <clipPath id="clip0">
            <rect width="174" height="193" fill="white" transform="translate(-31)"/>
        </clipPath>
    </defs>
</svg>
