<svg width="613" height="565" viewBox="0 0 613 565" fill="none" xmlns="http://www.w3.org/2000/svg">
    <path d="M436.215 450.641L426.37 449.549L413.112 448.066L403.267 446.955C403.707 443.083 405.664 439.544 408.708 437.113C411.752 434.681 415.635 433.557 419.507 433.984L423.25 434.413C425.168 434.624 427.025 435.212 428.715 436.142C430.405 437.073 431.895 438.327 433.1 439.835C434.304 441.343 435.199 443.073 435.734 444.927C436.269 446.782 436.432 448.723 436.215 450.641Z" fill="#0083CA"/>
    <path d="M426.35 449.549L425.161 460.276C420.838 459.134 416.371 458.634 411.903 458.794L413.093 448.066L426.35 449.549Z" fill="#0074B3"/>
    <path d="M451.812 459.437L457.837 467.239L465.928 477.849L471.933 485.651C475.028 483.285 477.057 479.787 477.576 475.926C478.095 472.064 477.061 468.154 474.701 465.054L472.401 462.051C470.016 458.974 466.508 456.971 462.647 456.481C458.787 455.99 454.89 457.054 451.812 459.437Z" fill="#0083CA"/>
    <path d="M457.759 467.317L449.18 473.87C450.786 475.421 452.266 477.097 453.606 478.883C454.966 480.654 456.192 482.525 457.271 484.481L465.85 477.927L457.759 467.317Z" fill="#0074B3"/>
    <path d="M431.38 555.984C431.222 557.187 430.827 558.347 430.22 559.398C429.613 560.448 428.804 561.369 427.84 562.106C426.877 562.843 425.778 563.383 424.605 563.695C423.433 564.007 422.21 564.084 421.008 563.922C419.834 563.765 418.701 563.381 417.674 562.791C416.075 561.883 414.782 560.518 413.963 558.871C413.143 557.224 412.833 555.37 413.073 553.546L414.282 544.554C420.626 545.255 427.048 544.624 433.135 542.701L431.38 555.984Z" fill="#0074B3"/>
    <path d="M447.796 462.148C457.008 469.341 463.157 479.756 465.006 491.3C466.854 502.843 464.266 514.659 457.762 524.371C451.257 534.083 441.319 540.971 429.944 543.651C418.57 546.331 406.603 544.604 396.449 538.817C386.296 533.03 378.709 523.612 375.214 512.456C371.719 501.301 372.575 489.235 377.61 478.686C382.645 468.136 391.485 459.884 402.354 455.59C413.223 451.295 425.314 451.276 436.196 455.536C438.281 456.343 440.302 457.308 442.24 458.423C444.18 459.528 446.037 460.773 447.796 462.148Z" fill="#0083CA"/>
    <path d="M382.386 526.356L375.25 531.974C373.561 533.24 371.489 533.89 369.379 533.815C367.269 533.74 365.248 532.944 363.653 531.561C362.058 530.177 360.985 528.289 360.612 526.21C360.239 524.131 360.588 521.987 361.603 520.134C362.193 519.1 362.973 518.187 363.903 517.443L374.431 509.173C375.861 515.391 378.57 521.243 382.386 526.356Z" fill="#0074B3"/>
    <path d="M456.419 506.221C460.666 485.705 447.484 465.629 426.976 461.38C406.468 457.132 386.401 470.319 382.154 490.835C377.907 511.351 391.089 531.427 411.597 535.676C432.104 539.925 452.172 526.737 456.419 506.221Z" fill="#F9FBFC"/>
    <path d="M435.461 468.543L430.914 476.524L432.303 477.316L436.85 469.335L435.461 468.543Z" fill="#3A4D57"/>
    <path d="M406.302 519.762L401.753 527.743L403.142 528.535L407.69 520.554L406.302 519.762Z" fill="#3A4D57"/>
    <path d="M390.134 480.97L389.342 482.359L397.319 486.909L398.111 485.52L390.134 480.97Z" fill="#3A4D57"/>
    <path d="M441.305 510.169L440.513 511.559L448.49 516.109L449.282 514.719L441.305 510.169Z" fill="#3A4D57"/>
    <path d="M411.096 465.58L409.554 466.002L411.977 474.863L413.519 474.441L411.096 465.58Z" fill="#3A4D57"/>
    <path d="M426.652 522.438L425.11 522.86L427.533 531.721L429.075 531.299L426.652 522.438Z" fill="#3A4D57"/>
    <path d="M395.125 504.419L386.268 506.843L386.689 508.386L395.547 505.962L395.125 504.419Z" fill="#3A4D57"/>
    <path d="M451.959 488.857L443.102 491.281L443.523 492.823L452.381 490.399L451.959 488.857Z" fill="#3A4D57"/>
    <path d="M421.807 513.698L417.616 498.368L429.021 478.356L431.809 479.936L421.067 498.797L424.907 512.84L421.807 513.698Z" fill="#3A4D57"/>
    <path d="M422.568 500.455C422.195 501.104 421.639 501.627 420.97 501.96C420.3 502.293 419.547 502.42 418.805 502.324C418.063 502.229 417.366 501.916 416.803 501.424C416.239 500.933 415.833 500.285 415.637 499.563C415.441 498.841 415.463 498.078 415.701 497.368C415.939 496.659 416.381 496.036 416.973 495.579C417.564 495.121 418.278 494.849 419.024 494.797C419.77 494.745 420.515 494.915 421.164 495.286C422.032 495.788 422.666 496.613 422.929 497.581C423.192 498.549 423.062 499.582 422.568 500.455Z" fill="#3A4D57"/>
    <path d="M337.719 201.98C337.504 201.057 337.108 200.185 336.555 199.415C336.002 198.645 335.302 197.993 334.496 197.494C333.689 196.996 332.793 196.662 331.857 196.511C330.921 196.36 329.965 196.396 329.043 196.616L238.639 217.817L257.277 297.356L340.683 277.852L347.701 276.194L354.72 274.555L337.719 201.98Z" fill="#FA9887"/>
    <path d="M337.466 201.141C336.853 199.492 335.658 198.124 334.107 197.294C332.556 196.464 330.755 196.23 329.044 196.636L238.639 217.837C236.924 218.237 235.416 219.251 234.399 220.689C233.382 222.127 232.928 223.888 233.121 225.638L337.466 201.141Z" fill="#F47D6E"/>
    <path d="M250.259 299.014L233.258 226.497C233.041 225.573 233.008 224.616 233.161 223.68C233.314 222.744 233.65 221.847 234.15 221.041C234.65 220.235 235.303 219.535 236.074 218.982C236.844 218.429 237.716 218.033 238.639 217.817C240.503 217.384 242.462 217.707 244.088 218.716C245.714 219.725 246.875 221.337 247.315 223.2L264.316 295.718L250.259 299.014Z" fill="#F47D6E"/>
    <path d="M234.895 226.126C234.729 225.418 234.704 224.684 234.821 223.966C234.938 223.248 235.195 222.56 235.578 221.941C235.961 221.323 236.462 220.786 237.052 220.361C237.643 219.936 238.311 219.632 239.019 219.465C239.727 219.299 240.461 219.273 241.178 219.39C241.896 219.508 242.584 219.765 243.202 220.148C243.82 220.531 244.357 221.032 244.782 221.623C245.206 222.214 245.511 222.882 245.677 223.59L262.697 296.088L251.916 298.624L234.895 226.126Z" fill="#F9F8F7"/>
    <path d="M329.431 261.216L319.325 218.111L307.215 220.953L317.321 264.058L329.431 261.216Z" fill="#F47D6E"/>
    <path d="M276.797 228.072L275.62 228.348L285.719 271.455L286.896 271.179L276.797 228.072Z" fill="#F47D6E"/>
    <path d="M267.372 230.285L266.195 230.561L276.293 273.668L277.47 273.392L267.372 230.285Z" fill="#F47D6E"/>
    <path d="M263.497 102.839C267.396 105.57 270.028 111.031 268.566 113.059C267.103 115.088 261.079 114.308 257.258 111.577C253.437 108.846 250.727 103.385 252.189 101.357C253.651 99.3282 259.675 100.108 263.497 102.839Z" fill="#CD5458"/>
    <path d="M255.113 127.025L230.528 161.489C229.854 162.323 228.996 162.99 228.023 163.44C227.049 163.89 225.985 164.11 224.913 164.083L223.607 163.947C222.55 163.802 221.549 163.385 220.702 162.737C219.819 162.139 219.101 161.327 218.616 160.377L218.07 159.168C217.688 158.17 217.543 157.097 217.648 156.034C217.753 154.971 218.104 153.947 218.675 153.044L243.201 118.599C241.661 120.764 243.669 124.704 246.398 126.674C249.128 128.644 253.573 129.248 255.113 127.025Z" fill="#F24C88"/>
    <path d="M251.916 119.028C254.665 120.978 256.653 124.879 255.113 127.083C253.573 129.287 249.264 128.624 246.457 126.674C243.649 124.723 241.719 120.822 243.259 118.599C244.8 116.375 249.186 117.077 251.916 119.028Z" fill="#FC7EB2"/>
    <path d="M230.528 161.489L255.113 127.024C256.654 124.879 254.665 120.939 251.916 118.969C249.167 116.999 244.8 116.395 243.26 118.54L218.675 153.004C218.105 153.908 217.753 154.932 217.648 155.995C217.543 157.058 217.688 158.131 218.07 159.129L218.616 160.338C219.101 161.288 219.819 162.1 220.702 162.698C221.55 163.346 222.551 163.762 223.607 163.907L224.913 164.044C225.982 164.075 227.044 163.861 228.018 163.418C228.991 162.975 229.85 162.315 230.528 161.489ZM231.367 162.093C230.583 163.067 229.583 163.844 228.445 164.363C227.308 164.881 226.065 165.126 224.816 165.077L223.51 164.941C222.276 164.751 221.105 164.275 220.089 163.55C219.073 162.825 218.241 161.872 217.661 160.767L217.115 159.558C216.669 158.387 216.504 157.127 216.632 155.881C216.761 154.634 217.18 153.435 217.856 152.38L249.498 108.144C250.557 110.913 252.402 113.311 254.806 115.044C257.21 116.777 260.069 117.768 263.029 117.896L231.367 162.093Z" fill="#2E77C3"/>
    <path d="M268.546 113.059C270.008 111.109 267.298 105.57 263.477 102.839C259.656 100.109 253.632 99.3089 252.169 101.357C250.707 103.405 253.417 108.847 257.238 111.577C261.06 114.308 267.103 115.107 268.546 113.059ZM264.082 102C268.215 104.946 271.334 110.933 269.385 113.703C267.435 116.473 260.748 115.419 256.634 112.455C252.52 109.49 249.381 103.522 251.331 100.752C253.281 97.9826 259.968 99.0358 264.101 102H264.082Z" fill="#DD6C5E"/>
    <path d="M251.351 100.752C249.401 103.483 252.52 109.47 256.654 112.455C260.787 115.439 267.455 116.355 269.404 113.703L267.455 116.316C266.882 116.929 266.17 117.392 265.378 117.667C264.587 117.943 263.74 118.021 262.912 117.896C259.952 117.768 257.093 116.777 254.689 115.044C252.285 113.311 250.44 110.913 249.381 108.144C248.992 107.401 248.789 106.574 248.789 105.735C248.789 104.896 248.992 104.07 249.381 103.327L251.351 100.752Z" fill="#CD5458"/>
    <path d="M311.633 1.82605L277.047 48.4805C276.436 49.3116 276.18 50.3506 276.334 51.3704C276.487 52.3901 277.038 53.3076 277.866 53.9222L341.209 100.908C342.038 101.521 343.075 101.78 344.094 101.631C345.113 101.481 346.032 100.934 346.649 100.108L381.235 53.4346C381.846 52.6034 382.102 51.5644 381.949 50.5446C381.795 49.5249 381.244 48.6074 380.417 47.9928L317.092 1.00686C316.68 0.701551 316.212 0.48053 315.715 0.35645C315.217 0.23237 314.7 0.207668 314.193 0.283759C313.686 0.359849 313.199 0.535237 312.76 0.799883C312.32 1.06453 311.938 1.41324 311.633 1.82605ZM344.309 93.3405C343.954 93.8213 343.465 94.1861 342.903 94.389C342.342 94.5918 341.732 94.6234 341.152 94.48C340.572 94.3365 340.048 94.0243 339.645 93.5829C339.243 93.1414 338.98 92.5905 338.89 91.9997C338.8 91.4089 338.888 90.8048 339.141 90.2635C339.394 89.7223 339.802 89.2683 340.313 88.9589C340.824 88.6495 341.415 88.4985 342.012 88.525C342.609 88.5516 343.184 88.7544 343.666 89.108C343.986 89.3433 344.257 89.6396 344.463 89.9798C344.669 90.32 344.806 90.6975 344.865 91.0907C344.925 91.4839 344.907 91.885 344.811 92.271C344.716 92.6571 344.545 93.0205 344.309 93.3405ZM335.087 86.5139C334.731 86.9935 334.24 87.3566 333.677 87.5572C333.114 87.7578 332.505 87.787 331.925 87.6411C331.346 87.4952 330.823 87.1807 330.422 86.7374C330.021 86.294 329.76 85.7418 329.673 85.1504C329.586 84.5591 329.676 83.9551 329.932 83.4149C330.188 82.8747 330.598 82.4225 331.111 82.1155C331.623 81.8085 332.215 81.6604 332.812 81.6899C333.409 81.7195 333.984 81.9253 334.464 82.2815C334.783 82.5183 335.052 82.8156 335.256 83.1565C335.46 83.4974 335.595 83.8753 335.652 84.2683C335.71 84.6614 335.69 85.0621 335.593 85.4474C335.496 85.8327 335.325 86.1952 335.087 86.5139ZM325.885 79.6874C325.528 80.167 325.038 80.5301 324.475 80.7307C323.912 80.9313 323.302 80.9605 322.723 80.8146C322.143 80.6686 321.62 80.3541 321.219 79.9108C320.819 79.4675 320.558 78.9153 320.471 78.3239C320.384 77.7325 320.474 77.1286 320.73 76.5884C320.986 76.0482 321.396 75.596 321.908 75.289C322.421 74.9819 323.013 74.8338 323.61 74.8634C324.207 74.8929 324.781 75.0988 325.261 75.455C325.901 75.9363 326.325 76.6506 326.442 77.443C326.559 78.2353 326.359 79.0418 325.885 79.6874ZM316.683 72.8414C316.33 73.325 315.841 73.6928 315.279 73.8983C314.717 74.1038 314.107 74.1377 313.525 73.9957C312.944 73.8536 312.418 73.5421 312.013 73.1005C311.609 72.6589 311.345 72.1072 311.255 71.5154C311.164 70.9235 311.252 70.3181 311.506 69.7759C311.76 69.2338 312.169 68.7793 312.681 68.47C313.194 68.1608 313.787 68.0108 314.384 68.039C314.982 68.0672 315.558 68.2723 316.039 68.6285C316.681 69.1034 317.109 69.8129 317.229 70.6022C317.35 71.3915 317.153 72.1965 316.683 72.8414ZM307.539 66.0149C307.184 66.4905 306.697 66.8504 306.138 67.0491C305.579 67.2478 304.974 67.2765 304.399 67.1314C303.823 66.9864 303.304 66.6741 302.906 66.2341C302.508 65.7941 302.249 65.246 302.162 64.659C302.075 64.072 302.164 63.4724 302.418 62.9359C302.671 62.3993 303.078 61.9499 303.586 61.6442C304.094 61.3386 304.682 61.1905 305.274 61.2185C305.867 61.2466 306.438 61.4496 306.915 61.8019C307.233 62.0369 307.502 62.3325 307.706 62.6718C307.91 63.011 308.044 63.3872 308.102 63.7787C308.16 64.1702 308.141 64.5693 308.044 64.953C307.947 65.3368 307.776 65.6977 307.539 66.0149ZM298.337 59.1883C297.845 59.7881 297.142 60.1759 296.373 60.2717C295.604 60.3675 294.827 60.1639 294.204 59.7031C293.58 59.2422 293.158 58.5593 293.024 57.7955C292.889 57.0318 293.053 56.2456 293.482 55.5995C293.709 55.2581 294.002 54.9664 294.345 54.742C294.688 54.5176 295.073 54.3652 295.476 54.2942C295.88 54.2232 296.293 54.235 296.692 54.3289C297.091 54.4228 297.466 54.5968 297.796 54.8403C298.125 55.0839 298.402 55.3919 298.608 55.7456C298.815 56.0994 298.948 56.4916 298.999 56.8982C299.049 57.3049 299.017 57.7176 298.903 58.1113C298.789 58.505 298.596 58.8714 298.337 59.1883ZM289.134 52.3618C288.778 52.8414 288.287 53.2045 287.724 53.4051C287.161 53.6057 286.552 53.6349 285.972 53.489C285.393 53.343 284.87 53.0285 284.469 52.5852C284.068 52.1419 283.808 51.5897 283.72 50.9983C283.633 50.4069 283.723 49.803 283.979 49.2628C284.235 48.7226 284.645 48.2704 285.158 47.9634C285.67 47.6563 286.262 47.5082 286.859 47.5378C287.456 47.5673 288.031 47.7732 288.511 48.1294C289.138 48.6222 289.547 49.3421 289.65 50.1338C289.752 50.9256 289.539 51.7257 289.056 52.3618H289.134Z" fill="#F9FBFC"/>
    <path d="M314.402 10.6471L291.164 41.9958L293.09 43.4249L316.328 12.0761L314.402 10.6471Z" fill="#A5B7C6"/>
    <path d="M323.361 17.2754L300.123 48.6241L302.049 50.0532L325.287 18.7044L323.361 17.2754Z" fill="#A5B7C6"/>
    <path d="M332.289 23.9193L309.051 55.2681L310.977 56.6971L334.215 25.3483L332.289 23.9193Z" fill="#A5B7C6"/>
    <path d="M341.229 30.5285L317.99 61.8772L319.916 63.3062L343.155 31.9575L341.229 30.5285Z" fill="#A5B7C6"/>
    <path d="M350.176 37.1723L326.938 68.5211L328.864 69.9501L352.102 38.6014L350.176 37.1723Z" fill="#A5B7C6"/>
    <path d="M359.115 43.8008L335.876 75.1495L337.803 76.5786L361.041 45.2298L359.115 43.8008Z" fill="#A5B7C6"/>
    <path d="M368.042 50.4446L344.804 81.7933L346.73 83.2224L369.969 51.8736L368.042 50.4446Z" fill="#A5B7C6"/>
    <path d="M86.1186 151.346C85.518 151.491 84.9516 151.752 84.452 152.115C83.9524 152.479 83.5293 152.937 83.207 153.464C82.8847 153.992 82.6694 154.577 82.5735 155.188C82.4777 155.798 82.5031 156.422 82.6483 157.022L83.7206 161.489L86.4501 172.899L100.877 233.206L107.038 242.178L110.684 249.746L110.509 241.359L111.932 230.554L97.4265 170.246L94.6776 158.817L93.6832 154.331C93.3873 153.124 92.6276 152.083 91.5692 151.433C90.5107 150.783 89.2388 150.577 88.0293 150.859L86.1186 151.346Z" fill="#EEE2D2"/>
    <path d="M82.6483 157.022C82.5031 156.421 82.4777 155.798 82.5735 155.187C82.6694 154.577 82.8847 153.991 83.207 153.464C83.5293 152.937 83.9524 152.479 84.452 152.115C84.9516 151.752 85.518 151.49 86.1186 151.346L88.0683 150.878C89.2778 150.596 90.5497 150.802 91.6082 151.452C92.6666 152.102 93.4263 153.143 93.7222 154.35L94.7946 158.816L93.1764 159.226L90.5248 159.87L87.8928 160.494L85.2608 161.118L83.7596 161.489L82.6483 157.022Z" fill="#FA6564"/>
    <path d="M85.2118 161.115L83.7139 161.473L86.4438 172.893L87.9418 172.534L85.2118 161.115Z" fill="#F79663"/>
    <path d="M87.854 160.494L90.486 159.85L93.235 171.26L91.9872 171.573L90.603 171.904L87.854 160.494Z" fill="#F79663"/>
    <path d="M93.1372 159.226L94.7554 158.817L97.5044 170.246L95.8667 170.617L93.1372 159.226Z" fill="#F79663"/>
    <path d="M93.1266 159.222L90.4917 159.856L93.231 171.253L95.8659 170.62L93.1266 159.222Z" fill="#FECA7A"/>
    <path d="M87.9094 160.483L85.2712 161.103L87.9553 172.533L90.5935 171.913L87.9094 160.483Z" fill="#FECA7A"/>
    <path d="M86.4502 172.899L87.9709 172.548L90.6029 171.904L91.9872 171.572L106.473 231.88L100.955 233.206L86.4502 172.899Z" fill="#FECA7A"/>
    <path d="M91.9868 171.573L93.2346 171.261L95.8666 170.617L97.5043 170.246L112.01 230.554L106.473 231.88L91.9868 171.573Z" fill="#FC8B60"/>
    <path d="M110.762 249.746L107.116 242.178L110.587 241.339L110.762 249.746Z" fill="#1857BD"/>
    <path d="M100.955 233.206L106.473 231.88L112.01 230.554L110.587 241.34L107.116 242.178L100.955 233.206Z" fill="#EFD7B8"/>
    <path d="M197.828 291.674L175.125 267.463C174.263 266.544 172.82 266.498 171.901 267.36L161.834 276.808C160.915 277.67 160.869 279.114 161.731 280.034L184.433 304.245C185.295 305.164 186.739 305.21 187.658 304.348L197.725 294.9C198.644 294.038 198.69 292.594 197.828 291.674Z" fill="#F9FBFC"/>
    <path d="M194.508 286.794L179.795 271.104L165.05 284.942L179.763 300.632L194.508 286.794Z" fill="#F24C88"/>
    <g style="mix-blend-mode:multiply">
        <g style="mix-blend-mode:multiply">
            <path d="M166.873 272.078L161.823 276.818C161.398 277.246 161.159 277.824 161.159 278.427C161.159 279.03 161.398 279.609 161.823 280.036L165.722 284.308L165.059 284.932L179.76 300.535L180.423 299.911L184.439 304.183C184.866 304.608 185.445 304.847 186.047 304.847C186.65 304.847 187.228 304.608 187.656 304.183L192.686 299.443L166.873 272.078Z" fill="#F1F2F2"/>
        </g>
    </g>
    <path d="M602.543 44.4189L495.979 99.0195L505.96 118.515L612.523 63.9141L602.543 44.4189Z" fill="#B1CCE7"/>
    <path d="M601.851 47.2982L498.723 100.138L503.993 110.433L607.121 57.5927L601.851 47.2982Z" fill="#91B7DC"/>
    <path d="M518.1 74.0313C517.69 67.9581 519.044 61.8957 521.999 56.5749C525.003 51.1138 529.573 46.6778 535.12 43.8386C538.78 41.9512 542.776 40.8071 546.879 40.4722C550.983 40.1374 555.112 40.6184 559.028 41.8876C562.945 43.1568 566.572 45.189 569.699 47.8672C572.827 50.5453 575.394 53.8163 577.252 57.4916L598.796 46.4522C595.48 39.937 590.91 34.1415 585.349 29.3987C579.788 24.6559 573.344 21.0593 566.389 18.8155C559.434 16.5717 552.104 15.7249 544.821 16.3239C537.537 16.9229 530.444 18.9558 523.949 22.3058C510.847 29.0164 500.947 40.658 496.424 54.6704C491.901 68.6828 493.127 83.9185 499.832 97.0269L521.395 86.0655C519.498 82.3169 518.377 78.2237 518.1 74.0313Z" fill="#B1CCE7"/>
    <path d="M576.297 39.6256C569.97 34.3196 562.22 30.996 554.016 30.0698C545.813 29.1437 537.518 30.656 530.168 34.418C520.268 39.4841 512.781 48.2734 509.353 58.8563C505.924 69.4391 506.833 80.9506 511.88 90.8636L521.395 85.9875C519.508 82.2628 518.387 78.1971 518.1 74.0313C517.689 67.9581 519.044 61.8957 521.999 56.5749C525.003 51.1138 529.573 46.6778 535.12 43.8386C542.52 40.0577 551.117 39.3721 559.022 41.9325C566.927 44.4929 573.491 50.0896 577.271 57.4916L586.786 52.6155C584.203 47.6206 580.635 43.2015 576.297 39.6256Z" fill="#91B7DC"/>
    <path d="M597.353 47.0759L593.258 49.1824L593.005 48.6948L597.08 46.5493L597.353 47.0759Z" fill="#91B7DC"/>
    <path d="M589.515 43.0195L588.872 42.1223L592.557 39.3722L593.278 40.3474L589.515 43.0195ZM502.503 87.5869L498.136 89.0693C497.999 88.6792 497.883 88.3086 497.766 87.9185L502.152 86.5337L502.503 87.5869ZM584.602 37.0706L583.823 36.2905L587.02 32.9942L587.897 33.8524L584.602 37.0706ZM500.553 80.0582L496.011 80.8579C496.011 80.4483 495.874 80.0582 495.816 79.6486L500.378 78.966L500.553 80.0582ZM578.714 31.98L577.798 31.3364L580.489 27.5525L581.463 28.2547L578.714 31.98ZM499.832 72.4125H495.231C495.231 72.0224 495.231 71.6129 495.231 71.2033H499.852L499.832 72.4125ZM572.105 27.9426L571.111 27.455L573.158 23.3201L574.23 23.8662L572.105 27.9426ZM500.339 64.6108L495.796 63.9476L495.972 62.7384L500.515 63.5185L500.339 64.6108ZM564.892 24.8414L563.839 24.4903L565.203 20.1019L566.354 20.4724L564.892 24.8414ZM502.074 57.0431L497.668 55.6778C497.785 55.2877 497.902 54.8976 498.038 54.5075L502.406 55.9899C502.289 56.3409 502.172 56.692 502.074 57.0431ZM557.444 22.9495L556.352 22.774L557.093 18.2294L558.282 18.405L557.444 22.9495ZM504.94 49.8265L500.807 47.8761C500.982 47.5055 501.158 47.1544 501.353 46.7838L505.447 48.9293C505.272 49.1633 505.096 49.4949 504.94 49.8265ZM549.782 22.2668H548.671V17.6638H549.879L549.782 22.2668ZM508.898 43.156L505.135 40.5034C505.369 40.1718 505.603 39.8403 505.857 39.5282L509.561 42.2588L508.898 43.156ZM542.042 22.813L540.97 22.969L540.17 18.444L541.379 18.2489L542.042 22.813ZM513.869 37.3047L510.555 34.0865L511.413 33.2088L514.649 36.505L513.869 37.3047ZM534.438 24.6464L533.385 24.9975L531.904 20.6285L533.054 20.2384L534.438 24.6464ZM519.699 32.1946L516.95 28.4887L517.925 27.7866L520.596 31.4534L519.699 32.1946ZM527.244 27.5525L526.737 27.8061L526.269 28.0596L524.105 23.9832L524.632 23.7102L525.197 23.4176L527.244 27.5525Z" fill="#91B7DC"/>
    <path d="M505.272 94.257L501.158 96.3635L500.904 95.8174L505.018 93.7694L505.272 94.257Z" fill="#91B7DC"/>
    <path d="M506.139 113.349L505.618 113.616L507.191 116.689L507.711 116.422L506.139 113.349Z" fill="#91B7DC"/>
    <path d="M604.761 66.7171L603.748 67.2242L602.168 64.1425L603.182 63.6354L604.761 66.7171ZM598.698 69.8183L597.684 70.3449L596.086 67.2632L597.099 66.7366L598.698 69.8183ZM592.635 72.9194L591.621 73.4461L590.042 70.4619L591.056 69.9548L592.635 72.9194ZM586.571 76.0401L585.558 76.5473L583.978 73.4656L584.992 72.9585L586.571 76.0401ZM580.488 79.1413L579.494 79.668L577.915 76.5863L578.929 76.0596L580.488 79.1413ZM574.425 82.1645L573.411 82.6911L571.852 79.6094L572.846 79.1023L574.425 82.1645ZM568.362 85.2852L567.348 85.7923L565.788 82.7106L566.782 82.2035L568.362 85.2852ZM562.298 88.3864L561.284 88.913L559.705 85.8313L560.719 85.3047L562.298 88.3864ZM556.235 91.4876L555.221 92.0142L553.642 88.9325L554.656 88.4254L556.235 91.4876ZM550.172 94.6083L549.158 95.1154L547.579 92.0337L548.592 91.5266L550.172 94.6083ZM544.108 97.768L543.094 98.2946L541.496 95.2324L542.509 94.7058L544.108 97.768ZM538.045 100.869L537.031 101.396L535.452 98.3141L536.466 97.807L538.045 100.869ZM531.981 103.99L530.968 104.497L529.388 101.415L530.402 100.908L531.981 103.99ZM525.899 107.111L524.904 107.637L523.325 104.556L524.339 104.029L525.899 107.111ZM519.835 110.212L518.821 110.738L517.262 107.657L518.275 107.15L519.835 110.212ZM513.772 113.371L512.758 113.879L511.198 110.797L512.193 110.29L513.772 113.371Z" fill="#91B7DC"/>
    <path d="M608.761 60.7994L608.241 61.066L609.813 64.139L610.334 63.8724L608.761 60.7994Z" fill="#91B7DC"/>
    <path d="M500.124 312.589L501.099 314.461L491.312 314.032L490.356 312.16L500.124 312.589Z" fill="#863636"/>
    <path d="M499.559 313.467L500.534 315.339L490.766 314.91L489.791 313.038L499.559 313.467Z" fill="#131111"/>
    <path d="M500.124 312.589L501.099 314.462L500.533 315.339L499.559 313.467L500.124 312.589Z" fill="#1B1819"/>
    <path d="M500.124 312.589L499.559 313.467L489.791 313.038L490.356 312.16L500.124 312.589Z" fill="#1E1B1C"/>
    <path d="M496.381 317.875L497.336 319.747L487.958 319.338L487.003 317.465L496.381 317.875Z" fill="#863636"/>
    <path d="M495.816 318.772L496.771 320.644L487.393 320.235L486.438 318.362L495.816 318.772Z" fill="#131111"/>
    <path d="M496.381 317.875L495.816 318.772L486.438 318.362L487.003 317.465L496.381 317.875Z" fill="#1E1B1C"/>
    <path d="M496.381 317.875L497.336 319.747L496.771 320.644L495.815 318.772L496.381 317.875Z" fill="#1B1819"/>
    <path d="M493.008 323.18L493.983 325.052L484.605 324.643L483.63 322.77L493.008 323.18Z" fill="#863636"/>
    <path d="M493.008 323.18L492.443 324.077L483.065 323.667L483.63 322.77L493.008 323.18Z" fill="#1E1B1C"/>
    <path d="M493.008 323.18L493.983 325.052L493.417 325.949L492.442 324.077L493.008 323.18Z" fill="#1B1819"/>
    <path d="M492.443 324.077L493.418 325.949L484.04 325.54L483.065 323.667L492.443 324.077Z" fill="#131111"/>
    <path d="M489.635 328.504L490.61 330.377L481.232 329.967L480.257 328.095L489.635 328.504Z" fill="#863636"/>
    <path d="M489.635 328.504L490.61 330.377L490.045 331.255L489.089 329.382L489.635 328.504Z" fill="#1B1819"/>
    <path d="M489.089 329.382L490.044 331.255L480.667 330.845L479.711 328.973L489.089 329.382Z" fill="#131111"/>
    <path d="M489.635 328.504L489.089 329.382L479.711 328.973L480.277 328.095L489.635 328.504Z" fill="#1E1B1C"/>
    <path d="M486.672 333.829L487.646 335.702L477.879 335.273L476.904 333.4L486.672 333.829Z" fill="#863636"/>
    <path d="M486.106 334.726L487.081 336.579L477.313 336.15L476.338 334.278L486.106 334.726Z" fill="#131111"/>
    <path d="M486.672 333.829L487.647 335.701L487.081 336.579L486.106 334.726L486.672 333.829Z" fill="#1B1819"/>
    <path d="M486.671 333.829L486.106 334.727L476.338 334.278L476.904 333.4L486.671 333.829Z" fill="#1E1B1C"/>
    <path d="M482.929 339.115L483.884 340.987L474.506 340.578L473.551 338.705L482.929 339.115Z" fill="#863636"/>
    <path d="M482.929 339.115L482.363 340.012L472.985 339.602L473.551 338.705L482.929 339.115Z" fill="#1E1B1C"/>
    <path d="M482.363 340.012L483.319 341.884L473.941 341.475L472.985 339.602L482.363 340.012Z" fill="#131111"/>
    <path d="M482.929 339.115L483.884 340.987L483.319 341.884L482.363 340.012L482.929 339.115Z" fill="#1B1819"/>
    <path d="M479.556 344.44L480.53 346.293L471.153 345.883L470.178 344.01L479.556 344.44Z" fill="#863636"/>
    <path d="M479.556 344.439L480.53 346.292L479.965 347.19L478.99 345.317L479.556 344.439Z" fill="#1B1819"/>
    <path d="M479.556 344.44L478.99 345.317L469.612 344.908L470.178 344.01L479.556 344.44Z" fill="#1E1B1C"/>
    <path d="M478.99 345.317L479.965 347.19L470.587 346.78L469.612 344.908L478.99 345.317Z" fill="#131111"/>
    <path d="M476.202 349.745L477.157 351.617L467.78 351.188L466.824 349.315L476.202 349.745Z" fill="#863636"/>
    <path d="M476.202 349.745L475.636 350.622L466.259 350.213L466.824 349.315L476.202 349.745Z" fill="#1E1B1C"/>
    <path d="M475.637 350.622L476.592 352.495L467.214 352.085L466.259 350.213L475.637 350.622Z" fill="#131111"/>
    <path d="M476.202 349.745L477.157 351.617L476.592 352.495L475.637 350.622L476.202 349.745Z" fill="#1B1819"/>
    <path d="M473.219 355.069L474.194 356.942L464.426 356.513L463.452 354.64L473.219 355.069Z" fill="#863636"/>
    <path d="M473.219 355.069L472.654 355.966L462.886 355.537L463.452 354.64L473.219 355.069Z" fill="#1E1B1C"/>
    <path d="M473.219 355.069L474.194 356.942L473.629 357.839L472.654 355.967L473.219 355.069Z" fill="#1B1819"/>
    <path d="M472.654 355.967L473.629 357.839L463.861 357.41L462.886 355.538L472.654 355.967Z" fill="#131111"/>
    <path d="M469.476 360.355L470.431 362.228L461.053 361.818L460.098 359.945L469.476 360.355Z" fill="#863636"/>
    <path d="M468.91 361.252L469.866 363.125L460.488 362.715L459.533 360.843L468.91 361.252Z" fill="#131111"/>
    <path d="M469.476 360.355L468.91 361.252L459.533 360.843L460.098 359.945L469.476 360.355Z" fill="#1E1B1C"/>
    <path d="M469.476 360.355L470.431 362.228L469.866 363.125L468.911 361.252L469.476 360.355Z" fill="#1B1819"/>
    <path d="M466.103 365.68L467.078 367.533L457.7 367.123L456.726 365.251L466.103 365.68Z" fill="#863636"/>
    <path d="M466.103 365.68L465.538 366.558L456.16 366.148L456.726 365.251L466.103 365.68Z" fill="#1E1B1C"/>
    <path d="M465.538 366.558L466.513 368.43L457.135 368.02L456.16 366.148L465.538 366.558Z" fill="#131111"/>
    <path d="M466.103 365.68L467.078 367.533L466.512 368.43L465.538 366.557L466.103 365.68Z" fill="#1B1819"/>
    <path d="M462.749 370.985L463.705 372.858L454.327 372.448L453.372 370.576L462.749 370.985Z" fill="#863636"/>
    <path d="M462.749 370.985L463.705 372.858L463.159 373.735L462.184 371.863L462.749 370.985Z" fill="#1B1819"/>
    <path d="M462.184 371.863L463.159 373.735L453.762 373.325L452.807 371.453L462.184 371.863Z" fill="#131111"/>
    <path d="M462.75 370.985L462.184 371.863L452.807 371.453L453.372 370.576L462.75 370.985Z" fill="#1E1B1C"/>
    <path d="M459.767 376.31L460.742 378.182L450.974 377.753L449.999 375.88L459.767 376.31Z" fill="#863636"/>
    <path d="M459.767 376.31L459.221 377.187L449.453 376.758L449.999 375.88L459.767 376.31Z" fill="#1E1B1C"/>
    <path d="M459.767 376.31L460.741 378.182L460.176 379.06L459.221 377.187L459.767 376.31Z" fill="#1B1819"/>
    <path d="M459.221 377.187L460.176 379.06L450.408 378.631L449.453 376.758L459.221 377.187Z" fill="#131111"/>
    <path d="M456.023 381.615L456.979 383.487L447.601 383.058L446.646 381.186L456.023 381.615Z" fill="#863636"/>
    <path d="M456.023 381.615L455.458 382.493L446.08 382.083L446.645 381.186L456.023 381.615Z" fill="#1E1B1C"/>
    <path d="M456.023 381.615L456.979 383.487L456.433 384.365L455.458 382.492L456.023 381.615Z" fill="#1B1819"/>
    <path d="M455.458 382.493L456.433 384.365L447.035 383.955L446.08 382.083L455.458 382.493Z" fill="#131111"/>
    <path d="M452.65 386.92L453.625 388.793L444.247 388.383L443.272 386.511L452.65 386.92Z" fill="#863636"/>
    <path d="M452.085 387.798L453.06 389.67L443.682 389.26L442.707 387.388L452.085 387.798Z" fill="#131111"/>
    <path d="M452.65 386.92L453.625 388.793L453.06 389.67L452.085 387.798L452.65 386.92Z" fill="#1B1819"/>
    <path d="M452.65 386.92L452.085 387.798L442.707 387.388L443.272 386.511L452.65 386.92Z" fill="#1E1B1C"/>
    <path d="M449.297 392.225L450.253 394.097L440.875 393.688L439.919 391.815L449.297 392.225Z" fill="#863636"/>
    <path d="M449.297 392.225L450.253 394.097L449.707 394.975L448.732 393.122L449.297 392.225Z" fill="#1B1819"/>
    <path d="M449.297 392.225L448.732 393.122L439.354 392.693L439.919 391.815L449.297 392.225Z" fill="#1E1B1C"/>
    <path d="M448.732 393.122L449.707 394.975L440.329 394.566L439.354 392.693L448.732 393.122Z" fill="#131111"/>
    <path d="M446.334 397.55L447.289 399.422L437.521 398.993L436.566 397.121L446.334 397.55Z" fill="#863636"/>
    <path d="M446.334 397.55L445.768 398.447L436 398.018L436.566 397.121L446.334 397.55Z" fill="#1E1B1C"/>
    <path d="M446.333 397.55L447.289 399.422L446.723 400.319L445.768 398.447L446.333 397.55Z" fill="#1B1819"/>
    <path d="M445.768 398.447L446.724 400.32L436.956 399.871L436 398.018L445.768 398.447Z" fill="#131111"/>
    <path d="M511.724 310.131L512.699 312.004L454.678 403.635L453.703 401.763L511.724 310.131Z" fill="#CCC2AA"/>
    <path d="M492.189 309.273L511.725 310.131L453.703 401.763L434.168 400.905L436.001 398.018L445.768 398.447L446.334 397.55L436.566 397.121L439.354 392.693L448.732 393.122L449.297 392.225L439.919 391.816L442.707 387.388L452.085 387.798L452.651 386.92L443.273 386.51L446.08 382.083L455.458 382.493L456.023 381.615L446.646 381.186L449.453 376.758L459.221 377.187L459.767 376.31L449.999 375.881L452.807 371.453L462.184 371.863L462.75 370.985L453.372 370.575L456.16 366.148L465.538 366.557L466.103 365.68L456.725 365.251L459.533 360.843L468.91 361.252L469.476 360.355L460.098 359.946L462.886 355.538L472.654 355.967L473.219 355.069L463.452 354.64L466.259 350.213L475.637 350.622L476.202 349.745L466.824 349.316L469.612 344.908L478.99 345.317L479.556 344.44L470.178 344.01L472.985 339.602L482.363 340.012L482.928 339.115L473.551 338.705L476.339 334.278L486.106 334.726L486.672 333.829L476.904 333.4L479.712 328.973L489.089 329.382L489.635 328.504L480.257 328.095L483.065 323.667L492.443 324.077L493.008 323.18L483.63 322.77L486.438 318.362L495.816 318.772L496.381 317.875L487.003 317.465L489.791 313.038L499.559 313.467L500.124 312.589L490.357 312.16L492.189 309.273Z" fill="#F9F8F7"/>
    <path d="M453.703 401.763L454.678 403.635L435.123 402.777L434.168 400.905L453.703 401.763Z" fill="#C1B69F"/>
    <path d="M154.142 323.238L158.353 326.398L152.601 328.895L148.39 325.735L154.142 323.238Z" fill="#1857BD"/>
    <path d="M154.142 323.238L158.353 326.398L158.236 327.432L154.025 324.292L154.142 323.238Z" fill="#C0BFBF"/>
    <path d="M154.025 324.291L158.236 327.432L152.484 329.928L148.273 326.788L154.025 324.291Z" fill="#868585"/>
    <path d="M150.925 330.572L155.136 333.732L151.899 335.136L147.669 331.976L150.925 330.572Z" fill="#1857BD"/>
    <path d="M150.925 330.572L155.136 333.732L155.019 334.765L150.808 331.625L150.925 330.572Z" fill="#C0BFBF"/>
    <path d="M150.808 331.625L155.019 334.765L151.782 336.17L147.552 333.029L150.808 331.625Z" fill="#868585"/>
    <path d="M150.223 336.813L154.434 339.973L151.198 341.377L146.986 338.218L150.223 336.813Z" fill="#1857BD"/>
    <path d="M150.106 337.867L154.317 341.026L151.081 342.431L146.869 339.271L150.106 337.867Z" fill="#868585"/>
    <path d="M150.223 336.813L154.434 339.973L154.317 341.026L150.106 337.867L150.223 336.813Z" fill="#C0BFBF"/>
    <path d="M149.521 343.074L153.732 346.215L150.496 347.619L146.265 344.479L149.521 343.074Z" fill="#1857BD"/>
    <path d="M149.404 344.128L153.615 347.268L150.379 348.672L146.148 345.532L149.404 344.128Z" fill="#868585"/>
    <path d="M149.521 343.074L153.732 346.215L153.615 347.268L149.404 344.128L149.521 343.074Z" fill="#C0BFBF"/>
    <path d="M151.334 348.223L155.545 351.363L149.794 353.86L145.563 350.72L151.334 348.223Z" fill="#1857BD"/>
    <path d="M151.334 348.223L155.545 351.363L155.428 352.417L151.217 349.257L151.334 348.223Z" fill="#C0BFBF"/>
    <path d="M151.217 349.257L155.428 352.417L149.677 354.913L145.446 351.754L151.217 349.257Z" fill="#868585"/>
    <path d="M148.117 355.557L152.328 358.697L149.092 360.102L144.861 356.961L148.117 355.557Z" fill="#1857BD"/>
    <path d="M148.117 355.557L152.328 358.697L152.211 359.75L148 356.591L148.117 355.557Z" fill="#C0BFBF"/>
    <path d="M148 356.591L152.211 359.75L148.975 361.155L144.744 357.995L148 356.591Z" fill="#868585"/>
    <path d="M147.415 361.798L151.627 364.938L148.39 366.343L144.159 363.202L147.415 361.798Z" fill="#1857BD"/>
    <path d="M147.415 361.798L151.626 364.938L151.51 366.011L147.298 362.851L147.415 361.798Z" fill="#C0BFBF"/>
    <path d="M147.298 362.851L151.51 366.011L148.273 367.415L144.042 364.256L147.298 362.851Z" fill="#868585"/>
    <path d="M146.694 368.04L150.925 371.199L147.688 372.604L143.458 369.444L146.694 368.04Z" fill="#1857BD"/>
    <path d="M146.694 368.04L150.925 371.199L150.808 372.253L146.577 369.093L146.694 368.04Z" fill="#C0BFBF"/>
    <path d="M146.577 369.093L150.808 372.253L147.571 373.657L143.341 370.497L146.577 369.093Z" fill="#868585"/>
    <path d="M148.527 373.208L152.738 376.348L146.986 378.845L142.756 375.705L148.527 373.208Z" fill="#1857BD"/>
    <path d="M148.41 374.242L152.621 377.402L146.869 379.898L142.639 376.739L148.41 374.242Z" fill="#868585"/>
    <path d="M148.527 373.208L152.738 376.348L152.621 377.402L148.41 374.242L148.527 373.208Z" fill="#C0BFBF"/>
    <path d="M145.29 380.542L149.521 383.682L146.265 385.087L142.054 381.946L145.29 380.542Z" fill="#1857BD"/>
    <path d="M145.173 381.595L149.404 384.736L146.148 386.14L141.937 383L145.173 381.595Z" fill="#868585"/>
    <path d="M145.29 380.542L149.521 383.682L149.404 384.736L145.173 381.595L145.29 380.542Z" fill="#C0BFBF"/>
    <path d="M144.588 386.783L148.819 389.943L145.583 391.347L141.352 388.188L144.588 386.783Z" fill="#1857BD"/>
    <path d="M144.471 387.837L148.702 390.996L145.446 392.401L141.235 389.241L144.471 387.837Z" fill="#868585"/>
    <path d="M144.588 386.783L148.819 389.943L148.702 390.996L144.471 387.837L144.588 386.783Z" fill="#C0BFBF"/>
    <path d="M143.886 393.025L148.117 396.185L144.861 397.589L140.65 394.429L143.886 393.025Z" fill="#1857BD"/>
    <path d="M143.887 393.025L148.117 396.185L148 397.218L143.77 394.078L143.887 393.025Z" fill="#C0BFBF"/>
    <path d="M143.77 394.078L148 397.218L144.744 398.623L140.533 395.482L143.77 394.078Z" fill="#868585"/>
    <path d="M145.7 398.174L149.93 401.334L144.179 403.83L139.948 400.671L145.7 398.174Z" fill="#1857BD"/>
    <path d="M145.7 398.174L149.93 401.334L149.813 402.368L145.583 399.227L145.7 398.174Z" fill="#C0BFBF"/>
    <path d="M145.582 399.227L149.813 402.368L144.042 404.864L139.831 401.724L145.582 399.227Z" fill="#868585"/>
    <path d="M142.483 405.527L146.713 408.667L143.457 410.072L139.246 406.932L142.483 405.527Z" fill="#1857BD"/>
    <path d="M142.366 406.561L146.597 409.721L143.341 411.125L139.129 407.965L142.366 406.561Z" fill="#868585"/>
    <path d="M142.483 405.527L146.713 408.667L146.596 409.721L142.366 406.561L142.483 405.527Z" fill="#C0BFBF"/>
    <path d="M141.781 411.768L146.012 414.909L142.756 416.313L138.544 413.173L141.781 411.768Z" fill="#1857BD"/>
    <path d="M141.664 412.822L145.895 415.962L142.639 417.366L138.427 414.207L141.664 412.822Z" fill="#868585"/>
    <path d="M141.781 411.768L146.012 414.909L145.895 415.962L141.664 412.822L141.781 411.768Z" fill="#C0BFBF"/>
    <path d="M141.079 418.01L145.29 421.17L142.054 422.574L137.843 419.414L141.079 418.01Z" fill="#1857BD"/>
    <path d="M141.079 418.01L145.29 421.17L145.173 422.203L140.962 419.063L141.079 418.01Z" fill="#C0BFBF"/>
    <path d="M140.962 419.063L145.173 422.203L141.937 423.608L137.726 420.468L140.962 419.063Z" fill="#868585"/>
    <path d="M157.183 345.883L161.414 349.023L153.791 416.82L149.56 413.661L157.183 345.883Z" fill="#DBA156"/>
    <path d="M142.892 423.179L147.123 426.319L141.352 428.815L137.141 425.675L142.892 423.179Z" fill="#1857BD"/>
    <path d="M142.892 423.179L147.123 426.319L147.006 427.372L142.775 424.212L142.892 423.179Z" fill="#C0BFBF"/>
    <path d="M142.775 424.212L147.006 427.372L141.235 429.868L137.024 426.709L142.775 424.212Z" fill="#868585"/>
    <path d="M145.641 421.989L149.852 425.129L148.897 425.558L144.666 422.399L145.641 421.989Z" fill="#1857BD"/>
    <path d="M144.666 422.398L148.897 425.558L148.254 431.156L144.042 427.996L144.666 422.398Z" fill="#1857BD"/>
    <path d="M145.641 421.989L149.852 425.129L149.229 430.727L145.017 427.587L145.641 421.989Z" fill="#C0BFBF"/>
    <path d="M151.12 422.184L155.35 425.324L154.376 425.753L150.164 422.594L151.12 422.184Z" fill="#1857BD"/>
    <path d="M150.164 422.594L154.376 425.753L154.044 428.64L149.833 425.5L150.164 422.594Z" fill="#1857BD"/>
    <path d="M151.12 422.184L155.35 425.324L155.019 428.211L150.808 425.071L151.12 422.184Z" fill="#C0BFBF"/>
    <path d="M156.929 419.668L161.141 422.808L160.166 423.237L155.955 420.078L156.929 419.668Z" fill="#1857BD"/>
    <path d="M155.955 420.078L160.166 423.237L159.854 426.124L155.623 422.984L155.955 420.078Z" fill="#1857BD"/>
    <path d="M156.93 419.668L161.141 422.808L160.829 425.714L156.598 422.555L156.93 419.668Z" fill="#C0BFBF"/>
    <path d="M162.72 417.152L166.931 420.312L165.956 420.721L161.745 417.581L162.72 417.152Z" fill="#1857BD"/>
    <path d="M161.745 417.581L165.956 420.721L165.644 423.607L161.433 420.467L161.745 417.581Z" fill="#1857BD"/>
    <path d="M162.72 417.152L166.931 420.312L166.619 423.198L162.389 420.038L162.72 417.152Z" fill="#C0BFBF"/>
    <path d="M168.822 411.944L173.034 415.085L172.059 415.514L167.848 412.354L168.822 411.944Z" fill="#1857BD"/>
    <path d="M167.848 412.354L172.059 415.514L171.435 421.111L167.224 417.952L167.848 412.354Z" fill="#1857BD"/>
    <path d="M168.822 411.944L173.034 415.084L172.41 420.682L168.179 417.542L168.822 411.944Z" fill="#C0BFBF"/>
    <path d="M174.301 412.139L178.532 415.279L177.557 415.708L173.345 412.549L174.301 412.139Z" fill="#1857BD"/>
    <path d="M173.346 412.549L177.557 415.708L177.225 418.595L173.014 415.455L173.346 412.549Z" fill="#1857BD"/>
    <path d="M174.301 412.139L178.531 415.279L178.2 418.166L173.989 415.026L174.301 412.139Z" fill="#C0BFBF"/>
    <path d="M180.091 409.623L184.322 412.783L183.347 413.192L179.136 410.052L180.091 409.623Z" fill="#1857BD"/>
    <path d="M179.136 410.052L183.347 413.192L183.016 416.079L178.804 412.939L179.136 410.052Z" fill="#1857BD"/>
    <path d="M180.091 409.623L184.322 412.783L183.991 415.669L179.779 412.509L180.091 409.623Z" fill="#C0BFBF"/>
    <path d="M185.882 407.127L190.093 410.267L189.138 410.696L184.907 407.536L185.882 407.127Z" fill="#1857BD"/>
    <path d="M184.907 407.536L189.137 410.696L188.806 413.582L184.595 410.423L184.907 407.536Z" fill="#1857BD"/>
    <path d="M185.882 407.127L190.093 410.267L189.781 413.153L185.57 410.013L185.882 407.127Z" fill="#C0BFBF"/>
    <path d="M191.984 401.899L196.215 405.059L195.221 405.468L191.009 402.328L191.984 401.899Z" fill="#1857BD"/>
    <path d="M191.009 402.328L195.221 405.469L194.597 411.066L190.385 407.926L191.009 402.328Z" fill="#1857BD"/>
    <path d="M191.984 401.899L196.215 405.059L195.572 410.637L191.36 407.497L191.984 401.899Z" fill="#C0BFBF"/>
    <path d="M197.482 402.094L201.693 405.254L200.719 405.664L196.507 402.523L197.482 402.094Z" fill="#1857BD"/>
    <path d="M196.507 402.524L200.718 405.664L200.406 408.55L196.176 405.41L196.507 402.524Z" fill="#1857BD"/>
    <path d="M197.482 402.094L201.693 405.254L201.362 408.141L197.151 404.981L197.482 402.094Z" fill="#C0BFBF"/>
    <path d="M203.272 399.598L207.484 402.738L206.509 403.148L202.298 400.008L203.272 399.598Z" fill="#1857BD"/>
    <path d="M202.298 400.008L206.509 403.148L206.197 406.054L201.966 402.894L202.298 400.008Z" fill="#1857BD"/>
    <path d="M203.272 399.598L207.484 402.738L207.152 405.625L202.941 402.485L203.272 399.598Z" fill="#C0BFBF"/>
    <path d="M209.063 397.082L213.294 400.222L212.299 400.651L208.088 397.491L209.063 397.082Z" fill="#1857BD"/>
    <path d="M208.088 397.491L212.299 400.651L211.987 403.538L207.757 400.398L208.088 397.491Z" fill="#1857BD"/>
    <path d="M209.063 397.082L213.294 400.222L212.962 403.109L208.751 399.968L209.063 397.082Z" fill="#C0BFBF"/>
    <path d="M219.259 395.405L208.751 399.969L207.757 400.398L202.941 402.485L201.966 402.894L197.151 404.981L196.176 405.41L191.36 407.497L190.385 407.926L185.57 410.013L184.595 410.423L179.779 412.51L178.804 412.939L173.989 415.026L173.014 415.455L168.179 417.542L167.224 417.952L162.389 420.039L161.433 420.468L156.598 422.555L155.623 422.984L150.808 425.071L149.833 425.5L145.017 427.587L144.042 427.996L136.517 431.254L140.728 434.413L148.254 431.156L149.228 430.727L153.927 428.699L155.019 428.211L159.425 426.319L160.829 425.714L165.644 423.608L166.619 423.198L171.435 421.111L172.41 420.682L176.855 418.751L178.2 418.166L183.016 416.079L183.991 415.67L188.806 413.583L189.371 413.329L189.586 413.251L189.781 413.154L194.226 411.223L195.571 410.637L199.763 408.843L201.362 408.141L206.197 406.054L207.152 405.625L211.987 403.538L212.962 403.109L223.471 398.564L219.259 395.405Z" fill="#DBA156"/>
    <path d="M219.259 395.404L208.751 399.968L209.063 397.082L208.088 397.491L207.757 400.397L202.941 402.484L203.272 399.578L202.298 400.007L201.966 402.894L197.151 404.981L197.482 402.094L196.507 402.523L196.176 405.41L191.36 407.497L191.984 401.899L191.009 402.328L190.385 407.926L185.55 410.013L185.882 407.126L184.907 407.536L184.595 410.423L179.779 412.51L180.111 409.623L179.136 410.052L178.805 412.939L173.989 415.026L174.301 412.139L173.346 412.549L173.014 415.435L168.179 417.639L168.822 412.042L167.848 412.471L167.224 418.049L162.389 420.136L162.72 417.249L161.745 417.678L161.414 420.565L156.598 422.652L156.93 419.765L155.955 420.175L155.623 423.081L150.808 425.168L151.12 422.281L150.164 422.691L149.833 425.578L145.017 427.684L145.641 422.086L144.666 422.496L144.042 428.094L136.517 431.292L137.024 426.748L142.873 424.251L142.99 423.218L137.141 425.714L137.726 420.506L140.962 419.102L141.079 418.049L137.843 419.453L138.427 414.246L141.664 412.841L141.82 411.788L138.583 413.192L139.168 407.985L142.405 406.58L142.522 405.547L139.285 406.951L139.87 401.743L145.719 399.247V398.135L139.87 400.632L140.455 395.443L143.692 394.039L143.809 392.986L140.572 394.39L141.157 389.202L144.393 387.798L144.51 386.744L141.274 388.149L141.859 382.961L145.095 381.556L145.212 380.503L141.976 381.907L142.561 376.7L148.41 374.203L148.546 373.169L142.697 375.666L143.282 370.458L146.518 369.054L146.655 368.02L143.399 369.425L143.984 364.217L147.24 362.813L147.357 361.759L144.101 363.164L144.686 357.956L147.942 356.552L148.059 355.518L144.803 356.922L145.388 351.715L151.237 349.218L151.354 348.184L145.505 350.681L146.09 345.493L149.345 344.088L149.462 343.035L146.207 344.44L146.791 339.232L150.047 337.828L150.164 336.774L146.908 338.179L147.493 332.99L150.749 331.586L150.866 330.533L147.63 331.937L148.195 326.749L154.044 324.253L154.161 323.199L148.41 325.696L149.774 313.506L219.259 395.404ZM149.618 413.738L197.268 393.103L157.242 345.961L149.618 413.738Z" fill="#FECA7A"/>
    <path d="M149.755 313.545L153.966 316.704L223.471 398.564L219.259 395.404L149.755 313.545Z" fill="#DBA156"/>
    <path d="M28.2143 351.324L76.6239 296.498C77.5714 295.428 78.2142 294.123 78.4852 292.72C78.7561 291.317 78.6452 289.866 78.1641 288.52L64.3606 249.395L-87.3018 302.954L-73.4983 342.099C-73.0224 343.448 -72.1951 344.646 -71.1017 345.568C-70.0084 346.49 -68.6887 347.104 -67.279 347.345L4.85766 359.614C9.13417 360.333 13.5233 359.949 17.6102 358.498C21.6972 357.048 25.3468 354.579 28.2143 351.324Z" fill="#2E77C3"/>
    <path d="M-122.766 291.544L-120.972 296.576L4.09737 320.274L2.3037 315.242L-122.766 291.544Z" fill="#114E96"/>
    <path d="M2.30371 315.242L4.09737 320.274L87.2689 223.044L85.4753 218.012L2.30371 315.242Z" fill="#114E96"/>
    <path d="M-122.766 291.544L2.30369 315.242L85.4753 218.012L-39.5941 194.315L-122.766 291.544Z" fill="#2E77C3"/>
    <path d="M66.0566 312.433L56.1135 295.756C56.4136 295.15 56.4626 294.449 56.25 293.806C56.0836 293.338 55.7886 292.927 55.3988 292.62C55.0089 292.313 54.5403 292.122 54.0469 292.07L45.6439 268.255L-11.6754 256.065C-11.4688 254.881 -11.5764 253.664 -11.9874 252.535C-12.4523 251.218 -13.2969 250.069 -14.4145 249.233C-15.532 248.397 -16.8724 247.911 -18.2661 247.836C-19.6597 247.762 -21.0441 248.102 -22.2443 248.815C-23.4445 249.528 -24.4065 250.58 -25.0088 251.84C-25.611 253.099 -25.8265 254.509 -25.6279 255.891C-25.4293 257.273 -24.8256 258.565 -23.8931 259.604C-22.9606 260.643 -21.7411 261.382 -20.3889 261.728C-19.0367 262.073 -17.6124 262.01 -16.2961 261.546C-14.6206 260.98 -13.2254 259.793 -12.3968 258.23L43.9672 270.225L51.9023 292.811C51.5559 293.164 51.3142 293.606 51.204 294.088C51.0939 294.57 51.1196 295.074 51.2784 295.542C51.3956 295.876 51.5809 296.182 51.8226 296.44C52.0642 296.699 52.3569 296.904 52.6821 297.044L56.3084 315.963L66.0566 312.433Z" fill="#FF7D6C"/>
    <path d="M454.717 237.283L478.483 229.481C479.423 229.175 480.275 228.647 480.968 227.943C481.661 227.238 482.174 226.377 482.465 225.433C482.755 224.488 482.814 223.487 482.637 222.515C482.46 221.543 482.052 220.627 481.447 219.846L439.042 165.234L433.193 147.094L434.031 143.935C434.163 143.46 434.162 142.959 434.028 142.485C433.895 142.011 433.634 141.583 433.274 141.247C432.914 140.911 432.469 140.68 431.987 140.58C431.506 140.48 431.006 140.513 430.542 140.678L424.049 142.784L417.557 144.89C417.095 145.04 416.681 145.311 416.361 145.676C416.04 146.042 415.824 146.487 415.736 146.965C415.648 147.443 415.691 147.936 415.861 148.391C416.03 148.847 416.32 149.248 416.699 149.552L419.214 151.619L425.063 169.759L422.841 238.921C422.812 239.91 423.02 240.892 423.45 241.783C423.879 242.675 424.515 243.45 425.306 244.045C426.097 244.639 427.019 245.035 427.994 245.199C428.97 245.363 429.97 245.29 430.912 244.987L454.717 237.283Z" fill="#2E77C3"/>
    <path d="M443.878 177.989L428.67 182.924L426.877 239.077C426.861 239.424 426.931 239.769 427.081 240.082C427.23 240.395 427.455 240.666 427.735 240.871C428.009 241.079 428.33 241.218 428.669 241.275C429.008 241.333 429.356 241.308 429.684 241.203L477.236 225.755C477.569 225.653 477.872 225.469 478.117 225.221C478.362 224.972 478.542 224.667 478.64 224.332C478.739 224.001 478.758 223.651 478.693 223.311C478.629 222.971 478.483 222.652 478.269 222.381L443.878 177.989Z" fill="#3EBFB4"/>
    <g style="mix-blend-mode:multiply">
        <g style="mix-blend-mode:multiply">
            <path d="M481.447 219.924L439.043 165.311L433.194 147.172L434.032 144.013C434.183 143.533 434.196 143.021 434.071 142.535C433.946 142.048 433.687 141.606 433.324 141.259C432.961 140.912 432.508 140.674 432.016 140.571C431.524 140.468 431.014 140.505 430.542 140.677L424.05 142.784L454.718 237.263L478.484 229.461C479.407 229.15 480.244 228.624 480.925 227.927C481.605 227.23 482.111 226.381 482.4 225.45C482.69 224.519 482.754 223.533 482.588 222.572C482.423 221.611 482.032 220.704 481.447 219.924Z" fill="#F1F2F2"/>
        </g>
    </g>
</svg>
