<svg width="361" height="647" viewBox="0 0 361 647" fill="none" xmlns="http://www.w3.org/2000/svg">
    <g clip-path="url(#clip0)">
        <path d="M317.613 560.967L36.4183 646.999L-226.914 611.546L-209.597 606.027L56.9352 520.503H57.1234L182.409 546.726L304.738 559.611L317.613 560.967Z" fill="#3F90A8"/>
        <path d="M314.696 510.219L300.278 517.377L314.602 512.253L314.508 516.416L260.316 539.568L314.451 518.451L313.679 539.662L292.861 548.761L313.566 543.241L313.077 556.71L304.757 559.611L37.303 640.802L36.6254 640.708L-209.597 606.027L-222.472 604.143C-229.229 587.472 -227.987 569.953 -220.589 551.737L56.8788 520.448H57.067L301.765 505.698L314.828 504.247L314.696 510.219Z" fill="#F4F1E5"/>
        <path d="M-220.571 551.754L67.7395 487.649L314.922 504.339L42.7616 587.169L-220.571 551.754Z" fill="#F8DCC2"/>
        <g style="mix-blend-mode:multiply">
            <path d="M-220.571 551.754L67.7395 487.649L314.922 504.339L38.9217 586.641L-220.571 551.754Z" fill="#F8DCC2"/>
        </g>
        <path d="M-224.617 548.005L44.0039 490.87C57.0121 486.256 70.7753 484.146 84.5672 484.654L319.684 499.724L38.7147 583.42L-224.617 548.005Z" fill="#3F90A8"/>
        <g style="mix-blend-mode:multiply">
            <path d="M317.613 560.965L36.4182 646.997L36.6065 640.705L38.7334 583.457L182.409 546.724L301.84 505.752L314.903 504.301L314.696 510.216L300.277 517.375L314.602 512.251L314.508 516.414L260.316 539.565L314.413 518.448L313.642 539.66L292.824 548.758L313.548 543.239L313.058 556.708L304.738 559.609L317.613 560.965Z" fill="#F8DCC2"/>
        </g>
        <path d="M304.626 486.521L23.4305 572.552L-239.902 537.1L-222.585 531.58L43.9474 446.057H44.1357L169.421 472.279L291.751 485.164L304.626 486.521Z" fill="#EC925D"/>
        <path d="M301.727 435.773L287.29 442.931L301.614 437.807L301.52 441.97L247.329 465.103L301.426 444.005L300.654 465.292L279.855 474.39L300.56 468.871L300.07 482.34L291.751 485.241L24.2964 566.431H23.6188L-222.584 531.581L-235.441 529.698C-242.217 513.026 -240.974 495.507 -233.558 477.291L43.9099 446.002H44.0981L288.795 431.252L301.859 429.801L301.727 435.773Z" fill="#F4F1E5"/>
        <path d="M-233.558 477.31L54.7517 413.186L301.934 429.895L29.7737 512.725L-233.558 477.31Z" fill="#F8DCC2"/>
        <g style="mix-blend-mode:multiply">
            <path d="M-233.558 477.31L54.7517 413.186L301.934 429.895L25.9339 512.197L-233.558 477.31Z" fill="#F8DCC2"/>
        </g>
        <path d="M-237.605 473.559L31.0161 416.425C44.0304 411.808 57.8001 409.699 71.5982 410.208L306.696 425.278L25.7269 508.974L-237.605 473.559Z" fill="#EC925D"/>
        <g style="mix-blend-mode:multiply">
            <path d="M304.625 486.519L23.4304 572.551L23.6187 566.259L25.7456 509.012L169.421 472.278L288.852 431.306L301.915 429.855L301.727 435.771L287.29 442.929L301.614 437.805L301.52 441.968L247.329 465.12L301.426 444.003L300.654 465.214L279.854 474.312L300.56 468.793L300.07 482.243L291.751 485.163L304.625 486.519Z" fill="#F8DCC2"/>
        </g>
        <path d="M344.963 425.034L63.7679 511.066L-199.564 475.613L-182.247 470.094L84.2849 384.57H84.4731L209.758 410.792L332.088 423.677L344.963 425.034Z" fill="#A64C49"/>
        <path d="M342.045 374.286L327.627 381.444L341.951 376.32L341.857 380.484L287.666 403.616L341.763 382.518L340.991 403.729L320.098 412.828L340.803 407.309L340.314 420.777L331.994 423.678L64.6338 504.85L63.9561 504.756L-182.247 470.095L-195.122 468.211C-201.879 451.539 -200.637 434.02 -193.24 415.804L84.2284 384.515H84.4166L329.114 369.765L342.177 368.314L342.045 374.286Z" fill="#F4F1E5"/>
        <path d="M-193.221 415.823L95.0891 351.699L342.271 368.408L70.1111 451.238L-193.221 415.823Z" fill="#F8DCC2"/>
        <g style="mix-blend-mode:multiply">
            <path d="M-193.221 415.823L95.0891 351.699L342.271 368.408L66.2713 450.71L-193.221 415.823Z" fill="#F8DCC2"/>
        </g>
        <path d="M-197.268 412.072L71.3535 354.937C84.3616 350.323 98.1249 348.213 111.917 348.721L347.033 363.697L65.989 447.487L-197.268 412.072Z" fill="#A64C49"/>
        <g style="mix-blend-mode:multiply">
            <path d="M344.963 425.036L63.7678 511.068L63.956 504.776L66.083 447.528L209.758 410.795L329.189 369.823L342.252 368.372L342.045 374.287L327.627 381.445L341.951 376.322L341.857 380.485L287.666 403.617L341.763 382.519L340.991 403.73L320.192 412.829L340.897 407.31L340.408 420.779L332.088 423.68L344.963 425.036Z" fill="#F8DCC2"/>
        </g>
        <path d="M350.478 398.321L329.509 393.706L181.599 360.532L192.385 358.893L208.271 356.388L227.734 353.261L327.495 337.569L340.577 335.535C340.577 335.535 378.995 359.308 350.478 398.321Z" fill="#3F90A8"/>
        <path d="M350.459 398.321L90.3268 439.218L-200.618 385.38L-73.0558 357.651L-62.402 355.051L-3.91933 330.562L54.7328 316.151L116.302 334.386L200.516 353.977L207.462 356.068L208.252 356.332L209.231 356.577L332.954 393.122L350.459 398.321Z" fill="#3F90A8"/>
        <path d="M-179.142 369.914L-200.882 363.34L-204.176 342.392L-147.933 356.841L-204.402 340.377L-205.061 336.214L-190.191 339.68L-205.362 334.217L340.69 335.498C351.043 374.379 350.101 374.209 345.264 391.483L89.2727 431.89L-198.228 380.218L-200.336 366.863L-179.142 369.914Z" fill="#F8DCC2"/>
        <path d="M337.038 339.699L44.0791 298.351L-206.378 328.434L76.8874 380.615L337.038 339.699Z" fill="#F8DCC2"/>
        <g style="mix-blend-mode:multiply">
            <path d="M341.161 337.608L340.596 335.499L44.079 298.351L-206.378 328.434L81.0472 380.05L341.161 337.608Z" fill="#F8DCC2"/>
        </g>
        <path d="M340.596 335.497L68.0407 298.707C54.5671 295.691 40.646 295.243 27.0068 297.389L-211.234 324.835L80.5203 376.413L340.596 335.497Z" fill="#3F90A8"/>
        <g style="mix-blend-mode:multiply">
            <path d="M350.478 398.321L90.3271 439.218L89.1977 431.89L81.0474 380.049L80.4263 376.375L200.516 353.977L326.63 337.344L340.596 335.46C340.596 335.46 378.995 359.309 350.478 398.321Z" fill="#F8DCC2"/>
        </g>
        <path d="M291.864 489.872C286.217 493.847 282.96 497.407 268.58 493.395C260.749 491.228 251.94 485.728 246.708 482.525C243.762 480.728 240.546 479.418 237.183 478.645C236.186 478.4 235.301 478.193 234.397 477.929C234.26 477.886 234.128 477.829 234.002 477.759C222.37 474.576 221.824 470.695 221.41 469.188C220.995 467.681 223.292 438.501 223.292 438.501L255.517 445.509C258.475 450.448 262.014 455.014 266.057 459.11C273.721 466.294 281.825 472.995 290.32 479.172C295.835 483.222 295.026 487.724 291.864 489.872Z" fill="#3B5765"/>
        <g style="mix-blend-mode:multiply" opacity="0.28">
            <path d="M258.924 450.482C258.924 450.482 262.82 457.415 234.925 459.411C217.626 460.655 230.595 475.951 234.077 477.759C222.445 474.576 221.899 470.695 221.485 469.188C221.071 467.681 223.367 438.501 223.367 438.501L255.592 445.509C256.558 447.26 257.672 448.923 258.924 450.482Z" fill="#3B5765"/>
        </g>
        <path d="M263.196 333.124C262.688 345.896 254.519 349.795 248.891 359.497C243.357 358.202 237.72 357.401 232.045 357.104C225.344 356.539 217.419 356.238 208.874 355.993C165.073 354.58 103.993 355.258 94.9577 344.276C92.5107 341.337 81.7817 298.839 80.0311 295.769C76.6026 289.823 74.6349 283.147 74.2901 276.291C74.0266 264.988 79.3158 255.569 90.1013 251.802C96.2188 249.579 104.181 249.296 113.762 251.689C117.62 253.158 125.168 248.298 129.215 249.522C132.698 250.596 136.142 251.726 139.587 252.913C148.019 255.701 156.301 258.715 164.452 261.842C193.214 272.939 221.236 285.869 248.345 300.554C260.712 308.786 263.629 320.672 263.196 333.124Z" fill="#EC925D"/>
        <path d="M262.989 324.235C264.646 366.356 256.627 435.076 258.528 447.754C254.03 455.383 222.539 457.323 221.636 451.163C220.996 446.134 221.014 445.964 220.92 445.229C217.57 423.434 205.09 354.432 203.283 347.273C203.287 347.015 203.373 346.764 203.528 346.557C204.977 343.656 215.01 335.462 225.908 327.173C240.214 316.361 262.876 320.938 262.989 324.235Z" fill="#EC925D"/>
        <g style="mix-blend-mode:multiply" opacity="0.4">
            <path d="M233.513 368.992C226.548 392.351 220.544 440.368 222.219 456.192C218.868 434.397 207.706 365.112 205.899 357.991C205.899 357.821 208.648 356.371 208.836 356.107C165.035 354.694 103.955 355.373 94.9197 344.39C92.4727 341.451 81.7437 298.954 79.9932 295.883C76.5647 289.937 74.5969 283.261 74.2522 276.405L139.549 252.971C147.981 255.759 156.263 258.773 164.414 261.9C164.414 261.9 167.745 262.521 162.117 272.034C159.859 275.802 166.56 285.579 170.343 287.934C191.048 300.856 213.636 314.758 225.87 327.229C235.037 336.459 237.672 355.146 233.513 368.992Z" fill="#EC925D"/>
        </g>
        <path d="M173.825 134.558C173.26 137.78 162.117 184.686 157.487 204.07C156.339 209.005 155.605 212.132 155.605 212.264C145.61 210.983 126.674 206.104 118.749 196.195C117.316 194.522 116.275 192.549 115.701 190.42C115.128 188.292 115.038 186.062 115.437 183.894C116.886 175.775 123.418 157.032 125.469 149.384C127.734 140.143 131.431 131.314 136.424 123.218C141.299 115.683 147.021 110.766 153.365 109.033C168.329 104.927 172.188 113.272 174.955 120.769C176.385 124.876 174.164 132.75 173.825 134.558Z" fill="#F8C650"/>
        <path d="M202.304 255.305C202.304 255.305 209.833 263.198 213.805 264.724C217.777 266.249 225.287 263.631 233.193 264.724C241.098 265.816 243.3 276.572 244.693 279.097C246.086 281.621 246.444 289.457 238.388 289.853C230.332 290.249 221.24 277.966 221.033 282.318C224.082 287.687 226.68 290.851 222.784 290.964C218.887 291.077 212.939 279.813 207.274 278.061C201.608 276.309 197.279 274.293 195.848 270.752C194.418 267.21 202.304 255.305 202.304 255.305Z" fill="#FCC7A9"/>
        <path d="M189.279 272.711L183.82 269.584C183.788 269.59 183.755 269.583 183.727 269.566C183.699 269.548 183.679 269.521 183.67 269.49C168.8 261.069 129.516 238.615 125.206 236.128C119.935 233.095 111.747 222.452 109.188 218.684C109.79 208.945 113.441 201.222 118.731 196.286C128.82 186.867 144.838 187.677 157.487 204.16C157.487 204.292 206.427 255.437 208.215 256.906C210.003 258.375 196.507 275.913 189.279 272.711Z" fill="#F8C650"/>
        <path d="M114.345 93.1118L109.677 86.4997C111.626 85.0056 113.931 84.046 116.363 83.7157C118.796 83.3853 121.273 83.6956 123.549 84.616L114.345 93.1118Z" fill="#F8C650"/>
        <g style="mix-blend-mode:multiply">
            <path d="M109.677 86.4997C111.626 85.0056 113.931 84.046 116.363 83.7157C118.796 83.3853 121.273 83.6956 123.549 84.616C131.21 87.8561 114.345 93.1871 114.345 93.1871L109.677 86.4997Z" fill="#F8C650"/>
        </g>
        <path d="M186.455 48.374C172.526 60.2983 170.719 80.3981 143.916 80.3981C117.112 80.3981 121.836 87.0479 114.006 70.4518C106.364 54.2891 105.931 45.6049 104.726 29.8189C104.124 22.0201 112.933 10.3219 130.363 5.32986C150.485 -7.04651 167.538 5.32986 177.872 7.68458C193.025 11.0754 194.342 20.4 192.46 25.9195C192.61 40.1985 191.199 41.1592 186.455 48.374Z" fill="#3B5765"/>
        <path d="M208.365 321.295C208.516 322.708 201.721 338.852 195.472 352.999C195.133 353.809 194.775 354.638 194.361 355.467C189.863 365.771 185.891 374.418 185.609 374.436C176.95 372.703 168.404 370.933 160.009 368.992C157.205 368.427 154.476 367.843 151.671 367.109C118.543 359.574 86.9955 350.437 55.6743 336.723C29.5481 325.327 19.5343 297.824 22.4519 280.399C22.7907 278.345 23.1295 276.424 23.4118 274.597C28.3434 246.152 28.5505 246.773 65.9892 248.657C72.7466 248.94 90.3272 256.757 96.9717 258.848C113.912 264.33 108.265 255.288 122.345 264.198L124.867 265.818C131.756 270.094 138.043 274.126 143.859 277.799C170.211 294.47 186.55 305.321 199.726 314.909C200.332 315.291 200.916 315.706 201.476 316.153C203.66 317.735 205.787 319.336 207.857 320.881C208.047 320.992 208.218 321.132 208.365 321.295Z" fill="#EC925D"/>
        <path d="M143.163 519.919C138.815 521.407 116.999 516.924 108.322 507.109C106.705 504.662 105.259 502.107 103.992 499.461V499.348C100.586 492.887 96.068 484.428 92.8681 482.243C87.7295 478.758 83.4567 466.438 85.1508 462.784C86.8448 459.129 113.385 438.464 113.385 438.464L131.173 458.376C131.173 458.376 128.462 464.818 129.742 476.196C130.397 481.611 131.712 486.925 133.657 492.02C143.332 505.734 158.541 514.644 143.163 519.919Z" fill="#3B5765"/>
        <g style="mix-blend-mode:multiply" opacity="0.28">
            <path d="M131.286 458.359C131.286 458.359 128.575 464.801 129.855 476.179C126.693 477.159 120.933 477.027 111.446 471.319C94.7692 461.279 94.2045 471.545 94.788 474.653C95.3715 477.762 100.435 489.102 104.049 499.331C100.642 492.869 96.1244 484.411 92.9245 482.226C87.7859 478.741 83.5131 466.421 85.2072 462.767C86.9012 459.112 113.441 438.447 113.441 438.447L131.286 458.359Z" fill="#3B5765"/>
        </g>
        <path d="M225.984 364.791C214.916 400.696 137.121 462.747 133.94 468.398C133.334 469.374 132.446 470.142 131.393 470.599C130.341 471.057 129.174 471.183 128.048 470.96H127.935C116.792 469.83 96.8022 451.049 102.073 443.551C102.073 443.551 114.91 423.263 131.493 397.757C131.547 397.678 131.597 397.596 131.643 397.512C134.53 393.066 137.516 388.514 140.603 383.855C144.217 378.335 147.906 372.665 151.671 367.07C152.047 366.524 152.424 365.921 152.857 365.318C156.377 359.95 159.934 354.6 163.473 349.401C164.452 345.84 183.482 309.37 184.423 305.415C190.07 308.56 195.189 311.65 199.669 314.72C200.275 315.102 200.859 315.517 201.42 315.964C203.603 317.546 205.73 319.147 207.801 320.692C208.018 320.827 208.209 320.999 208.365 321.201C228.826 337.853 231.405 352.264 225.984 364.791Z" fill="#EC925D"/>
        <g style="mix-blend-mode:multiply" opacity="0.43">
            <path d="M90.3081 306.055C134.523 290.985 146.777 283.826 146.043 279.117C140.226 275.443 131.7 269.999 124.81 265.723H94.6939L24.5787 273.767L23.5622 274.652C23.2799 276.536 22.9411 278.42 22.6023 280.454C19.6847 297.879 29.6985 325.382 55.8246 336.779C87.0895 350.493 118.637 359.61 151.821 367.164C151.087 368.031 102.223 443.645 102.223 443.645C96.9526 451.18 116.943 470.018 128.086 471.054C122.608 467.381 108.284 450.747 115.343 443.834C141.977 417.8 155.36 399.678 155.36 399.678C168.912 387.603 158.165 368.181 180.169 359.591C168.63 362.342 55.994 317.734 90.3081 306.055Z" fill="#EC925D"/>
        </g>
        <g style="mix-blend-mode:multiply" opacity="0.51">
            <path d="M183.67 269.489C168.8 261.069 129.516 238.614 125.206 236.128C119.935 233.095 111.747 222.451 109.188 218.684C109.79 208.945 113.441 201.221 118.731 196.286C117.297 194.612 116.256 192.639 115.683 190.511C115.11 188.382 115.019 186.153 115.418 183.985C116.867 175.866 123.399 157.122 125.45 149.474C127.716 140.234 131.412 131.405 136.405 123.309L160.103 127.227C160.103 127.227 159.407 195.457 157.487 204.066C159.475 208.976 160.878 214.104 161.666 219.343C162.569 226.313 168.291 259.825 183.67 269.489Z" fill="#F8C650"/>
        </g>
        <path d="M173.675 122.934C173.675 123.537 173.675 124.14 173.675 124.686V125.101C173.675 162.889 144.386 223.886 143.332 235.546C143.332 235.546 139.417 252.801 150.071 259.658C150.071 259.658 158.842 267.382 127.577 283.262C127.276 283.092 126.862 282.904 126.467 282.716C124.111 281.625 121.955 280.148 120.086 278.345C119.157 277.418 118.519 276.24 118.251 274.954C117.984 273.669 118.098 272.333 118.58 271.112C117.36 273.869 116.353 276.715 115.568 279.626C115.361 280.418 115.211 281.152 115.06 281.793C114.602 283.971 114.45 286.203 114.609 288.424C112.256 295.017 93.2634 297.842 77.791 298.935H77.0945C63.5334 299.939 49.8993 298.743 36.7194 295.394C24.7104 292.304 11.158 287.858 11.9109 283.224C16.3719 256.965 29.3408 235.546 33.896 180.22C34.1972 176.075 53.133 127.361 66.4408 111.669C67.6399 110.255 69.005 108.99 70.5065 107.902C71.3723 107.356 72.0311 106.903 72.577 106.489C76.2616 103.743 80.1575 101.292 84.2284 99.1611C85.5836 98.4264 87.1459 97.6352 88.9906 96.7122C122.872 80.1727 155.793 83.5258 171.811 115.55C172.399 116.747 172.836 118.012 173.11 119.317C173.416 120.502 173.605 121.713 173.675 122.934Z" fill="#F8C650"/>
        <path d="M163.699 92.9646L150.391 105.209C150.391 107.093 150.24 109.353 150.109 111.689C149.525 121.654 148.095 133.673 144.292 134.634C143.427 123.331 141.036 115.363 137.271 109.353C134.991 105.714 132.1 102.495 128.726 99.8403C123.2 95.6183 117.325 91.8749 111.164 88.6507C111.541 87.9349 128.105 65.5934 128.105 65.5934C132.716 59.0567 167.106 86.6539 163.699 92.9646Z" fill="#FCC7A9"/>
        <g style="mix-blend-mode:multiply" opacity="0.39">
            <path d="M163.605 96.4497L150.297 107.658C150.297 109.429 149.431 134.031 144.198 134.634C146.419 133.616 147.869 126.27 148.452 121.956C149.036 117.642 148.829 113.969 142.391 113.95C140.523 113.429 138.758 112.588 137.177 111.463C134.854 108.078 131.963 105.121 128.632 102.723C100.887 99.3318 118.147 83.4517 118.147 83.4517L163.605 96.4497Z" fill="#FCC7A9"/>
        </g>
        <path d="M138.307 110.971C138.031 113.097 138.31 115.258 139.116 117.244C139.116 117.244 127.427 117.018 124.434 112.986C121.441 108.955 136.443 110.123 138.194 110.764C138.236 110.777 138.271 110.806 138.292 110.844C138.313 110.883 138.318 110.928 138.307 110.971Z" fill="#F8C650"/>
        <g style="mix-blend-mode:multiply" opacity="0.51">
            <path d="M92.3409 202.824C101.188 182.686 93.2444 159.742 95.202 139.661C97.2161 118.939 95.0326 108.673 91.0798 103.549C87.7481 99.9133 98.6089 92.5478 102.223 94.2432C95.202 96.1269 97.7431 101.91 99.5313 103.361C106.684 108.767 110.524 129.281 110.524 129.281C110.524 129.281 131.85 116.095 137.403 116.095C129.008 114.607 104.124 90.5698 104.124 90.5698C95.7479 92.1334 74.3274 104.529 74.8921 104.416C74.3274 104.943 71.2969 107.298 70.4311 107.844C68.9296 108.932 67.5645 110.197 66.3653 111.612C53.0576 127.303 34.1217 176.018 33.8206 180.162C29.2654 235.488 16.2965 256.907 11.8354 283.167C11.0825 287.82 24.635 292.246 36.644 295.336C49.8239 298.685 63.458 299.881 77.0191 298.877C61.6032 295.807 -2.03704 287.123 38.3004 256.907C43.4202 253.139 92.7362 278.759 115.286 279.625C115.343 279.572 115.416 279.539 115.493 279.531C117.206 278.796 123.116 281.057 126.392 282.62C126.787 282.809 127.201 282.997 127.502 283.167C138.89 275.104 136.349 264.894 136.386 260.561C136.499 253.196 83.1365 223.79 92.3409 202.824Z" fill="#F8C650"/>
        </g>
        <g style="mix-blend-mode:multiply">
            <path d="M116.604 112.14C123.436 112.385 137.855 110.256 138.288 110.84C138.297 110.89 138.297 110.941 138.288 110.991C138 113.11 138.279 115.269 139.097 117.245C131.587 111.142 117.451 115.832 116.604 112.14Z" fill="#F8C650"/>
        </g>
        <path d="M138.194 110.763C137.064 110.349 134.429 111.517 131.361 113.438C127.051 116.225 122.885 119.23 118.881 122.442C114.213 126.21 110.543 129.262 110.543 129.262C110.543 129.262 110.806 107.937 102.543 101.928C94.2799 95.9189 105.329 89.9097 106.722 88.7417C107.869 87.6693 109.131 86.7279 110.486 85.9349C110.486 85.9349 114.552 83.4483 117.225 83.6932C119.898 83.9381 115.343 84.1265 114.025 88.7983C115.079 98.8764 135.013 109.068 138.194 110.763Z" fill="#F8C650"/>
        <g style="mix-blend-mode:multiply" opacity="0.55">
            <path d="M149.996 116.172C152.443 113.987 156.565 125.987 160.235 128.342C161.647 121.748 163.228 111.199 163.605 108.166C157.299 104.851 151.332 111.143 149.996 116.172Z" fill="#F8C650"/>
        </g>
        <g style="mix-blend-mode:multiply">
            <path d="M149.996 116.547C149.996 116.547 150.956 111.555 154.739 109.747C158.146 108.146 151.84 109.747 150.523 110.067C150.453 110.08 150.39 110.118 150.345 110.173C150.301 110.228 150.277 110.297 150.278 110.368L149.996 116.547Z" fill="#F8C650"/>
        </g>
        <path d="M150.391 110.123C150.391 110.123 152.499 109.106 155.228 117.244C157.958 125.381 160.122 127.228 160.122 127.228C160.122 127.228 160.668 112.779 162.494 110.839C164.32 108.898 160.612 101.91 160.612 101.91L150.391 110.123Z" fill="#F8C650"/>
        <path d="M183.82 55.6071C182.884 57.6988 182.477 59.9891 182.634 62.2757C183.18 70.018 180.131 77.5531 175.105 86.2372C161.327 109.935 160.273 106.733 148.038 103.945C140.496 102.227 133.639 98.2907 128.349 92.6421C121.008 84.8244 114.552 73.8044 109.131 58.0184C108.115 55.0827 107.698 51.9728 107.905 48.8728C108.112 45.7729 108.938 42.746 110.336 39.9718C124.359 12.5064 150.749 23.7714 174.334 28.9894C191.971 32.9077 187.736 47.0925 183.82 55.6071Z" fill="#FCC7A9"/>
        <path d="M186.455 48.3748C186.455 48.3748 167.425 39.4834 170.87 31.7222C172.018 29.1791 166.767 27.8417 163.981 27.7286C147.53 27.0505 135.878 34.4537 132.49 44.2305C131.798 46.2351 131.461 48.3451 131.493 50.4658C131.718 66.2706 121.498 58.6413 118.975 64.6129C117.601 67.8341 115.211 68.5499 114.891 72.3552C109.244 63.8782 106.552 46.9431 104.256 35.1695C104.501 23.509 109.357 14.8813 123.248 8.25045C146.476 -2.88264 166.39 6.12178 176.649 16.5767C200.008 22.228 204.808 37.6749 186.455 48.3748Z" fill="#3B5765"/>
        <path d="M118.975 64.5919C117.601 67.8508 118.674 74.9903 118.241 78.7956C107.625 62.614 94.1103 22.2824 123.248 8.22949L118.975 64.5919Z" fill="#3B5765"/>
        <path d="M124.603 61.9355C121.742 67.1159 125.959 74.0293 122.495 75.3292C119.032 76.629 114.364 72.7484 112.067 66.6638C109.771 60.5792 107.908 55.6437 114.176 53.2702C122.175 50.2562 127.747 56.2277 124.603 61.9355Z" fill="#FCC7A9"/>
        <path d="M70.3935 208.25L87.7859 158.82C105.573 122.463 94.5433 106.847 92.6798 104.756C90.3269 102.118 83.7578 101.497 80.7649 102.231C66.836 105.697 50.1213 123.424 33.3313 170.292C33.0677 171.027 20.4376 210.134 20.1552 211.358C19.9482 211.904 53.7729 205.33 70.3935 208.25Z" fill="#F8C650"/>
        <g style="mix-blend-mode:multiply" opacity="0.69">
            <path d="M144.255 137.213C144.593 160.045 140.904 183.422 130.608 203.993C126.339 214.582 123.436 225.673 121.968 236.997C120.274 248.299 119.145 259.602 118.58 271.112H118.467C118.322 259.639 119.103 248.174 120.801 236.827C122.571 225.525 124.999 214.222 130.006 203.729C135.35 193.602 138.909 182.628 140.528 171.291C142.429 160.016 143.636 148.636 144.142 137.213H144.255Z" fill="#F8C650"/>
        </g>
        <g style="mix-blend-mode:multiply" opacity="0.14">
            <path d="M118.881 121.689C119.728 113.984 108.096 96.7288 114.1 99.2719C117.752 106.43 127.653 110.895 131.361 113.438C127.05 116.225 122.885 119.23 118.881 122.442C118.836 122.193 118.836 121.938 118.881 121.689Z" fill="#F8C650"/>
        </g>
        <path d="M191.293 271.789C190.14 271.393 188.888 271.393 187.736 271.789L115.098 298.445C114.665 298.087 113.875 297.446 113.724 297.672C113.448 298.374 113.307 299.122 113.31 299.876C113.321 300.091 113.395 300.298 113.522 300.472C113.649 300.646 113.824 300.78 114.025 300.856L187.19 328.02C187.919 328.32 188.738 328.32 189.467 328.02L264.966 294.395L191.293 271.789Z" fill="#3B5765"/>
        <path d="M189.787 326.401L266.566 293.171L191.594 270.057C190.441 269.663 189.19 269.663 188.037 270.057L114.364 297.184C114.151 297.266 113.968 297.41 113.838 297.599C113.709 297.787 113.64 298.01 113.64 298.238C113.64 298.467 113.709 298.69 113.838 298.878C113.968 299.067 114.151 299.211 114.364 299.293L187.51 326.457C187.874 326.598 188.263 326.666 188.654 326.656C189.045 326.646 189.43 326.56 189.787 326.401Z" fill="#ABE3EF"/>
        <path d="M297.699 214.485C295.816 212.3 295.233 212.601 294.254 212.846L217.08 238.39C216.249 238.671 215.494 239.143 214.876 239.768C214.259 240.392 213.795 241.153 213.523 241.988L187.001 324.874C186.917 325.158 186.915 325.46 186.996 325.746C187.077 326.031 187.238 326.287 187.459 326.484C187.68 326.682 187.952 326.812 188.244 326.861C188.537 326.909 188.837 326.873 189.109 326.757L266.66 292.303C267.348 291.994 267.968 291.549 268.482 290.996C268.996 290.443 269.394 289.792 269.653 289.082L296.005 215.276C296.629 215.166 297.214 214.893 297.699 214.485Z" fill="#3B5765"/>
        <g style="mix-blend-mode:multiply">
            <path d="M189.787 326.401L266.566 293.171L191.594 270.057C190.441 269.663 189.19 269.663 188.037 270.057L114.364 297.184C114.151 297.266 113.968 297.41 113.838 297.599C113.709 297.787 113.64 298.01 113.64 298.238C113.64 298.467 113.709 298.69 113.838 298.878C113.968 299.067 114.151 299.211 114.364 299.293L187.51 326.457C187.874 326.598 188.263 326.666 188.654 326.656C189.045 326.646 189.43 326.56 189.787 326.401Z" fill="#ABE3EF"/>
        </g>
        <g style="mix-blend-mode:multiply">
            <path d="M192.347 323.688L261.822 293.547L214.765 280.738C213.72 280.389 212.591 280.389 211.546 280.738L144.876 305.227C144.695 305.309 144.543 305.442 144.436 305.609C144.329 305.776 144.272 305.97 144.272 306.169C144.272 306.367 144.329 306.561 144.436 306.728C144.543 306.895 144.695 307.028 144.876 307.111L190.22 323.744C190.561 323.876 190.924 323.939 191.289 323.929C191.654 323.919 192.014 323.837 192.347 323.688Z" fill="#ABE3EF"/>
        </g>
        <g style="mix-blend-mode:multiply">
            <path d="M167.915 294.245L189.655 286.71C189.744 286.683 189.822 286.628 189.877 286.553C189.932 286.479 189.962 286.388 189.962 286.295C189.962 286.202 189.932 286.112 189.877 286.037C189.822 285.963 189.744 285.908 189.655 285.881L175.011 280.682H173.957L152.97 288.386V288.989L167.219 294.151L167.915 294.245Z" fill="#ABE3EF"/>
        </g>
        <path d="M190.917 328.002L268.467 293.548C269.155 293.238 269.775 292.794 270.289 292.241C270.803 291.687 271.201 291.037 271.46 290.327L297.962 216.012C298.056 215.744 298.075 215.456 298.016 215.179C297.957 214.902 297.823 214.646 297.629 214.44C297.434 214.234 297.187 214.085 296.914 214.01C296.641 213.935 296.352 213.937 296.08 214.015L218.906 239.559C218.074 239.841 217.32 240.313 216.702 240.937C216.085 241.562 215.621 242.322 215.349 243.157L188.827 326.043C188.716 326.33 188.693 326.644 188.762 326.944C188.83 327.245 188.986 327.518 189.211 327.728C189.436 327.939 189.718 328.078 190.022 328.126C190.326 328.175 190.637 328.132 190.917 328.002Z" fill="#ABE3EF"/>
        <g style="mix-blend-mode:screen" opacity="0.54">
            <path d="M250.83 270.509C254.594 266.101 255.799 261.09 253.634 259.206C251.47 257.322 246.689 259.451 242.962 263.859C242.001 265.019 241.174 266.282 240.496 267.627C235.47 267.721 231.517 269.605 231.367 272.185C231.216 274.766 235.734 277.592 241.475 277.837C247.216 278.082 252.015 276.141 252.185 273.297C252.186 272.759 252.065 272.229 251.83 271.746C251.595 271.262 251.253 270.839 250.83 270.509Z" fill="#ABE3EF"/>
        </g>
        <g style="mix-blend-mode:multiply" opacity="0.45">
            <path d="M296.023 214.012L294.405 214.54C294.405 214.54 294.405 214.728 294.405 214.822C294.405 214.917 282.753 239.312 271.685 260.24C262.609 277.463 248.262 291.325 230.746 299.799L191.218 318.882L188.883 326.191C188.791 326.476 188.783 326.782 188.861 327.072C188.939 327.361 189.1 327.622 189.323 327.822C189.547 328.021 189.823 328.152 190.12 328.197C190.416 328.242 190.719 328.199 190.992 328.075L268.542 293.621C269.231 293.316 269.851 292.872 270.362 292.318C270.874 291.764 271.267 291.111 271.516 290.399L298.037 216.085C298.171 215.8 298.214 215.482 298.162 215.173C298.11 214.863 297.965 214.576 297.746 214.351C297.528 214.126 297.246 213.973 296.938 213.913C296.63 213.852 296.311 213.887 296.023 214.012Z" fill="#ABE3EF"/>
        </g>
        <path d="M108.04 249.352C108.04 249.352 131.474 265.119 135.54 266.193C141.551 267.232 147.626 267.862 153.723 268.077C157.487 268.265 168.781 280.378 170.663 286.387C172.546 292.396 172.546 298.971 170.776 301.137C169.007 303.303 158.184 302.286 150.165 299.14C142.147 295.994 138.871 286.538 136.104 285.37C133.337 284.202 94.6941 265.835 94.6941 265.835L108.04 249.352Z" fill="#FCC7A9"/>
        <path d="M70.0359 213.149L71.2405 205.971C56.3516 213.356 32.5783 192.314 20.5694 210.398C19.9521 213.507 19.9521 216.708 20.5694 219.817C21.977 225.786 24.9759 231.261 29.2467 235.66C32.3478 238.317 35.8076 240.524 39.524 242.215C56.4646 256.287 84.5672 269.793 121.611 282.886C127.935 285.523 138.25 263.087 136.405 260.808L70.0359 213.149Z" fill="#F8C650"/>
        <path d="M153.666 268.982C156.075 269.491 158.673 269.924 161.195 270.207C162.383 270.338 163.576 270.408 164.771 270.414C165.788 270.414 167.124 270.113 166.767 270.414C167.122 270.112 167.535 269.886 167.981 269.749C168.427 269.612 168.897 269.568 169.36 269.619C169.824 269.671 170.272 269.816 170.678 270.047C171.083 270.277 171.437 270.589 171.718 270.961C171.999 271.334 172.201 271.76 172.312 272.213C172.423 272.666 172.44 273.138 172.362 273.598C172.285 274.058 172.114 274.498 171.861 274.89C171.607 275.282 171.277 275.618 170.889 275.877C169.201 276.984 167.255 277.633 165.242 277.761C163.698 277.911 162.249 277.911 160.819 277.911C157.958 277.911 155.172 277.667 152.386 277.346C151.84 277.283 151.311 277.113 150.831 276.846C150.35 276.578 149.927 276.219 149.585 275.787C149.243 275.356 148.99 274.862 148.839 274.333C148.688 273.803 148.643 273.25 148.706 272.703C148.769 272.156 148.939 271.627 149.206 271.146C149.474 270.665 149.833 270.242 150.264 269.9C150.695 269.558 151.189 269.304 151.717 269.153C152.246 269.002 152.8 268.957 153.346 269.02L153.666 268.982Z" fill="#FCC7A9"/>
    </g>
    <defs>
        <clipPath id="clip0">
            <rect width="615" height="647" fill="white" transform="translate(-254)"/>
        </clipPath>
    </defs>
</svg>
