<svg width="171" height="167" viewBox="0 0 171 167" fill="none" xmlns="http://www.w3.org/2000/svg">
    <g clip-path="url(#clip0)">
        <path d="M74.29 166C73.12 165 15.88 135.75 15.88 135.75L0 79.4004L59.76 110L74.29 166Z" fill="#E69778"/>
        <path d="M74.2299 164.941C75.5099 164.201 172.17 -0.739471 170.88 0.000529436C169.59 0.740529 58.4099 109.651 58.4099 109.651L74.2299 164.941Z" fill="url(#paint0_linear)"/>
        <path d="M74.2299 164.941C75.5099 164.201 172.17 -0.739471 170.88 0.000529436C169.59 0.740529 58.4099 109.651 58.4099 109.651L74.2299 164.941Z" fill="#CF653D"/>
        <path d="M0 79.4L58.41 109.65L170.88 0L0 79.4Z" fill="#EC8F70"/>
        <path style="mix-blend-mode:overlay" d="M0 79.4L58.41 109.65L170.88 0L0 79.4Z" fill="url(#paint1_linear)"/>
    </g>
    <defs>
        <linearGradient id="paint0_linear" x1="150.739" y1="88.8723" x2="67.3928" y2="69.9824" gradientUnits="userSpaceOnUse">
            <stop stop-color="#CFAB7F"/>
            <stop offset="0.63" stop-color="#BF8E60"/>
            <stop offset="1" stop-color="#B98254"/>
        </linearGradient>
        <linearGradient id="paint1_linear" x1="-1.06158" y1="72.4487" x2="177.766" y2="45.2119" gradientUnits="userSpaceOnUse">
            <stop stop-color="white"/>
            <stop offset="0.08" stop-color="white" stop-opacity="0.8"/>
            <stop offset="0.17" stop-color="white" stop-opacity="0.59"/>
            <stop offset="0.27" stop-color="white" stop-opacity="0.41"/>
            <stop offset="0.36" stop-color="white" stop-opacity="0.26"/>
            <stop offset="0.46" stop-color="white" stop-opacity="0.15"/>
            <stop offset="0.55" stop-color="white" stop-opacity="0.07"/>
            <stop offset="0.64" stop-color="white" stop-opacity="0.02"/>
            <stop offset="0.72" stop-color="white" stop-opacity="0"/>
        </linearGradient>
        <clipPath id="clip0">
            <rect width="170.9" height="166.04" fill="white"/>
        </clipPath>
    </defs>
</svg>
