<svg width="158" height="173" viewBox="0 0 158 173" fill="none" xmlns="http://www.w3.org/2000/svg">
    <g clip-path="url(#clip0)">
        <path d="M5.16181 45.4432C4.04486 46.0223 3.05296 46.8169 2.24306 47.7814C1.43317 48.7459 0.821215 49.8613 0.442333 51.0636C0.063452 52.2658 -0.0748969 53.5313 0.035228 54.7873C0.145353 56.0433 0.501783 57.2651 1.08406 58.3826L57.6306 167.85L153.613 117.956L101.454 17.0283L97.0661 8.54001L92.6528 0L5.16181 45.4432Z" fill="#878CF0"/>
        <path d="M4.12993 46.0898C2.21849 47.4109 0.854112 49.3866 0.293299 51.6455C-0.267514 53.9044 0.0138582 56.2909 1.08452 58.3564L57.6311 167.824C58.6924 169.901 60.4772 171.514 62.6466 172.359C64.816 173.203 67.2191 173.219 69.3998 172.404L4.12993 46.0898Z" fill="#7579D0"/>
        <path d="M158 126.469L70.5093 171.912C69.3948 172.496 68.1763 172.854 66.9237 172.964C65.6711 173.075 64.4091 172.936 63.2101 172.556C62.0111 172.176 60.8988 171.562 59.9369 170.75C58.975 169.938 58.1826 168.944 57.6051 167.824C57.0228 166.706 56.6663 165.484 56.5562 164.228C56.4461 162.972 56.5845 161.707 56.9633 160.504C57.3422 159.302 57.9542 158.187 58.7641 157.222C59.574 156.258 60.5659 155.463 61.6828 154.884L149.225 109.467L158 126.469Z" fill="#7579D0"/>
        <path d="M69.4773 169.946C67.749 170.845 65.7352 171.019 63.8791 170.429C62.0229 169.839 60.4764 168.534 59.5797 166.801C58.683 165.068 58.5097 163.049 59.0977 161.188C59.6858 159.327 60.9871 157.776 62.7155 156.877L150.232 111.434L156.994 124.373L69.4773 169.946Z" fill="#F9F8F7"/>
        <path d="M83.8224 36.8399L31.8047 63.8652L39.3797 78.525L91.3975 51.4997L83.8224 36.8399Z" fill="#7579D0"/>
        <path d="M110.418 88.3679L58.3906 115.375L59.1263 116.8L111.153 89.7928L110.418 88.3679Z" fill="#7579D0"/>
        <path d="M116.332 99.7644L64.3047 126.771L65.0403 128.196L117.067 101.189L116.332 99.7644Z" fill="#7579D0"/>
    </g>
    <defs>
        <clipPath id="clip0">
            <rect width="158" height="173" fill="white"/>
        </clipPath>
    </defs>
</svg>
