<svg width="158" height="173" viewBox="0 0 158 173" fill="none" xmlns="http://www.w3.org/2000/svg">
    <g clip-path="url(#clip0)">
        <path d="M5.16157 45.4432C4.04461 46.0223 3.05272 46.8169 2.24282 47.7814C1.43292 48.7459 0.82097 49.8613 0.442089 51.0636C0.0632079 52.2658 -0.075141 53.5313 0.0349838 54.7873C0.145109 56.0433 0.501539 57.2651 1.08381 58.3826L57.6304 167.85L153.612 117.956L101.453 17.0283L97.0659 8.54001L92.6526 0L5.16157 45.4432Z" fill="#878CF0"/>
        <path d="M4.12969 46.0898C2.21824 47.4109 0.853868 49.3866 0.293055 51.6455C-0.267758 53.9044 0.0136141 56.2909 1.08428 58.3564L57.6308 167.824C58.6922 169.901 60.4769 171.514 62.6464 172.359C64.8158 173.203 67.2189 173.219 69.3995 172.404L4.12969 46.0898Z" fill="#7579D0"/>
        <path d="M158 126.469L70.5091 171.912C69.3946 172.496 68.1761 172.854 66.9235 172.964C65.6709 173.075 64.4089 172.936 63.2099 172.556C62.0109 172.176 60.8985 171.562 59.9367 170.75C58.9748 169.938 58.1823 168.944 57.6048 167.824C57.0225 166.706 56.6661 165.484 56.556 164.228C56.4459 162.972 56.5842 161.707 56.9631 160.504C57.342 159.302 57.9539 158.187 58.7638 157.222C59.5737 156.258 60.5656 155.463 61.6826 154.884L149.225 109.467L158 126.469Z" fill="#7579D0"/>
        <path d="M69.4771 169.946C67.7487 170.845 65.735 171.019 63.8788 170.429C62.0227 169.839 60.4762 168.534 59.5795 166.801C58.6828 165.068 58.5094 163.049 59.0975 161.188C59.6856 159.327 60.9869 157.776 62.7152 156.877L150.232 111.434L156.994 124.373L69.4771 169.946Z" fill="#F9F8F7"/>
        <path d="M83.8222 36.8399L31.8044 63.8652L39.3795 78.525L91.3972 51.4997L83.8222 36.8399Z" fill="#7579D0"/>
        <path d="M110.418 88.3679L58.3906 115.375L59.1263 116.8L111.153 89.7928L110.418 88.3679Z" fill="#7579D0"/>
        <path d="M116.331 99.7644L64.3042 126.771L65.0398 128.196L117.067 101.189L116.331 99.7644Z" fill="#7579D0"/>
    </g>
    <defs>
        <clipPath id="clip0">
            <rect width="158" height="173" fill="white"/>
        </clipPath>
    </defs>
</svg>
