<svg width="171" height="167" viewBox="0 0 171 167" fill="none" xmlns="http://www.w3.org/2000/svg">
    <g clip-path="url(#clip0)">
        <path d="M96.6099 166C97.7799 165 155.02 135.75 155.02 135.75L170.9 79.4004L111.14 110L96.6099 166Z" fill="#E69778"/>
        <path d="M96.6697 164.941C95.3897 164.201 -1.27026 -0.739471 0.0197449 0.000529436C1.30975 0.740529 112.49 109.651 112.49 109.651L96.6697 164.941Z" fill="url(#paint0_linear)"/>
        <path d="M96.6697 164.941C95.3897 164.201 -1.27026 -0.739471 0.0197449 0.000529436C1.30975 0.740529 112.49 109.651 112.49 109.651L96.6697 164.941Z" fill="#CF653D"/>
        <path d="M170.9 79.4L112.49 109.65L0.0198975 0L170.9 79.4Z" fill="#EC8F70"/>
        <path style="mix-blend-mode:overlay" d="M170.9 79.4L112.49 109.65L0.0198975 0L170.9 79.4Z" fill="url(#paint1_linear)"/>
    </g>
    <defs>
        <linearGradient id="paint0_linear" x1="20.1606" y1="88.8723" x2="103.507" y2="69.9824" gradientUnits="userSpaceOnUse">
            <stop stop-color="#CFAB7F"/>
            <stop offset="0.63" stop-color="#BF8E60"/>
            <stop offset="1" stop-color="#B98254"/>
        </linearGradient>
        <linearGradient id="paint1_linear" x1="171.961" y1="72.4487" x2="-6.86625" y2="45.2119" gradientUnits="userSpaceOnUse">
            <stop stop-color="white"/>
            <stop offset="0.08" stop-color="white" stop-opacity="0.8"/>
            <stop offset="0.17" stop-color="white" stop-opacity="0.59"/>
            <stop offset="0.27" stop-color="white" stop-opacity="0.41"/>
            <stop offset="0.36" stop-color="white" stop-opacity="0.26"/>
            <stop offset="0.46" stop-color="white" stop-opacity="0.15"/>
            <stop offset="0.55" stop-color="white" stop-opacity="0.07"/>
            <stop offset="0.64" stop-color="white" stop-opacity="0.02"/>
            <stop offset="0.72" stop-color="white" stop-opacity="0"/>
        </linearGradient>
        <clipPath id="clip0">
            <rect width="170.9" height="166.04" fill="white" transform="matrix(-1 0 0 1 170.9 0)"/>
        </clipPath>
    </defs>
</svg>
