<svg width="266" height="249" viewBox="0 0 266 249" fill="none" xmlns="http://www.w3.org/2000/svg">
    <g clip-path="url(#clip0)">
        <path d="M174.3 11.5106L247.364 110.447L182.241 190.154L86.9215 228.938L13.8572 130.001L15.3918 126.771L88.235 225.438L180.221 187.456L243.613 110.697L170.77 12.0293L174.3 11.5106Z" fill="#FECA7A"/>
        <path d="M170.77 12.0296L243.613 110.697L180.22 187.456L88.2346 225.438L15.3914 126.771L16.9013 123.554L89.5481 221.939L178.24 184.769L239.872 110.908L167.226 12.5234L170.77 12.0296Z" fill="#F7AC4B"/>
        <path d="M167.226 12.5235L239.873 110.908L178.24 184.769L89.5484 221.939L16.9016 123.554L18.4219 120.299L90.8476 218.415L176.245 182.057L236.147 111.144L163.696 13.0421L167.226 12.5235Z" fill="#D6E2EA"/>
        <path d="M163.697 13.0419L236.147 111.144L176.245 182.056L90.848 218.414L18.4222 120.298L19.9569 117.068L92.1862 214.901L174.25 179.344L232.407 111.355L160.153 13.5358L163.697 13.0419Z" fill="#D6E2EA"/>
        <path d="M160.153 13.5359L232.407 111.355L174.25 179.344L102.035 81.5361L160.153 13.5359Z" fill="#F9F8F7"/>
        <path d="M102.035 81.5363L174.25 179.345L92.1859 214.901L19.9565 117.068L102.035 81.5363Z" fill="#F9F8F7"/>
        <path d="M49.1124 129.338L49.9058 131.145L105.898 106.57L105.104 104.763L49.1124 129.338Z" fill="#A5B7C6"/>
        <path d="M57.7474 141.023L58.5408 142.83L114.533 118.255L113.739 116.448L57.7474 141.023Z" fill="#A5B7C6"/>
        <path d="M66.3961 152.733L67.1895 154.54L123.181 129.965L122.388 128.158L66.3961 152.733Z" fill="#A5B7C6"/>
        <path d="M75.0309 164.418L75.8242 166.225L131.816 141.65L131.023 139.843L75.0309 164.418Z" fill="#A5B7C6"/>
        <path d="M83.6652 176.103L84.4585 177.91L140.45 153.335L139.657 151.528L83.6652 176.103Z" fill="#A5B7C6"/>
        <path d="M92.275 187.802L93.0684 189.609L149.06 165.034L148.267 163.227L92.275 187.802Z" fill="#A5B7C6"/>
        <path d="M163.301 45.0351L123.335 91.3181L124.828 92.6083L164.794 46.3253L163.301 45.0351Z" fill="#A5B7C6"/>
        <path d="M171.922 56.7181L131.94 102.987L133.433 104.278L173.415 58.0088L171.922 56.7181Z" fill="#A5B7C6"/>
        <path d="M180.544 68.4082L140.594 114.705L142.088 115.995L182.038 69.6979L180.544 68.4082Z" fill="#A5B7C6"/>
        <path d="M189.177 80.1078L149.227 126.405L150.721 127.694L190.67 81.3975L189.177 80.1078Z" fill="#A5B7C6"/>
        <path d="M197.81 91.8066L157.86 138.104L159.354 139.393L199.304 93.0963L197.81 91.8066Z" fill="#A5B7C6"/>
        <path d="M206.451 103.478L166.493 149.768L167.987 151.058L207.944 104.768L206.451 103.478Z" fill="#A5B7C6"/>
    </g>
    <defs>
        <clipPath id="clip0">
            <rect width="212" height="164" fill="white" transform="translate(0 106) rotate(-30)"/>
        </clipPath>
    </defs>
</svg>
