<svg width="172" height="248" viewBox="0 0 172 248" fill="none" xmlns="http://www.w3.org/2000/svg">
    <g clip-path="url(#clip0)">
        <path d="M77.797 65.6441L69.0169 77.4377L57.2806 93.3681L48.5969 105.284C46.2849 103.584 44.3315 101.445 42.8488 98.988C41.3661 96.5314 40.3833 93.8064 39.957 90.9694C39.5306 88.1324 39.6691 85.2393 40.3644 82.4564C41.0596 79.6735 42.2981 77.0556 44.0085 74.753L47.3108 70.2484C50.7427 65.5977 55.8816 62.5003 61.5982 61.637C67.3147 60.7736 73.1412 62.2149 77.797 65.6441Z" fill="#0083CA"/>
        <path d="M69.0166 77.4376L81.9149 86.9213C79.601 89.284 77.4538 91.8044 75.4888 94.4642C73.5096 97.1338 71.7299 99.9456 70.1641 102.877L57.2802 93.3679L69.0166 77.4376Z" fill="#0074B3"/>
        <path d="M100.621 52.2084L115.11 50.2561L134.741 47.7322L149.216 45.805C148.472 40.075 145.485 34.8735 140.909 31.3427C136.333 27.8119 130.543 26.2403 124.811 26.9731L119.247 27.7005C113.529 28.4893 108.359 31.5115 104.868 36.1052C101.376 40.6989 99.8492 46.4894 100.621 52.2084Z" fill="#0083CA"/>
        <path d="M115.24 50.2639L117.296 66.1436C120.478 65.2568 123.718 64.5946 126.993 64.1619C130.279 63.748 133.59 63.562 136.902 63.6053L134.87 47.7401L115.24 50.2639Z" fill="#0074B3"/>
        <path d="M101.157 59.2633C112.752 54.5792 125.41 53.156 137.758 55.1479C150.107 57.1399 161.677 62.471 171.215 70.5641C180.753 78.6572 187.896 89.2038 191.87 101.062C195.844 112.92 196.498 125.638 193.762 137.839C191.71 147.032 187.783 155.702 182.228 163.308C176.673 170.914 169.608 177.292 161.475 182.044C153.342 186.797 144.316 189.821 134.96 190.928C125.604 192.036 116.119 191.202 107.098 188.48C95.1257 184.867 84.3678 178.05 75.9877 168.768C67.6076 159.486 61.9241 148.091 59.552 135.815C57.1799 123.539 58.2093 110.85 62.529 99.1199C66.8487 87.3895 74.2942 77.0642 84.0605 69.2605C86.6448 67.2034 89.3815 65.3454 92.2471 63.7024C95.1047 62.0072 98.0828 60.5235 101.157 59.2633Z" fill="#0083CA"/>
        <path d="M135.129 190.906L137.038 204.263C137.446 207.385 136.764 210.552 135.107 213.229C133.45 215.906 130.92 217.93 127.943 218.958C124.967 219.986 121.727 219.956 118.769 218.873C115.811 217.79 113.318 215.72 111.708 213.013C110.818 211.518 110.217 209.869 109.939 208.151L107.098 188.48C116.171 191.235 125.719 192.061 135.129 190.906Z" fill="#0074B3"/>
        <path d="M164.298 80.8412C141.093 60.1698 105.527 62.2131 84.8603 85.405C64.1934 108.597 66.2511 144.155 89.4563 164.826C112.662 185.498 148.227 183.454 168.894 160.263C189.561 137.071 187.503 101.513 164.298 80.8412Z" fill="#F9FBFC"/>
        <path d="M100.34 79.8442L107.221 91.6042L109.268 90.4074L102.387 78.6473L100.34 79.8442Z" fill="#3A4D57"/>
        <path d="M144.477 155.302L151.356 167.063L153.404 165.867L146.525 154.106L144.477 155.302Z" fill="#3A4D57"/>
        <path d="M82.6286 147.335L83.8262 149.383L95.5874 142.51L94.3899 140.463L82.6286 147.335Z" fill="#3A4D57"/>
        <path d="M158.113 103.224L159.311 105.272L171.072 98.3996L169.875 96.352L158.113 103.224Z" fill="#3A4D57"/>
        <path d="M78.2948 108.884L77.6934 111.178L90.8731 114.637L91.4746 112.344L78.2948 108.884Z" fill="#3A4D57"/>
        <path d="M162.856 131.096L162.254 133.39L175.434 136.849L176.036 134.555L162.856 131.096Z" fill="#3A4D57"/>
        <path d="M116.353 158.245L112.898 171.42L115.193 172.022L118.648 158.847L116.353 158.245Z" fill="#3A4D57"/>
        <path d="M138.511 73.6967L135.056 86.8721L137.351 87.4743L140.806 74.2989L138.511 73.6967Z" fill="#3A4D57"/>
        <path d="M148.104 130.879L125.302 124.894L108.054 95.4016L112.176 93.0066L128.438 120.794L149.326 126.276L148.104 130.879Z" fill="#3A4D57"/>
        <path d="M131.782 119.92C132.342 120.877 132.605 121.979 132.539 123.086C132.473 124.193 132.08 125.255 131.41 126.139C130.741 127.022 129.824 127.687 128.776 128.051C127.729 128.414 126.597 128.458 125.523 128.178C124.45 127.899 123.484 127.307 122.746 126.479C122.008 125.651 121.533 124.623 121.379 123.525C121.225 122.426 121.4 121.307 121.882 120.309C122.364 119.31 123.131 118.477 124.087 117.915C124.723 117.54 125.427 117.294 126.159 117.192C126.891 117.09 127.635 117.133 128.35 117.32C129.065 117.506 129.736 117.832 130.325 118.278C130.914 118.724 131.409 119.282 131.782 119.92Z" fill="#3A4D57"/>
    </g>
    <defs>
        <clipPath id="clip0">
            <rect width="174" height="193" fill="white" transform="translate(0 150.688) rotate(-60)"/>
        </clipPath>
    </defs>
</svg>
