<svg width="243" height="266" viewBox="0 0 243 266" fill="none" xmlns="http://www.w3.org/2000/svg">
    <path d="M229.347 143.906L152.692 240.087L58.8462 197.812L-3.28644 115.779L73.3682 19.5979L76.8861 20.244L0.433767 116.142L60.9294 195.163L151.48 236.529L227.933 140.63L229.347 143.906Z" fill="#FECA7A"/>
    <path d="M227.932 140.628L151.48 236.526L60.9291 195.161L0.433427 116.14L76.8858 20.2414L80.3835 20.8673L4.15364 116.503L63.0123 192.552L150.308 232.968L226.538 137.333L227.932 140.628Z" fill="#F7AC4B"/>
    <path d="M226.538 137.334L150.308 232.969L63.0124 192.553L4.15369 116.504L80.3836 20.8686L83.9218 21.4945L7.89413 116.847L65.1158 189.924L149.116 229.431L225.123 134.059L226.538 137.334Z" fill="#D6E2EA"/>
    <path d="M225.124 134.06L149.116 229.432L65.1162 189.925L7.89451 116.848L83.9221 21.4958L87.4401 22.1419L11.6349 117.231L67.2196 187.296L147.945 225.874L223.73 130.765L225.124 134.06Z" fill="#D6E2EA"/>
    <path d="M223.729 130.764L147.944 225.873L67.2194 187.296L143.004 92.2266L223.729 130.764Z" fill="#F9F8F7"/>
    <path d="M143.004 92.226L67.2192 187.295L11.6346 117.23L87.4397 22.1406L143.004 92.226Z" fill="#F9F8F7"/>
    <path d="M83.1336 53.4809L81.5935 54.7148L119.823 102.438L121.363 101.204L83.1336 53.4809Z" fill="#A5B7C6"/>
    <path d="M74.0818 64.8441L72.5417 66.0781L110.771 113.802L112.311 112.568L74.0818 64.8441Z" fill="#A5B7C6"/>
    <path d="M65.0093 76.2309L63.4692 77.4648L101.699 125.188L103.239 123.954L65.0093 76.2309Z" fill="#A5B7C6"/>
    <path d="M55.9576 87.5941L54.4175 88.8281L92.6469 136.552L94.187 135.318L55.9576 87.5941Z" fill="#A5B7C6"/>
    <path d="M46.9051 98.9574L45.365 100.191L83.5945 147.915L85.1345 146.681L46.9051 98.9574Z" fill="#A5B7C6"/>
    <path d="M37.8328 110.301L36.2927 111.535L74.5222 159.259L76.0623 158.025L37.8328 110.301Z" fill="#A5B7C6"/>
    <path d="M194.118 141.957L139.068 115.332L138.209 117.108L193.259 143.733L194.118 141.957Z" fill="#A5B7C6"/>
    <path d="M185.065 153.308L130.024 126.664L129.164 128.44L184.204 155.084L185.065 153.308Z" fill="#A5B7C6"/>
    <path d="M176.005 164.665L120.945 138.059L120.086 139.835L175.145 166.441L176.005 164.665Z" fill="#A5B7C6"/>
    <path d="M166.938 176.028L111.879 149.422L111.02 151.198L166.079 177.804L166.938 176.028Z" fill="#A5B7C6"/>
    <path d="M157.872 187.395L102.813 160.789L101.954 162.566L157.013 189.172L157.872 187.395Z" fill="#A5B7C6"/>
    <path d="M148.835 198.764L93.7805 172.148L92.9211 173.925L147.976 200.54L148.835 198.764Z" fill="#A5B7C6"/>
</svg>
