<svg width="232" height="232" viewBox="0 0 232 232" fill="none" xmlns="http://www.w3.org/2000/svg">
    <path d="M224.845 39.6315L220.961 49.3922L213.152 39.5769L217.036 29.8162L224.845 39.6315Z" fill="#1857BD"/>
    <path d="M224.844 39.6318L220.959 49.3924L218.863 49.7121L222.785 39.9414L224.844 39.6318Z" fill="#C0BFBF"/>
    <path d="M222.784 39.9409L218.863 49.7118L211.054 39.8964L214.975 30.1255L222.784 39.9409Z" fill="#868585"/>
    <path d="M208.993 37.2164L205.109 46.9771L200.716 41.4537L204.6 31.6929L208.993 37.2164Z" fill="#1857BD"/>
    <path d="M208.993 37.217L205.108 46.9771L203.011 47.2968L206.896 37.5367L208.993 37.217Z" fill="#C0BFBF"/>
    <path d="M206.895 37.5357L203.011 47.2964L198.618 41.773L202.539 32.0022L206.895 37.5357Z" fill="#868585"/>
    <path d="M196.557 39.0938L192.673 48.8545L188.242 43.3411L192.164 33.5704L196.557 39.0938Z" fill="#1857BD"/>
    <path d="M194.46 39.4129L190.576 49.1736L186.182 43.6502L190.066 33.8895L194.46 39.4129Z" fill="#868585"/>
    <path d="M196.556 39.0937L192.672 48.8538L190.575 49.1736L194.46 39.4134L196.556 39.0937Z" fill="#C0BFBF"/>
    <path d="M184.084 40.9806L180.2 50.7415L175.806 45.218L179.69 35.4571L184.084 40.9806Z" fill="#1857BD"/>
    <path d="M182.023 41.2898L178.101 51.0604L173.708 45.537L177.63 35.7664L182.023 41.2898Z" fill="#868585"/>
    <path d="M184.083 40.9811L180.198 50.7413L178.101 51.061L182.024 41.2908L184.083 40.9811Z" fill="#C0BFBF"/>
    <path d="M175.1 47.1389L171.179 56.9096L163.37 47.0944L167.291 37.3237L175.1 47.1389Z" fill="#1857BD"/>
    <path d="M175.1 47.1396L171.177 56.9104L169.081 57.2302L173.003 47.4593L175.1 47.1396Z" fill="#C0BFBF"/>
    <path d="M173.003 47.4592L169.081 57.23L161.31 47.4045L165.194 37.6438L173.003 47.4592Z" fill="#868585"/>
    <path d="M159.249 44.7244L155.327 54.4952L150.934 48.9718L154.856 39.201L159.249 44.7244Z" fill="#1857BD"/>
    <path d="M159.248 44.724L155.326 54.4947L153.267 54.8044L157.151 45.0438L159.248 44.724Z" fill="#C0BFBF"/>
    <path d="M157.151 45.0435L153.267 54.8042L148.836 49.2908L152.758 39.5201L157.151 45.0435Z" fill="#868585"/>
    <path d="M146.813 46.6009L142.891 56.3716L138.498 50.8482L142.42 41.0775L146.813 46.6009Z" fill="#1857BD"/>
    <path d="M146.813 46.6012L142.89 56.3721L140.794 56.6918L144.678 46.9311L146.813 46.6012Z" fill="#C0BFBF"/>
    <path d="M144.678 46.9308L140.794 56.6917L136.4 51.1682L140.284 41.4073L144.678 46.9308Z" fill="#868585"/>
    <path d="M134.339 48.4883L130.418 58.2591L126.024 52.7357L129.946 42.9649L134.339 48.4883Z" fill="#1857BD"/>
    <path d="M134.339 48.488L130.417 58.2584L128.358 58.5681L132.242 48.8077L134.339 48.488Z" fill="#C0BFBF"/>
    <path d="M132.242 48.8076L128.358 58.5686L123.964 53.045L127.848 43.284L132.242 48.8076Z" fill="#868585"/>
    <path d="M125.319 54.6569L121.397 64.4276L113.588 54.6123L117.51 44.8415L125.319 54.6569Z" fill="#1857BD"/>
    <path d="M123.221 54.9762L119.337 64.7369L111.528 54.9216L115.412 45.1609L123.221 54.9762Z" fill="#868585"/>
    <path d="M125.318 54.6576L121.396 64.4283L119.337 64.738L123.221 54.9774L125.318 54.6576Z" fill="#C0BFBF"/>
    <path d="M109.467 52.2422L105.546 62.013L101.152 56.4896L105.074 46.7188L109.467 52.2422Z" fill="#1857BD"/>
    <path d="M107.37 52.5618L103.448 62.3328L99.0547 56.8092L102.976 47.0382L107.37 52.5618Z" fill="#868585"/>
    <path d="M109.466 52.2423L105.544 62.0127L103.447 62.3325L107.37 52.5621L109.466 52.2423Z" fill="#C0BFBF"/>
    <path d="M96.9936 54.129L93.1096 63.8897L88.7163 58.3663L92.5901 48.5679L96.9936 54.129Z" fill="#1857BD"/>
    <path d="M94.8959 54.4484L91.012 64.209L86.6186 58.6856L90.4924 48.8873L94.8959 54.4484Z" fill="#868585"/>
    <path d="M96.9928 54.1296L93.1082 63.8899L91.0115 64.2097L94.8961 54.4493L96.9928 54.1296Z" fill="#C0BFBF"/>
    <path d="M84.5577 56.0056L80.6737 65.7662L76.2803 60.2428L80.1643 50.4822L84.5577 56.0056Z" fill="#1857BD"/>
    <path d="M84.5568 56.0063L80.6722 65.7666L78.5754 66.0864L82.4978 56.3159L84.5568 56.0063Z" fill="#C0BFBF"/>
    <path d="M82.4975 56.3155L78.5758 66.0865L74.1825 60.5629L78.094 50.7542L82.4975 56.3155Z" fill="#868585"/>
    <path d="M75.5367 62.1749L71.6528 71.9357L63.8438 62.1202L67.7176 52.3218L75.5367 62.1749Z" fill="#1857BD"/>
    <path d="M75.5363 62.175L71.6517 71.9356L69.5549 72.2553L73.4773 62.4846L75.5363 62.175Z" fill="#C0BFBF"/>
    <path d="M73.4767 62.4843L69.5552 72.255L61.7462 62.4397L65.6678 52.6689L73.4767 62.4843Z" fill="#868585"/>
    <path d="M59.6855 59.7593L55.7638 69.5303L51.3705 64.0067L55.282 54.1981L59.6855 59.7593Z" fill="#1857BD"/>
    <path d="M57.5878 60.0795L53.7039 69.8399L49.3105 64.3166L53.1843 54.5186L57.5878 60.0795Z" fill="#868585"/>
    <path d="M59.6847 59.7599L55.7625 69.5306L53.7034 69.8403L57.588 60.0797L59.6847 59.7599Z" fill="#C0BFBF"/>
    <path d="M47.2494 61.6368L43.3278 71.4075L38.9344 65.8841L42.8082 56.0859L47.2494 61.6368Z" fill="#1857BD"/>
    <path d="M45.1518 61.9562L41.2301 71.7271L36.8368 66.2036L40.7483 56.3951L45.1518 61.9562Z" fill="#868585"/>
    <path d="M47.2487 61.6364L43.3263 71.4072L41.2296 71.727L45.1519 61.9562L47.2487 61.6364Z" fill="#C0BFBF"/>
    <path d="M34.7753 63.5232L30.8914 73.284L26.498 67.7605L30.3718 57.962L34.7753 63.5232Z" fill="#1857BD"/>
    <path d="M34.7751 63.5238L30.8905 73.2844L28.7938 73.6042L32.7161 63.8335L34.7751 63.5238Z" fill="#C0BFBF"/>
    <path d="M32.7158 63.8336L28.7941 73.6043L24.4007 68.0809L28.3123 58.2725L32.7158 63.8336Z" fill="#868585"/>
    <path d="M182.667 57.2668L178.741 67.0395L43.6961 87.4086L47.5847 77.646L182.667 57.2668Z" fill="#DBA156"/>
    <path d="M25.7453 69.6552L21.8338 79.4637L14.0248 69.6483L17.9363 59.8398L25.7453 69.6552Z" fill="#1857BD"/>
    <path d="M25.7443 69.6552L21.8321 79.4635L19.7731 79.7732L23.6476 69.975L25.7443 69.6552Z" fill="#C0BFBF"/>
    <path d="M23.6472 69.9743L19.7734 79.7728L11.9543 69.9196L15.8382 60.1587L23.6472 69.9743Z" fill="#868585"/>
    <path d="M29.4697 74.3488L25.5479 84.1199L24.2606 82.4869L28.1345 72.6882L29.4697 74.3488Z" fill="#1857BD"/>
    <path d="M28.1339 72.6884L24.2582 82.486L13.1105 84.1809L16.9862 74.3833L28.1339 72.6884Z" fill="#1857BD"/>
    <path d="M29.4694 74.349L25.5458 84.1193L14.3981 85.8142L18.3217 76.0439L29.4694 74.349Z" fill="#C0BFBF"/>
    <path d="M31.9399 85.0696L28.0181 94.8403L26.7206 93.1698L30.6047 83.4091L31.9399 85.0696Z" fill="#1857BD"/>
    <path d="M30.6042 83.4092L26.719 93.1695L20.9384 94.0726L24.8512 84.2646L30.6042 83.4092Z" fill="#1857BD"/>
    <path d="M31.9396 85.0699L28.0167 94.8402L22.2637 95.6956L26.1866 85.9253L31.9396 85.0699Z" fill="#C0BFBF"/>
    <path d="M39.7676 94.9608L35.8835 104.722L34.5961 103.089L38.4701 93.2902L39.7676 94.9608Z" fill="#1857BD"/>
    <path d="M38.47 93.2905L34.595 103.088L28.8043 103.954L32.7272 94.1835L38.47 93.2905Z" fill="#1857BD"/>
    <path d="M39.7673 94.9612L35.882 104.721L30.1391 105.614L34.0142 95.8166L39.7673 94.9612Z" fill="#C0BFBF"/>
    <path d="M47.6334 104.843L43.7595 114.641L42.4243 112.981L46.346 103.21L47.6334 104.843Z" fill="#1857BD"/>
    <path d="M46.3459 103.209L42.4229 112.98L36.6699 113.835L40.5551 104.075L46.3459 103.209Z" fill="#1857BD"/>
    <path d="M47.6331 104.843L43.758 114.64L37.9673 115.506L41.8902 105.736L47.6331 104.843Z" fill="#C0BFBF"/>
    <path d="M60.8672 113.933L56.9831 123.694L55.6479 122.033L59.5697 112.262L60.8672 113.933Z" fill="#1857BD"/>
    <path d="M59.569 112.262L55.6454 122.032L44.5354 123.717L48.4213 113.957L59.569 112.262Z" fill="#1857BD"/>
    <path d="M60.8663 113.932L56.9805 123.692L45.8328 125.387L49.7564 115.617L60.8663 113.932Z" fill="#C0BFBF"/>
    <path d="M63.375 124.643L59.4532 134.414L58.1557 132.743L62.0398 122.982L63.375 124.643Z" fill="#1857BD"/>
    <path d="M62.0392 122.982L58.154 132.742L52.3734 133.645L56.2862 123.838L62.0392 122.982Z" fill="#1857BD"/>
    <path d="M63.3742 124.643L59.4513 134.413L53.6982 135.269L57.6212 125.498L63.3742 124.643Z" fill="#C0BFBF"/>
    <path d="M71.2031 134.535L67.319 144.295L65.9838 142.635L69.9056 132.864L71.2031 134.535Z" fill="#1857BD"/>
    <path d="M69.9051 132.864L65.9821 142.634L60.2392 143.527L64.1621 133.757L69.9051 132.864Z" fill="#1857BD"/>
    <path d="M71.2023 134.534L67.3171 144.295L61.5742 145.188L65.4493 135.39L71.2023 134.534Z" fill="#C0BFBF"/>
    <path d="M79.0587 144.378L75.1471 154.187L73.8496 152.516L77.7336 142.755L79.0587 144.378Z" fill="#1857BD"/>
    <path d="M77.7331 142.755L73.8479 152.515L68.0949 153.371L71.9801 143.61L77.7331 142.755Z" fill="#1857BD"/>
    <path d="M79.0579 144.378L75.1451 154.186L69.3921 155.041L73.315 145.271L79.0579 144.378Z" fill="#C0BFBF"/>
    <path d="M92.3021 153.506L88.418 163.267L87.0828 161.606L90.9568 151.808L92.3021 153.506Z" fill="#1857BD"/>
    <path d="M90.9562 151.807L87.0804 161.605L75.9226 163.263L79.8462 153.492L90.9562 151.807Z" fill="#1857BD"/>
    <path d="M92.3013 153.505L88.4154 163.266L77.2677 164.961L81.1435 155.163L92.3013 153.505Z" fill="#C0BFBF"/>
    <path d="M94.7622 164.189L90.8781 173.949L89.553 172.327L93.4647 162.518L94.7622 164.189Z" fill="#1857BD"/>
    <path d="M93.4647 162.518L89.5519 172.326L83.7989 173.182L87.7218 163.411L93.4647 162.518Z" fill="#1857BD"/>
    <path d="M94.7614 164.189L90.8762 173.949L85.1333 174.842L89.0084 165.044L94.7614 164.189Z" fill="#C0BFBF"/>
    <path d="M102.628 174.07L98.7061 183.841L97.4187 182.208L101.293 172.409L102.628 174.07Z" fill="#1857BD"/>
    <path d="M101.292 172.409L97.4172 182.208L91.6643 183.063L95.5494 173.303L101.292 172.409Z" fill="#1857BD"/>
    <path d="M102.627 174.07L98.7042 183.84L92.9613 184.734L96.8741 174.926L102.627 174.07Z" fill="#C0BFBF"/>
    <path d="M110.504 183.989L106.582 193.76L105.247 192.1L109.158 182.291L110.504 183.989Z" fill="#1857BD"/>
    <path d="M109.158 182.291L105.245 192.099L99.4922 192.954L103.415 183.184L109.158 182.291Z" fill="#1857BD"/>
    <path d="M110.503 183.99L106.58 193.76L100.827 194.615L104.75 184.845L110.503 183.99Z" fill="#C0BFBF"/>
    <path d="M118.982 202.785L104.749 184.841L103.414 183.181L96.8733 174.923L95.5486 173.3L89.0075 165.042L87.7204 163.409L81.1417 155.161L79.8445 153.49L73.3136 145.27L71.9787 143.609L65.4477 135.389L64.1607 133.756L57.6196 125.498L56.2847 123.837L49.7538 115.617L48.4189 113.957L41.888 105.736L40.5531 104.076L34.012 95.8177L32.725 94.1846L26.1839 85.9267L24.849 84.2661L18.3181 76.0458L16.9832 74.3852L6.78503 61.5367L2.86359 71.3075L13.1096 84.1835L14.3966 85.8166L20.7915 93.8312L22.2625 95.6975L28.2418 103.218L30.1384 105.616L36.6693 113.836L37.9665 115.507L44.5352 123.717L45.8323 125.388L51.8696 132.974L53.6982 135.269L60.2392 143.527L61.5741 145.187L68.0949 153.37L68.8405 154.341L69.1503 154.742L69.3921 155.041L75.4294 162.626L77.2681 164.959L82.9376 172.078L85.1339 174.84L91.6648 183.061L92.962 184.731L99.493 192.952L100.828 194.612L115.061 212.555L118.982 202.785Z" fill="#DBA156"/>
    <path d="M118.94 202.814L104.812 184.842L110.565 183.987L109.219 182.289L103.476 183.182L96.9314 174.925L102.685 174.069L101.349 172.409L95.6058 173.302L89.061 165.045L94.8141 164.189L93.5162 162.519L87.7731 163.412L81.1905 155.165L92.3474 153.507L91.0016 151.809L79.8926 153.494L73.3578 145.275L78.9878 144.412L77.6622 142.789L71.909 143.645L65.3743 135.425L71.1275 134.57L69.8295 132.899L64.0009 133.775L57.7301 125.485L63.521 124.619L62.1853 122.959L56.4322 123.814L49.8974 115.595L61.0064 113.91L59.7085 112.239L48.5617 113.934L41.9138 105.745L47.6569 104.852L46.3691 103.219L40.5782 104.085L34.0434 95.8652L39.8242 94.9621L38.4885 93.3017L32.7455 94.1947L26.1629 85.9477L31.9538 85.0822L30.6181 83.4218L24.8649 84.2772L18.3301 76.0577L29.4769 74.3626L28.1412 72.7022L16.9945 74.3973L6.79036 61.5501L15.9154 60.1545L23.7785 70.1575L25.8756 69.8377L18.0125 59.8348L28.3848 58.2665L32.7901 63.8272L34.8494 63.5176L30.4442 57.9568L40.7613 56.484L45.1666 62.0448L47.2636 61.7251L42.7976 55.9384L53.1322 54.3801L57.5679 60.0539L59.6649 59.7341L55.2597 54.1734L65.632 52.605L73.495 62.608L75.5544 62.2984L67.6913 52.2954L78.0737 50.7647L82.479 56.3255L84.5384 56.0159L80.1432 50.4928L90.4677 48.8969L94.873 54.4576L96.97 54.1379L92.5648 48.5771L102.937 47.0088L107.342 52.5696L109.439 52.2499L105.044 46.7267L115.379 45.1685L123.191 54.9832L125.288 54.6635L117.476 44.8488L127.811 43.2906L132.206 48.8137L134.303 48.4939L129.908 42.9708L140.242 41.4126L144.637 46.9357L146.734 46.616L142.339 41.0929L152.712 39.5245L157.107 45.0476L159.254 44.9162L154.859 39.3931L165.194 37.8349L173.057 47.8378L175.154 47.5181L167.24 37.3269L177.625 35.9569L182.021 41.48L184.08 41.1704L179.624 35.4213L189.996 33.853L194.432 39.5267L196.468 38.9811L192.073 33.458L202.4 32.0228L206.796 37.5459L208.893 37.2262L204.498 31.7031L214.877 30.0117L222.703 40.0247L224.626 39.5094L216.967 29.815L241.244 26.1354L118.94 202.814ZM47.5858 77.6642L112.245 158.953L182.624 57.263L47.5858 77.6642Z" fill="#FECA7A"/>
    <path d="M241.242 26.1382L237.367 35.9363L115.14 212.559L119.063 202.789L241.242 26.1382Z" fill="#DBA156"/>
</svg>
