<svg width="327" height="187" viewBox="0 0 327 187" fill="none" xmlns="http://www.w3.org/2000/svg">
    <g clip-path="url(#clip0)">
        <path d="M15.6098 133.75C15.6098 133.75 -3.1502 148.75 14.3898 167.48L98.9998 142.56L15.6098 133.75Z" fill="#3F90A8"/>
        <path d="M303.68 140.63L154.29 186.3L14.3901 167.48L23.5901 164.55L165.19 119.15H165.29L231.85 133.07L296.84 139.91L303.68 140.63Z" fill="#3F90A8"/>
        <path d="M302.13 113.69L294.47 117.49L302.08 114.77L302 117L273.21 129.28L302 118.06L301.59 129.32L290.53 134.15L301.53 131.22L301.27 138.37L296.85 139.91L154.75 183H154.39L23.5897 164.55L16.7497 163.55C13.1597 154.7 13.8197 145.4 17.7497 135.73L165.16 119.12H165.26L295.26 111.29L302.2 110.52L302.13 113.69Z" fill="#F4F1E5"/>
        <path d="M17.7598 135.739L170.93 101.699L302.25 110.569L157.66 154.539L17.7598 135.739Z" fill="#F8DCC2"/>
        <g style="mix-blend-mode:multiply">
            <path d="M17.7598 135.739L170.93 101.699L302.25 110.569L155.62 154.259L17.7598 135.739Z" fill="#F8DCC2"/>
        </g>
        <path d="M15.6099 133.749L158.32 103.419C165.231 100.97 172.543 99.8499 179.87 100.119L304.78 108.069L155.51 152.549L15.6099 133.749Z" fill="#3F90A8"/>
        <g style="mix-blend-mode:multiply">
            <path d="M303.68 140.629L154.29 186.299L154.39 182.959L155.52 152.569L231.85 133.069L295.3 111.319L302.24 110.549L302.13 113.689L294.47 117.489L302.08 114.769L302.03 116.979L273.24 129.259L301.98 118.059L301.57 129.319L290.51 134.149L301.52 131.219L301.26 138.369L296.84 139.909L303.68 140.629Z" fill="#F8DCC2"/>
        </g>
        <path d="M8.70994 94.2305C8.70994 94.2305 -10.0001 109.21 7.49994 128L92.0999 103L8.70994 94.2305Z" fill="#EC925D"/>
        <path d="M296.78 101.109L147.39 146.779L7.48975 127.959L16.6897 125.029L158.29 79.6289H158.39L224.95 93.5489L289.94 100.389L296.78 101.109Z" fill="#EC925D"/>
        <path d="M295.24 74.1693L287.57 77.9993L295.18 75.2793L295.13 77.4893L266.34 89.7393L295.08 78.5393L294.67 89.7993L283.62 94.6293L294.62 91.6993L294.36 98.8393L289.94 100.389L147.85 143.489L147.49 143.439L16.6901 124.999L9.86014 123.999C6.26014 115.149 6.92014 105.849 10.8601 96.1793L158.29 79.6293H158.39L288.39 71.7993L295.33 71.0293L295.24 74.1693Z" fill="#F4F1E5"/>
        <path d="M10.8599 96.2197L164.03 62.1797L295.35 71.0497L150.76 115.02L10.8599 96.2197Z" fill="#F8DCC2"/>
        <g style="mix-blend-mode:multiply">
            <path d="M10.8599 96.2197L164.03 62.1797L295.35 71.0497L148.72 114.74L10.8599 96.2197Z" fill="#F8DCC2"/>
        </g>
        <path d="M8.70996 94.2287L151.42 63.8987C158.34 61.4457 165.663 60.326 173 60.5987L297.9 68.5387L148.61 112.999L8.70996 94.2287Z" fill="#EC925D"/>
        <g style="mix-blend-mode:multiply">
            <path d="M296.78 101.109L147.39 146.779L147.49 143.439L148.62 113.049L224.95 93.5493L288.4 71.7993L295.34 71.0293L295.24 74.1693L287.57 77.9693L295.18 75.2493L295.13 77.4593L266.34 89.7393L295.08 78.5393L294.67 89.7993L283.62 94.6293L294.62 91.6993L294.36 98.8393L289.94 100.389L296.78 101.109Z" fill="#F8DCC2"/>
        </g>
        <path d="M30.1401 61.5898C30.1401 61.5898 11.3801 76.5898 28.9201 95.3198L113.53 70.3998L30.1401 61.5898Z" fill="#A64C49"/>
        <path d="M318.21 68.4702L168.82 114.14L28.9199 95.3202L38.1199 92.3902L179.72 46.9902H179.82L246.38 60.9102L311.37 67.7502L318.21 68.4702Z" fill="#A64C49"/>
        <path d="M316.66 41.5304L309 45.3304L316.61 42.6104L316.56 44.8204L287.77 57.1004L316.51 45.9004L316.1 57.1604L305 62.0004L316 59.0704L315.74 66.2104L311.32 67.7604L169.23 110.86H168.87L38.12 92.3904L31.28 91.3904C27.69 82.5404 28.35 73.2404 32.28 63.5704L179.72 47.0004H179.82L309.82 39.1704L316.76 38.4004L316.66 41.5304Z" fill="#F4F1E5"/>
        <path d="M32.29 63.5791L185.46 29.5391L316.78 38.4091L172.19 82.3791L32.29 63.5791Z" fill="#F8DCC2"/>
        <g style="mix-blend-mode:multiply">
            <path d="M32.29 63.5791L185.46 29.5391L316.78 38.4091L170.15 82.0991L32.29 63.5791Z" fill="#F8DCC2"/>
        </g>
        <path d="M30.1401 61.5901L172.85 31.2601C179.764 28.824 187.075 27.7179 194.4 28.0001L319.31 35.9001L170 80.3901L30.1401 61.5901Z" fill="#A64C49"/>
        <g style="mix-blend-mode:multiply">
            <path d="M318.21 68.4687L168.82 114.139L168.92 110.799L170.05 80.4087L246.38 60.9087L309.83 39.1587L316.77 38.3887L316.66 41.5187L309 45.3287L316.61 42.5987L316.56 44.8187L287.77 57.0987L316.51 45.8987L316.1 57.1587L305.05 61.9887L316.05 59.0587L315.79 66.1987L311.37 67.7487L318.21 68.4687Z" fill="#F8DCC2"/>
        </g>
        <path d="M321.14 54.2895L310 51.8095L231.41 34.1995L237.14 33.3295L245.58 31.9995L255.92 30.3495L308.92 22.0095L315.87 20.9395C315.87 20.9395 336.29 33.5795 321.14 54.2895Z" fill="#3F90A8"/>
        <path d="M321.13 54.2899L182.93 75.9999L28.3599 47.4199L96.1299 32.6999L101.79 31.3199L132.86 18.3199L164.02 10.6699L196.73 20.3499L241.47 30.7499L245.16 31.8599L245.58 31.9999L246.1 32.1299L311.83 51.5299L321.13 54.2899Z" fill="#3F90A8"/>
        <path d="M39.7698 39.2098L28.2198 35.7198L26.4698 24.5898L56.3498 32.2698L26.3498 23.5298L25.9998 21.3198L33.8998 23.1598L25.8398 20.2598L315.94 20.9398C321.44 41.5798 320.94 41.4898 318.37 50.6598L182.37 72.1098L29.6298 44.6798L28.5098 37.5898L39.7698 39.2098Z" fill="#F8DCC2"/>
        <path d="M314 23.169L158.36 1.20898L25.2998 17.189L175.79 44.889L314 23.169Z" fill="#F8DCC2"/>
        <g style="mix-blend-mode:multiply">
            <path d="M316.19 22.059L315.89 20.939L158.36 1.20898L25.2998 17.189L178 44.589L316.19 22.059Z" fill="#F8DCC2"/>
        </g>
        <path d="M315.89 20.9395L171.09 1.4095C163.932 -0.191737 156.536 -0.429217 149.29 0.709497L22.7197 15.2795L177.72 42.6595L315.89 20.9395Z" fill="#3F90A8"/>
        <g style="mix-blend-mode:multiply">
            <path d="M321.14 54.2891L182.93 75.9991L182.33 72.1091L178 44.5891L177.67 42.5891L241.47 30.6991L308.47 21.8691L315.89 20.8691C315.89 20.8691 336.29 33.5791 321.14 54.2891Z" fill="#F8DCC2"/>
        </g>
    </g>
    <defs>
        <clipPath id="clip0">
            <rect width="326.73" height="186.3" fill="white"/>
        </clipPath>
    </defs>
</svg>
