<svg width="196" height="249" viewBox="0 0 196 249" fill="none" xmlns="http://www.w3.org/2000/svg">
    <g clip-path="url(#clip0)">
        <path d="M104.437 12.4328L177.501 111.369L112.378 191.076L17.059 229.86L-56.0053 130.924L-54.4707 127.693L18.3725 226.36L110.358 188.378L173.751 111.619L100.907 12.9514L104.437 12.4328Z" fill="#FECA7A"/>
        <path d="M100.907 12.9517L173.75 111.619L110.358 188.378L18.3721 226.361L-54.4711 127.693L-52.9613 124.476L19.6856 222.861L108.377 185.691L170.01 111.83L97.3631 13.4456L100.907 12.9517Z" fill="#F7AC4B"/>
        <path d="M97.3634 13.4456L170.01 111.83L108.378 185.691L19.6859 222.861L-52.961 124.476L-51.4406 121.221L20.9851 219.337L106.383 182.979L166.284 112.066L93.8337 13.9642L97.3634 13.4456Z" fill="#D6E2EA"/>
        <path d="M93.8341 13.964L166.285 112.066L106.383 182.979L20.9854 219.337L-51.4403 121.221L-49.9057 117.99L22.3237 215.823L104.388 180.266L162.544 112.277L90.2901 14.4579L93.8341 13.964Z" fill="#D6E2EA"/>
        <path d="M90.29 14.4581L162.544 112.277L104.388 180.267L32.1727 82.4582L90.29 14.4581Z" fill="#F9F8F7"/>
        <path d="M32.1725 82.4584L104.388 180.267L22.3233 215.823L-49.906 117.99L32.1725 82.4584Z" fill="#F9F8F7"/>
        <path d="M-20.7501 130.26L-19.9568 132.067L36.0352 107.492L35.2418 105.685L-20.7501 130.26Z" fill="#A5B7C6"/>
        <path d="M-12.1151 141.945L-11.3218 143.752L44.6702 119.177L43.8768 117.37L-12.1151 141.945Z" fill="#A5B7C6"/>
        <path d="M-3.46643 153.655L-2.6731 155.462L53.3188 130.887L52.5255 129.08L-3.46643 153.655Z" fill="#A5B7C6"/>
        <path d="M5.16833 165.34L5.96167 167.147L61.9536 142.572L61.1603 140.765L5.16833 165.34Z" fill="#A5B7C6"/>
        <path d="M13.8026 177.025L14.5959 178.832L70.5879 154.257L69.7946 152.45L13.8026 177.025Z" fill="#A5B7C6"/>
        <path d="M22.4125 188.724L23.2058 190.531L79.1978 165.956L78.4044 164.149L22.4125 188.724Z" fill="#A5B7C6"/>
        <path d="M93.4381 45.9572L53.4722 92.2402L54.9654 93.5304L94.9313 47.2474L93.4381 45.9572Z" fill="#A5B7C6"/>
        <path d="M102.059 57.6402L62.0774 103.909L63.5701 105.2L103.552 58.931L102.059 57.6402Z" fill="#A5B7C6"/>
        <path d="M110.681 69.3303L70.7317 115.627L72.2253 116.917L112.175 70.62L110.681 69.3303Z" fill="#A5B7C6"/>
        <path d="M119.314 81.0299L79.3645 127.327L80.8581 128.617L120.808 82.3196L119.314 81.0299Z" fill="#A5B7C6"/>
        <path d="M127.948 92.7288L87.9978 139.026L89.4914 140.315L129.441 94.0185L127.948 92.7288Z" fill="#A5B7C6"/>
        <path d="M136.588 104.4L96.6306 150.69L98.124 151.98L138.082 105.69L136.588 104.4Z" fill="#A5B7C6"/>
    </g>
    <defs>
        <clipPath id="clip0">
            <rect width="212" height="164" fill="white" transform="translate(-69.8625 106.922) rotate(-30)"/>
        </clipPath>
    </defs>
</svg>
