<svg width="279" height="231" viewBox="0 0 279 231" fill="none" xmlns="http://www.w3.org/2000/svg">
    <path d="M224.191 39.1064L220.307 48.8671L212.498 39.0517L216.382 29.291L224.191 39.1064Z" fill="#1857BD"/>
    <path d="M224.19 39.1066L220.305 48.8672L218.209 49.187L222.131 39.4163L224.19 39.1066Z" fill="#C0BFBF"/>
    <path d="M222.131 39.4158L218.209 49.1866L210.4 39.3712L214.322 29.6003L222.131 39.4158Z" fill="#868585"/>
    <path d="M208.339 36.6912L204.455 46.452L200.062 40.9285L203.946 31.1678L208.339 36.6912Z" fill="#1857BD"/>
    <path d="M208.339 36.6918L204.454 46.4519L202.358 46.7717L206.242 37.0116L208.339 36.6918Z" fill="#C0BFBF"/>
    <path d="M206.241 37.0106L202.357 46.7713L197.964 41.2478L201.886 31.477L206.241 37.0106Z" fill="#868585"/>
    <path d="M195.903 38.5687L192.019 48.3293L187.588 42.816L191.51 33.0452L195.903 38.5687Z" fill="#1857BD"/>
    <path d="M193.806 38.8878L189.922 48.6485L185.528 43.125L189.412 33.3643L193.806 38.8878Z" fill="#868585"/>
    <path d="M195.903 38.5685L192.018 48.3287L189.921 48.6484L193.806 38.8883L195.903 38.5685Z" fill="#C0BFBF"/>
    <path d="M183.43 40.4555L179.546 50.2164L175.152 44.6928L179.036 34.932L183.43 40.4555Z" fill="#1857BD"/>
    <path d="M181.369 40.7646L177.448 50.5352L173.054 45.0119L176.976 35.2413L181.369 40.7646Z" fill="#868585"/>
    <path d="M183.429 40.456L179.544 50.2161L177.448 50.5359L181.37 40.7656L183.429 40.456Z" fill="#C0BFBF"/>
    <path d="M174.447 46.6138L170.525 56.3844L162.716 46.5692L166.637 36.7986L174.447 46.6138Z" fill="#1857BD"/>
    <path d="M174.446 46.6144L170.524 56.3853L168.427 56.705L172.349 46.9342L174.446 46.6144Z" fill="#C0BFBF"/>
    <path d="M172.349 46.934L168.427 56.7048L160.656 46.8793L164.54 37.1186L172.349 46.934Z" fill="#868585"/>
    <path d="M158.595 44.1993L154.674 53.97L150.28 48.4466L154.202 38.6758L158.595 44.1993Z" fill="#1857BD"/>
    <path d="M158.594 44.1989L154.672 53.9696L152.613 54.2793L156.498 44.5187L158.594 44.1989Z" fill="#C0BFBF"/>
    <path d="M156.498 44.5184L152.614 54.279L148.183 48.7657L152.104 38.9949L156.498 44.5184Z" fill="#868585"/>
    <path d="M146.159 46.0757L142.238 55.8465L137.844 50.3231L141.766 40.5523L146.159 46.0757Z" fill="#1857BD"/>
    <path d="M146.159 46.0761L142.237 55.8469L140.14 56.1667L144.024 46.406L146.159 46.0761Z" fill="#C0BFBF"/>
    <path d="M144.024 46.4057L140.14 56.1665L135.747 50.643L139.631 40.8822L144.024 46.4057Z" fill="#868585"/>
    <path d="M133.686 47.9632L129.764 57.7339L125.371 52.2105L129.292 42.4398L133.686 47.9632Z" fill="#1857BD"/>
    <path d="M133.685 47.9628L129.763 57.7333L127.704 58.0429L131.589 48.2826L133.685 47.9628Z" fill="#C0BFBF"/>
    <path d="M131.588 48.2825L127.704 58.0435L123.311 52.5199L127.195 42.7589L131.588 48.2825Z" fill="#868585"/>
    <path d="M124.665 54.1317L120.744 63.9025L112.935 54.0872L116.856 44.3164L124.665 54.1317Z" fill="#1857BD"/>
    <path d="M122.567 54.4511L118.683 64.2118L110.874 54.3964L114.758 44.6357L122.567 54.4511Z" fill="#868585"/>
    <path d="M124.664 54.1325L120.742 63.9032L118.683 64.2128L122.567 54.4523L124.664 54.1325Z" fill="#C0BFBF"/>
    <path d="M108.814 51.7171L104.892 61.4878L100.498 55.9644L104.42 46.1937L108.814 51.7171Z" fill="#1857BD"/>
    <path d="M106.716 52.0366L102.794 61.8077L98.4009 56.2841L102.323 46.513L106.716 52.0366Z" fill="#868585"/>
    <path d="M108.813 51.7172L104.89 61.4876L102.794 61.8073L106.716 52.037L108.813 51.7172Z" fill="#C0BFBF"/>
    <path d="M96.3398 53.6039L92.4558 63.3646L88.0625 57.8411L91.9363 48.0428L96.3398 53.6039Z" fill="#1857BD"/>
    <path d="M94.2421 53.9232L90.3582 63.6839L85.9648 58.1605L89.8386 48.3621L94.2421 53.9232Z" fill="#868585"/>
    <path d="M96.339 53.6044L92.4544 63.3648L90.3577 63.6845L94.2423 53.9242L96.339 53.6044Z" fill="#C0BFBF"/>
    <path d="M83.9039 55.4805L80.0199 65.241L75.6265 59.7177L79.5105 49.9571L83.9039 55.4805Z" fill="#1857BD"/>
    <path d="M83.903 55.4811L80.0184 65.2415L77.9216 65.5612L81.844 55.7908L83.903 55.4811Z" fill="#C0BFBF"/>
    <path d="M81.8437 55.7903L77.922 65.5613L73.5287 60.0378L77.4402 50.2291L81.8437 55.7903Z" fill="#868585"/>
    <path d="M74.8829 61.6497L70.999 71.4105L63.19 61.5951L67.0638 51.7966L74.8829 61.6497Z" fill="#1857BD"/>
    <path d="M74.8825 61.6498L70.9979 71.4104L68.9011 71.7302L72.8235 61.9595L74.8825 61.6498Z" fill="#C0BFBF"/>
    <path d="M72.8229 61.9591L68.9014 71.7299L61.0924 61.9146L65.0139 52.1438L72.8229 61.9591Z" fill="#868585"/>
    <path d="M59.0317 59.2342L55.11 69.0052L50.7167 63.4816L54.6282 53.6729L59.0317 59.2342Z" fill="#1857BD"/>
    <path d="M56.934 59.5544L53.0501 69.3148L48.6567 63.7915L52.5305 53.9935L56.934 59.5544Z" fill="#868585"/>
    <path d="M59.0309 59.2348L55.1087 69.0055L53.0496 69.3151L56.9342 59.5545L59.0309 59.2348Z" fill="#C0BFBF"/>
    <path d="M46.5956 61.1117L42.674 70.8824L38.2806 65.359L42.1544 55.5607L46.5956 61.1117Z" fill="#1857BD"/>
    <path d="M44.498 61.4311L40.5763 71.2019L36.1829 65.6785L40.0945 55.8699L44.498 61.4311Z" fill="#868585"/>
    <path d="M46.5949 61.1113L42.6725 70.8821L40.5758 71.2019L44.4981 61.431L46.5949 61.1113Z" fill="#C0BFBF"/>
    <path d="M34.1215 62.998L30.2376 72.7588L25.8442 67.2353L29.718 57.4368L34.1215 62.998Z" fill="#1857BD"/>
    <path d="M34.1213 62.9987L30.2367 72.7593L28.14 73.0791L32.0622 63.3084L34.1213 62.9987Z" fill="#C0BFBF"/>
    <path d="M32.062 63.3084L28.1403 73.0792L23.7469 67.5558L27.6584 57.7474L32.062 63.3084Z" fill="#868585"/>
    <path d="M182.013 56.7416L178.087 66.5144L43.0423 86.8835L46.9309 77.1208L182.013 56.7416Z" fill="#DBA156"/>
    <path d="M25.0915 69.1301L21.18 78.9386L13.371 69.1232L17.2825 59.3147L25.0915 69.1301Z" fill="#1857BD"/>
    <path d="M25.0905 69.13L21.1783 78.9384L19.1193 79.248L22.9938 69.4498L25.0905 69.13Z" fill="#C0BFBF"/>
    <path d="M22.9933 69.4491L19.1196 79.2477L11.3005 69.3945L15.1844 59.6336L22.9933 69.4491Z" fill="#868585"/>
    <path d="M28.8159 73.8236L24.8941 83.5947L23.6067 81.9617L27.4807 72.1631L28.8159 73.8236Z" fill="#1857BD"/>
    <path d="M27.4801 72.1632L23.6044 81.9609L12.4567 83.6557L16.3324 73.8581L27.4801 72.1632Z" fill="#1857BD"/>
    <path d="M28.8156 73.8239L24.892 83.5941L13.7443 85.289L17.6679 75.5188L28.8156 73.8239Z" fill="#C0BFBF"/>
    <path d="M31.2861 84.5445L27.3643 94.3152L26.0668 92.6446L29.9509 82.884L31.2861 84.5445Z" fill="#1857BD"/>
    <path d="M29.9504 82.8841L26.0652 92.6443L20.2846 93.5475L24.1974 83.7395L29.9504 82.8841Z" fill="#1857BD"/>
    <path d="M31.2858 84.5447L27.3629 94.3151L21.6098 95.1705L25.5328 85.4001L31.2858 84.5447Z" fill="#C0BFBF"/>
    <path d="M39.1138 94.4357L35.2297 104.197L33.9423 102.564L37.8163 92.765L39.1138 94.4357Z" fill="#1857BD"/>
    <path d="M37.8162 92.7654L33.9412 102.563L28.1505 103.429L32.0734 93.6584L37.8162 92.7654Z" fill="#1857BD"/>
    <path d="M39.1135 94.4361L35.2282 104.196L29.4853 105.089L33.3604 95.2915L39.1135 94.4361Z" fill="#C0BFBF"/>
    <path d="M46.9796 104.317L43.1057 114.116L41.7704 112.455L45.6922 102.684L46.9796 104.317Z" fill="#1857BD"/>
    <path d="M45.6921 102.684L41.7691 112.455L36.0161 113.31L39.9013 103.549L45.6921 102.684Z" fill="#1857BD"/>
    <path d="M46.9793 104.318L43.1042 114.115L37.3135 114.981L41.2364 105.211L46.9793 104.318Z" fill="#C0BFBF"/>
    <path d="M60.2134 113.408L56.3293 123.168L54.9941 121.508L58.9159 111.737L60.2134 113.408Z" fill="#1857BD"/>
    <path d="M58.9152 111.737L54.9916 121.507L43.8816 123.191L47.7675 113.432L58.9152 111.737Z" fill="#1857BD"/>
    <path d="M60.2125 113.407L56.3267 123.167L45.179 124.862L49.1026 115.092L60.2125 113.407Z" fill="#C0BFBF"/>
    <path d="M62.7212 124.118L58.7994 133.889L57.5019 132.218L61.386 122.457L62.7212 124.118Z" fill="#1857BD"/>
    <path d="M61.3854 122.457L57.5002 132.217L51.7196 133.12L55.6324 123.312L61.3854 122.457Z" fill="#1857BD"/>
    <path d="M62.7204 124.118L58.7975 133.888L53.0444 134.743L56.9673 124.973L62.7204 124.118Z" fill="#C0BFBF"/>
    <path d="M70.5493 134.01L66.6652 143.77L65.33 142.11L69.2518 132.339L70.5493 134.01Z" fill="#1857BD"/>
    <path d="M69.2513 132.339L65.3283 142.109L59.5853 143.002L63.5083 133.232L69.2513 132.339Z" fill="#1857BD"/>
    <path d="M70.5485 134.009L66.6633 143.769L60.9204 144.662L64.7955 134.864L70.5485 134.009Z" fill="#C0BFBF"/>
    <path d="M78.4049 143.853L74.4933 153.662L73.1957 151.991L77.0798 142.23L78.4049 143.853Z" fill="#1857BD"/>
    <path d="M77.0793 142.23L73.1941 151.99L67.4411 152.846L71.3263 143.085L77.0793 142.23Z" fill="#1857BD"/>
    <path d="M78.4041 143.853L74.4913 153.661L68.7383 154.516L72.6612 144.746L78.4041 143.853Z" fill="#C0BFBF"/>
    <path d="M91.6483 152.981L87.7642 162.741L86.429 161.081L90.303 151.282L91.6483 152.981Z" fill="#1857BD"/>
    <path d="M90.3024 151.282L86.4266 161.08L75.2688 162.737L79.1924 152.967L90.3024 151.282Z" fill="#1857BD"/>
    <path d="M91.6475 152.98L87.7616 162.741L76.6139 164.435L80.4896 154.638L91.6475 152.98Z" fill="#C0BFBF"/>
    <path d="M94.1084 163.664L90.2243 173.424L88.8992 171.801L92.8109 161.993L94.1084 163.664Z" fill="#1857BD"/>
    <path d="M92.8109 161.993L88.8981 171.801L83.1451 172.657L87.068 162.886L92.8109 161.993Z" fill="#1857BD"/>
    <path d="M94.1076 163.664L90.2224 173.424L84.4795 174.317L88.3546 164.519L94.1076 163.664Z" fill="#C0BFBF"/>
    <path d="M101.974 173.545L98.0523 183.315L96.7649 181.682L100.639 171.884L101.974 173.545Z" fill="#1857BD"/>
    <path d="M100.638 171.884L96.7634 181.682L91.0104 182.538L94.8956 172.777L100.638 171.884Z" fill="#1857BD"/>
    <path d="M101.973 173.545L98.0504 183.315L92.3075 184.208L96.2203 174.4L101.973 173.545Z" fill="#C0BFBF"/>
    <path d="M109.85 183.464L105.928 193.235L104.593 191.574L108.505 181.766L109.85 183.464Z" fill="#1857BD"/>
    <path d="M108.504 181.766L104.591 191.574L98.8384 192.429L102.761 182.659L108.504 181.766Z" fill="#1857BD"/>
    <path d="M109.849 183.464L105.926 193.235L100.173 194.09L104.096 184.32L109.849 183.464Z" fill="#C0BFBF"/>
    <path d="M118.329 202.26L104.095 184.316L102.761 182.656L96.2195 174.398L94.8948 172.775L88.3537 164.517L87.0666 162.884L80.4879 154.636L79.1907 152.965L72.6597 144.745L71.3249 143.084L64.7939 134.864L63.5069 133.231L56.9658 124.973L55.6309 123.312L49.1 115.092L47.7651 113.431L41.2342 105.211L39.8993 103.551L33.3582 95.2925L32.0712 93.6595L25.5301 85.4015L24.1952 83.7409L17.6643 75.5206L16.3294 73.86L6.13123 61.0115L2.20978 70.7824L12.4558 83.6584L13.7428 85.2914L20.1377 93.306L21.6086 95.1723L27.588 102.693L29.4846 105.091L36.0155 113.311L37.3127 114.982L43.8814 123.192L45.1785 124.863L51.2158 132.448L53.0444 134.744L59.5854 143.002L60.9203 144.662L67.4411 152.845L68.1867 153.816L68.4965 154.217L68.7383 154.516L74.7756 162.101L76.6142 164.434L82.2838 171.553L84.4801 174.315L91.011 182.535L92.3082 184.206L98.8391 192.426L100.174 194.087L114.407 212.03L118.329 202.26Z" fill="#DBA156"/>
    <path d="M118.286 202.289L104.158 184.317L109.911 183.462L108.566 181.763L102.822 182.657L96.2776 174.399L102.031 173.544L100.695 171.884L94.952 172.777L88.4071 164.52L94.1603 163.664L92.8624 161.994L87.1193 162.887L80.5367 154.64L91.6936 152.982L90.3478 151.284L79.2388 152.969L72.704 144.75L78.3339 143.887L77.0084 142.264L71.2552 143.12L64.7205 134.9L70.4736 134.045L69.1757 132.374L63.3471 133.25L57.0763 124.96L62.8672 124.094L61.5315 122.434L55.7783 123.289L49.2436 115.07L60.3526 113.385L59.0547 111.714L47.9079 113.409L41.26 105.22L47.0031 104.327L45.7153 102.694L39.9244 103.56L33.3896 95.3401L39.1704 94.437L37.8347 92.7765L32.0917 93.6696L25.5091 85.4225L31.3 84.5571L29.9643 82.8966L24.2111 83.752L17.6763 75.5326L28.8231 73.8374L27.4874 72.177L16.3407 73.8721L6.13655 61.025L15.2616 59.6294L23.1247 69.6323L25.2218 69.3126L17.3587 59.3096L27.731 57.7413L32.1363 63.3021L34.1956 62.9925L29.7904 57.4317L40.1075 55.9589L44.5127 61.5196L46.6098 61.1999L42.1438 55.4132L52.4784 53.855L56.914 59.5287L59.0111 59.209L54.6059 53.6482L64.9781 52.0799L72.8412 62.0828L74.9006 61.7732L67.0375 51.7703L77.4199 50.2396L81.8252 55.8004L83.8846 55.4907L79.4894 49.9676L89.8139 48.3717L94.2191 53.9325L96.3162 53.6128L91.911 48.052L102.283 46.4837L106.689 52.0444L108.786 51.7247L104.39 46.2016L114.725 44.6434L122.538 54.4581L124.635 54.1383L116.822 44.3236L127.157 42.7654L131.552 48.2885L133.649 47.9688L129.254 42.4457L139.588 40.8875L143.984 46.4106L146.081 46.0908L141.685 40.5677L152.058 38.9994L156.453 44.5225L158.601 44.391L154.205 38.8679L164.54 37.3097L172.403 47.3127L174.5 46.9929L166.586 36.8017L176.972 35.4317L181.367 40.9549L183.426 40.6452L178.97 34.8962L189.343 33.3279L193.778 39.0016L195.815 38.4559L191.419 32.9328L201.747 31.4977L206.142 37.0208L208.239 36.701L203.844 31.1779L214.223 29.4865L222.049 39.4996L223.972 38.9843L216.313 29.2899L240.591 25.6102L118.286 202.289ZM46.932 77.139L111.592 158.428L181.97 56.7378L46.932 77.139Z" fill="#FECA7A"/>
    <path d="M240.588 25.6131L236.713 35.4111L114.486 212.034L118.409 202.264L240.588 25.6131Z" fill="#DBA156"/>
</svg>
