<svg width="120" height="120" viewBox="0 0 120 120" fill="none" xmlns="http://www.w3.org/2000/svg">
    <g clip-path="url(#clip0)">
        <path d="M98.6719 39.75V67.0309C98.6719 78.4219 78.7729 84.609 60 84.609C41.2271 84.609 21.3281 78.4219 21.3281 67.0309V39.75C21.3281 37.8512 22.8745 36.2344 24.8438 36.2344H95.1562C97.1255 36.2344 98.6719 37.8512 98.6719 39.75Z" fill="#444444"/>
        <path d="M98.6719 39.75V67.0309C98.6719 78.4219 78.7729 84.609 60 84.609V36.2344H95.1562C97.1255 36.2344 98.6719 37.8512 98.6719 39.75Z" fill="#292929"/>
        <path d="M120 31.875C120 33.3517 119.086 34.6875 117.75 35.1791L61.2654 56.2729C60.8442 56.4139 60.4222 56.4844 60.0001 56.4844C59.5781 56.4844 59.156 56.4139 58.7349 56.2729L2.25049 35.1791V28.5699L58.7349 7.4762C59.156 7.33612 59.5781 7.26562 60.0001 7.26562C60.4222 7.26562 60.8442 7.33612 61.2654 7.4762L117.75 28.5699C119.086 29.0625 120 30.3983 120 31.875Z" fill="#6E6E6E"/>
        <path d="M120 31.875C120 33.3517 119.086 34.6875 117.75 35.1791L61.2653 56.2729C60.8441 56.4139 60.4221 56.4844 60 56.4844V7.26562C60.4221 7.26562 60.8441 7.33612 61.2653 7.4762L117.75 28.5699C119.086 29.0625 120 30.3983 120 31.875Z" fill="#5A5A5A"/>
        <path d="M63.5156 31.875C63.5156 33.8434 61.9693 35.3906 60 35.3906H7.03125V87.562L13.851 108.094C14.4846 109.921 13.4995 111.961 11.6721 112.523C9.77325 113.156 7.80487 112.171 7.24274 110.343L7.03125 109.711C6.75018 111.399 5.27344 112.734 3.51562 112.734C1.54633 112.734 0 111.187 0 109.219V31.875C0 29.9057 1.54633 28.3594 3.51562 28.3594H60C61.9693 28.3594 63.5156 29.9057 63.5156 31.875Z" fill="#FDBF00"/>
    </g>
    <defs>
        <clipPath id="clip0">
            <rect width="120" height="120" fill="white"/>
        </clipPath>
    </defs>
</svg>
