<svg width="120" height="120" viewBox="0 0 120 120" fill="none" xmlns="http://www.w3.org/2000/svg">
    <path d="M47.5888 40.106C47.8388 39.4091 48.5397 38.9799 49.2743 39.076C50.0085 39.1715 50.5768 39.7656 50.6398 40.5033L53.1565 69.9059L57.869 52.9196C58.0618 52.225 58.6982 51.748 59.4215 51.7661C60.1417 51.7819 60.7594 52.2848 60.9214 52.9869L63.5457 64.3716L68.0263 45.5459C68.2013 44.8093 68.8771 44.305 69.6324 44.3372C70.3885 44.3732 71.0126 44.9423 71.1179 45.6918L74.4617 69.5313L75.9608 64.6861C76.165 64.0266 76.775 63.5772 77.4652 63.5772H112.928V55.4595C112.928 47.9659 106.852 41.889 99.3543 41.889H77.8091V20.3432C77.8091 12.8461 71.7339 6.77148 64.2374 6.77148H56.3985H55.1619C47.6671 6.77148 41.5884 12.8464 41.5884 20.3432V41.8887H20.042C12.551 41.8887 6.47266 47.9656 6.47266 55.4592V63.7501H39.1046L47.5888 40.106Z" fill="#E74424"/>
    <path d="M75.3861 77.1981C75.1677 77.9024 74.4884 78.3622 73.7553 78.3024C73.0199 78.2425 72.4243 77.6818 72.3222 76.951L69.1581 54.3938L65.0533 71.6411C64.8844 72.3506 64.2502 72.8515 63.5215 72.8515C63.5197 72.8515 63.5177 72.8515 63.5157 72.8515C62.7843 72.8487 62.151 72.3431 61.9868 71.6302L59.2462 59.7402L53.8521 79.1831C53.661 79.8699 53.0361 80.3365 52.3355 80.3365C52.2869 80.3365 52.238 80.3342 52.1888 80.3302C51.4295 80.2594 50.8302 79.6558 50.7654 78.8962L48.1176 47.959L41.696 65.8571C41.4716 66.4832 40.8786 66.9001 40.2136 66.9001H6.68262C7.80184 73.2676 13.3577 78.107 20.0428 78.107H41.5892V99.6531C41.5892 107.15 47.6679 113.228 55.1626 113.228H56.3993H64.2382C71.7347 113.228 77.8099 107.15 77.8099 99.6531V78.107H99.3551C106.107 78.107 111.703 73.1798 112.75 66.7269H78.6267L75.3861 77.1981Z" fill="#E74424"/>
    <path d="M118.426 63.5771H112.928H77.4657C76.7754 63.5771 76.1652 64.0268 75.9612 64.686L74.4622 69.5312L71.1183 45.6917C71.013 44.9422 70.3889 44.3731 69.6328 44.3371C68.8776 44.3049 68.2017 44.8093 68.0268 45.5458L63.5461 64.3715L60.9218 52.9868C60.7599 52.2848 60.1421 51.7818 59.422 51.766C58.6986 51.7479 58.0622 52.2252 57.8694 52.9195L53.1569 69.9058L50.6402 40.5033C50.5772 39.7655 50.009 39.1711 49.2747 39.0759C48.5399 38.9798 47.8393 39.4091 47.5892 40.1059L39.1056 63.7503H6.47338H1.57497C0.705199 63.7503 0 64.4555 0 65.3256C0 66.1951 0.704911 66.9003 1.57497 66.9003H6.68255H40.213C40.8782 66.9003 41.4709 66.4834 41.6953 65.8573L48.1169 47.9592L50.7648 78.8964C50.8298 79.656 51.4291 80.2596 52.1881 80.3304C52.2373 80.3344 52.2863 80.3368 52.3349 80.3368C53.0358 80.3368 53.6604 79.8701 53.8515 79.1833L59.2456 59.7401L61.9861 71.6301C62.1504 72.3434 62.7837 72.8486 63.5151 72.8515C63.5171 72.8515 63.5191 72.8515 63.5208 72.8515C64.2496 72.8515 64.8837 72.3508 65.0526 71.641L69.1575 54.394L72.3215 76.9512C72.4237 77.682 73.0196 78.243 73.7547 78.3026C74.4878 78.3624 75.1671 77.9026 75.3855 77.1983L78.626 66.7265H112.749H118.426C119.295 66.7265 120 66.0216 120 65.1518C120 64.2821 119.296 63.5771 118.426 63.5771Z" fill="#F7F1E6"/>
</svg>
