<svg width="120" height="120" viewBox="0 0 120 120" fill="none" xmlns="http://www.w3.org/2000/svg">
    <path d="M63.7656 112.439C61.2003 112.439 59.6705 109.898 60.4615 107.722L75.5238 66.2996C76.1875 64.475 78.2053 63.5338 80.03 64.1967C81.8546 64.8604 82.7958 66.8782 82.132 68.7029L67.0698 110.124C66.5498 111.552 65.2021 112.439 63.7656 112.439Z" fill="#3AB4FB"/>
    <path d="M101.422 112.439C99.9901 112.439 98.6443 111.558 98.1215 110.135L82.9082 68.7129C82.239 66.8901 83.1746 64.8704 84.9965 64.2012C86.8184 63.531 88.839 64.4667 89.5083 66.2886L104.722 107.711C105.579 110.043 103.821 112.439 101.422 112.439Z" fill="#1D9CFD"/>
    <path d="M108.954 7.5H56.2333C50.1332 7.5 45.1875 12.4457 45.1875 18.5458V59.9698C45.1875 66.0699 50.1332 71.0156 56.2333 71.0156H108.954C115.054 71.0156 120 66.0699 120 59.9698V18.5458C120 12.4457 115.054 7.5 108.954 7.5Z" fill="#EFF6FE"/>
    <path d="M108.954 7.5H82.1318V71.0156H108.954C115.054 71.0156 120 66.0699 120 59.9698V18.5458C120 12.4457 115.054 7.5 108.954 7.5Z" fill="#D9E4EF"/>
    <path d="M37.6556 29.8444C37.6556 38.3011 30.8002 45.1566 22.3434 45.1566C13.8867 45.1566 7.03125 38.3011 7.03125 29.8444C7.03125 21.3867 13.8867 14.5312 22.3434 14.5312C30.8002 14.5312 37.6556 21.3867 37.6556 29.8444Z" fill="#FFCFBE"/>
    <path d="M56.5449 66.88C54.8081 66.0111 54.105 63.8999 54.9729 62.1632L64.3873 43.3344C65.2561 41.5977 67.3682 40.8945 69.1041 41.7624C70.8408 42.6313 71.5439 44.7425 70.676 46.4792L61.2617 65.3071C60.3919 67.0466 58.2789 67.747 56.5449 66.88Z" fill="#FFB826"/>
    <path d="M37.6577 29.8453C37.6577 38.302 30.8022 45.1575 22.3428 45.1575V14.5312C30.8022 14.5312 37.6577 21.3867 37.6577 29.8453Z" fill="#F9BCAA"/>
    <path d="M101.422 27.7109H63.7656C61.8238 27.7109 60.25 26.1362 60.25 24.1953C60.25 22.2535 61.8238 20.6797 63.7656 20.6797H101.422C103.363 20.6797 104.938 22.2535 104.938 24.1953C104.938 26.1362 103.364 27.7109 101.422 27.7109Z" fill="#3AB4FB"/>
    <path d="M101.422 42.7734H85.6475C83.7056 42.7734 82.1318 41.1996 82.1318 39.2578C82.1318 37.316 83.7056 35.7422 85.6475 35.7422H101.422C103.364 35.7422 104.938 37.316 104.938 39.2578C104.938 41.1996 103.364 42.7734 101.422 42.7734Z" fill="#1D9CFD"/>
    <path d="M101.422 57.8359H85.6475C83.7056 57.8359 82.1318 56.2612 82.1318 54.3203C82.1318 52.3785 83.7056 50.8047 85.6475 50.8047H101.422C103.364 50.8047 104.938 52.3785 104.938 54.3203C104.938 56.2612 103.364 57.8359 101.422 57.8359Z" fill="#1D9CFD"/>
    <path d="M101.422 20.6797H82.1318V27.7109H101.422C103.364 27.7109 104.938 26.1362 104.938 24.1953C104.938 22.2535 103.364 20.6797 101.422 20.6797Z" fill="#1D9CFD"/>
    <path d="M33.6401 112.437H11.0468C9.10492 112.437 7.53113 110.864 7.53113 108.922V89.27C3.15765 87.7988 0 83.6597 0 78.7964V67.4997C0 61.5222 2.32635 55.91 6.54968 51.6977C10.6934 47.543 16.452 45.1562 22.3444 45.1562H25.4507C31.6177 45.1562 35.2322 47.4149 40.2979 49.9335C45.8762 52.7075 52.836 56.1682 57.2745 58.3792C61.3696 60.4144 63.3307 65.1871 61.8567 69.5074C61.8521 69.5212 61.8475 69.5349 61.843 69.5486C60.9558 72.1725 58.9673 74.2865 56.3864 75.3485C53.7973 76.4023 50.896 76.2906 48.4113 75.0482C44.8682 73.2758 40.4892 71.0867 37.1567 69.4214V108.922C37.1558 110.864 35.582 112.437 33.6401 112.437Z" fill="#FF7579"/>
    <path d="M57.2747 58.3792C52.8362 56.1682 45.8764 52.7075 40.2972 49.9335C35.2325 47.4149 31.618 45.1562 25.451 45.1562H22.3437C22.3437 45.1562 22.3437 45.1562 22.3428 45.1562V112.437H33.6404C35.5822 112.437 37.156 110.864 37.156 108.922V69.4214C40.4894 71.0867 44.8684 73.2758 48.4115 75.0482C50.8953 76.2906 53.7975 76.4014 56.3857 75.3485C58.9666 74.2865 60.9561 72.1725 61.8432 69.5477C61.8478 69.534 61.8524 69.5203 61.8569 69.5065C63.3309 65.1871 61.3699 60.4144 57.2747 58.3792Z" fill="#FE4A60"/>
</svg>
