<svg width="120" height="120" viewBox="0 0 120 120" fill="none" xmlns="http://www.w3.org/2000/svg">
    <g clip-path="url(#clip0)">
        <path d="M43.1562 81.5781C43.1562 60.1701 60.665 42.8514 82.1441 43.1603C102.95 43.4596 119.868 60.5223 119.999 81.3297C120.073 92.9823 114.958 103.44 106.83 110.534C105.972 111.283 106.096 112.649 107.075 113.229L114.315 117.512C115.486 118.205 114.994 119.999 113.634 119.999L80.8508 119.991C59.9666 119.603 43.1562 102.555 43.1562 81.5781Z" fill="#7ACAA6"/>
        <path d="M114.315 117.516L107.075 113.232C106.095 112.653 105.972 111.286 106.83 110.538C114.958 103.444 120.073 92.9859 119.999 81.3335C119.868 60.5262 102.95 43.4634 82.1442 43.1641C80.7281 43.1437 79.3298 43.2021 77.9521 43.331C97.3357 45.1591 112.631 61.5534 112.756 81.3335C112.829 92.9862 107.714 103.444 99.5861 110.538C98.7283 111.286 98.8518 112.653 99.8318 113.232L107.072 117.516C108.236 118.205 107.755 119.982 106.412 120.001L113.634 120.002C114.994 120.003 115.485 118.208 114.315 117.516Z" fill="#57BE92"/>
        <path d="M83.0481 43.1847C82.7476 43.1732 82.4462 43.1645 82.1441 43.1603C60.665 42.8512 43.1562 60.1701 43.1562 81.5781C43.1562 82.0689 43.1684 82.5567 43.1867 83.0428C64.1659 80.8281 80.8341 64.1638 83.0481 43.1847Z" fill="#57BE92"/>
        <path d="M76.8432 38.4219C76.8432 17.0138 59.3345 -0.304837 37.8554 0.00406912C17.0499 0.3036 0.132014 17.3663 0.000295338 38.1737C-0.0732984 49.8263 5.04194 60.2844 13.1698 67.378C14.0276 68.1266 13.9041 69.4927 12.9242 70.0726L5.68436 74.356C4.51389 75.0486 5.00537 76.843 6.36522 76.8425L39.1489 76.8345C60.0329 76.4464 76.8432 59.3984 76.8432 38.4219Z" fill="#8795DE"/>
        <path d="M37.8562 0.00406912C36.8289 0.0188347 35.8115 0.0760222 34.8049 0.170944C54.3239 1.99837 69.6004 18.425 69.6004 38.4219C69.6004 59.3984 52.7899 76.4464 31.9061 76.8345L6.34473 76.8409C6.35199 76.8409 6.35855 76.8427 6.36605 76.8427L39.1497 76.8348C60.0335 76.4466 76.844 59.3987 76.844 38.4221C76.8438 17.0138 59.3353 -0.304837 37.8562 0.00406912Z" fill="#6C7FD8"/>
        <path d="M38.4213 68.4753C40.6495 68.4753 42.4558 66.669 42.4558 64.4408C42.4558 62.2126 40.6495 60.4062 38.4213 60.4062C36.193 60.4062 34.3867 62.2126 34.3867 64.4408C34.3867 66.669 36.193 68.4753 38.4213 68.4753Z" fill="white"/>
        <path d="M38.4213 53.1727C36.4212 53.1727 34.7996 51.5511 34.7996 49.5509V36.6533C34.7996 34.6531 36.4212 33.0315 38.4213 33.0315C40.8326 33.0315 43.0763 32.0668 44.7394 30.3151C46.4013 28.5648 47.2472 26.2691 47.1218 23.8505C46.8865 19.3203 43.1447 15.6999 38.6032 15.6085C34.181 15.519 30.4015 18.7398 29.7933 23.0994C29.7373 23.5002 29.7089 23.9103 29.7089 24.3191C29.7089 26.3192 28.0873 27.9409 26.0871 27.9409C24.087 27.9409 22.4653 26.3192 22.4653 24.3191C22.4653 23.5763 22.5171 22.8289 22.6193 22.0979C23.7192 14.2149 30.4828 8.36328 38.4228 8.36328C38.5315 8.36328 38.64 8.36445 38.7488 8.36656C47.0691 8.53414 53.9241 15.1707 54.3553 23.4753C54.585 27.8973 53.0353 32.0977 49.9922 35.3028C47.8369 37.573 45.0539 39.1473 42.0431 39.8544V49.5512C42.0431 51.5511 40.4217 53.1727 38.4213 53.1727Z" fill="white"/>
        <path d="M81.5785 85.612C83.8067 85.612 85.613 83.8057 85.613 81.5775C85.613 79.3493 83.8067 77.543 81.5785 77.543C79.3503 77.543 77.5439 79.3493 77.5439 81.5775C77.5439 83.8057 79.3503 85.612 81.5785 85.612Z" fill="white"/>
        <path d="M99.6869 85.612C101.915 85.612 103.721 83.8057 103.721 81.5775C103.721 79.3493 101.915 77.543 99.6869 77.543C97.4587 77.543 95.6523 79.3493 95.6523 81.5775C95.6523 83.8057 97.4587 85.612 99.6869 85.612Z" fill="white"/>
        <path d="M63.4696 85.612C65.6978 85.612 67.5041 83.8057 67.5041 81.5775C67.5041 79.3493 65.6978 77.543 63.4696 77.543C61.2414 77.543 59.4351 79.3493 59.4351 81.5775C59.4351 83.8057 61.2414 85.612 63.4696 85.612Z" fill="white"/>
    </g>
    <defs>
        <clipPath id="clip0">
            <rect width="120" height="120" fill="white"/>
        </clipPath>
    </defs>
</svg>
