<svg width="419" height="601" viewBox="0 0 419 601" fill="none" xmlns="http://www.w3.org/2000/svg">
    <g clip-path="url(#clip0)">
        <path d="M490.849 204.742C476.154 187.715 452.003 182.397 431.515 191.676L424.421 180.575C404.847 149.946 365.627 139.887 337.007 158.177C309.211 175.94 301.393 214.992 319.552 245.252L319.906 245.026L319.591 245.314L396.493 365.651C421.078 404.12 412.281 453.74 376.925 476.334C341.57 498.928 292.818 486.025 268.261 447.598L261.6 437.175C270.454 431.516 275.817 419.05 264.309 401.043L254.495 385.685C287.282 350.62 293.756 299.088 269.374 260.936L261.238 248.204L249.025 256.009L197.981 176.699C188.491 162.045 169.908 156.23 153.758 162.862C144.522 155.292 130.897 156.642 123.326 165.879C115.755 175.115 117.105 188.74 126.342 196.311C135.578 203.882 149.203 202.532 156.774 193.295C160.828 188.349 162.485 181.862 161.299 175.579C170.545 172.805 180.512 176.459 185.773 184.552L236.813 263.813L224.6 271.618L232.85 284.526C245.936 306.078 243.492 333.636 226.816 352.547C218.106 362.997 206.374 370.494 193.232 374.01C169.076 381.163 143.075 371.788 129.042 350.865L120.793 337.956L102.474 349.663L51.7445 270.281C46.5052 262.005 47.4473 251.246 54.0464 244.007C63.8089 251.093 77.4666 248.923 84.5526 239.16C91.6385 229.398 89.4675 215.739 79.7055 208.654C69.9435 201.569 56.2845 203.739 49.1993 213.501C45.3603 218.791 44.0912 225.523 45.7423 231.847C32.7057 243.7 30.0845 263.213 39.5319 278.086L90.2614 357.468L78.0487 365.272L86.1654 377.973C110.574 416.168 160.085 431.94 205.645 416.903L215.459 432.261C226.967 450.268 240.533 450.638 249.387 444.979L256.048 455.403C284.925 500.589 342.639 515.445 384.73 488.547C426.821 461.648 437.555 402.99 408.706 357.846L331.991 237.802C317.793 214.238 323.561 183.995 344.823 170.408C366.708 156.422 396.939 164.485 412.22 188.398L419.303 199.481C398.093 217.784 395.737 249.817 414.041 271.027C432.345 292.237 464.377 294.592 485.587 276.288C506.797 257.984 509.152 225.951 490.849 204.742ZM143.845 185.624C140.473 187.779 135.991 186.792 133.836 183.42C131.681 180.047 132.668 175.566 136.04 173.411C139.413 171.256 143.894 172.243 146.049 175.615C148.204 178.987 147.217 183.469 143.845 185.624ZM62.7647 220.238C66.1369 218.083 70.6183 219.07 72.7733 222.442C74.9283 225.814 73.9415 230.296 70.5693 232.451C67.197 234.606 62.7157 233.619 60.5607 230.247C58.4056 226.875 59.3925 222.393 62.7647 220.238ZM98.3781 370.169L98.0659 369.68L116.385 357.973L116.83 358.67C134.248 384.917 166.707 396.795 196.953 387.989C213.002 383.685 227.329 374.529 237.976 361.773C258.691 338.026 261.562 303.569 245.062 276.722L244.617 276.026L256.83 268.221L257.142 268.71C278.85 302.679 271.768 349.303 240.288 379.603C232.896 386.717 224.485 392.692 215.333 397.33C212.326 398.865 209.239 400.238 206.085 401.443C165.372 417.296 120.086 404.138 98.3781 370.169ZM241.582 432.767C236.087 436.279 230.013 428.12 227.672 424.456L219.391 411.499C219.918 411.248 220.435 410.952 220.961 410.685C221.614 410.362 222.256 410.02 222.902 409.685C225.954 408.096 228.976 406.405 231.917 404.534L232.222 404.339C235.153 402.466 237.947 400.432 240.653 398.341C241.228 397.896 241.844 397.434 242.43 396.964C242.878 396.601 243.367 396.263 243.81 395.894L252.091 408.851C254.432 412.515 259.285 421.454 253.789 424.966L241.582 432.767ZM471.924 268.366C455.062 279.141 432.657 274.207 421.881 257.345C411.106 240.484 416.04 218.078 432.901 207.302C449.763 196.527 472.169 201.461 482.944 218.323C493.695 235.19 488.765 257.575 471.924 268.366Z" fill="#A6DFFF" fill-opacity="0.5"/>
    </g>
    <defs>
        <clipPath id="clip0">
            <rect width="434.809" height="434.809" fill="white" transform="translate(0 234.141) rotate(-32.5808)"/>
        </clipPath>
    </defs>
</svg>
